<?xml version="1.0" encoding="UTF-8" standalone="no"?>
<!-- Created with Inkscape (http://www.inkscape.org/) -->

<svg
   xmlns:dc="http://purl.org/dc/elements/1.1/"
   xmlns:cc="http://creativecommons.org/ns#"
   xmlns:rdf="http://www.w3.org/1999/02/22-rdf-syntax-ns#"
   xmlns:svg="http://www.w3.org/2000/svg"
   xmlns="http://www.w3.org/2000/svg"
   xmlns:sodipodi="http://sodipodi.sourceforge.net/DTD/sodipodi-0.dtd"
   xmlns:inkscape="http://www.inkscape.org/namespaces/inkscape"
   version="1.1"
   id="svg2"
   xml:space="preserve"
   width="1566.61344"
   height="1234.77328"
   viewBox="0 0 195.82668 154.34666"
   sodipodi:docname="FIRSTTech_IconVert_CMYK.svg"
   inkscape:version="0.92.0 r15299"><metadata
     id="metadata8"><rdf:RDF><cc:Work
         rdf:about=""><dc:format>image/svg+xml</dc:format><dc:type
           rdf:resource="http://purl.org/dc/dcmitype/StillImage" /><dc:title></dc:title></cc:Work></rdf:RDF></metadata><defs
     id="defs6" /><sodipodi:namedview
     pagecolor="#ffffff"
     bordercolor="#666666"
     borderopacity="1"
     objecttolerance="10"
     gridtolerance="10"
     guidetolerance="10"
     inkscape:pageopacity="0"
     inkscape:pageshadow="2"
     inkscape:window-width="1366"
     inkscape:window-height="719"
     id="namedview4"
     showgrid="false"
     inkscape:zoom="0.3822564"
     inkscape:cx="97.913338"
     inkscape:cy="639.54082"
     inkscape:window-x="0"
     inkscape:window-y="25"
     inkscape:window-maximized="1"
     inkscape:current-layer="g10" /><g
     id="g10"
     inkscape:groupmode="layer"
     inkscape:label="ink_ext_XXXXXX"
     transform="matrix(1.3333333,0,0,-1.3333333,0,154.34667)"><g
       id="g12"
       transform="scale(0.1)"><path
         d="m 716.816,1014.21 c 13.27,0 26.161,-1.21 38.465,-3.46 l 29.27,30.51 c -20.469,7.08 -43.449,11.06 -67.735,11.06 -41.3,0 -78.789,-11.52 -106.593,-30.26 l 25.507,-24.169 c 23.586,10.339 51.34,16.319 81.086,16.319"
         style="fill:#959596;fill-opacity:1;fill-rule:nonzero;stroke:none"
         id="path14"
         inkscape:connector-curvature="0" /><path
         d="m 716.816,1052.32 c 24.286,0 47.266,-3.98 67.735,-11.06 l 31.824,33.13 c -29.695,11.7 -63.562,18.35 -99.559,18.35 -53.652,0 -102.609,-14.76 -139.972,-39.06 l 33.379,-31.62 c 27.804,18.74 65.293,30.26 106.593,30.26"
         style="fill:#ffffff;fill-opacity:1;fill-rule:nonzero;stroke:none"
         id="path16"
         inkscape:connector-curvature="0" /><path
         d="m 564.004,922.684 c 2.676,10.933 7.617,21.308 14.434,30.898 l -12.825,12.961 c -2.539,-7.969 -3.945,-16.27 -3.945,-24.813 0,-6.496 0.812,-12.851 2.336,-19.046"
         style="fill:#959596;fill-opacity:1;fill-rule:nonzero;stroke:none"
         id="path18"
         inkscape:connector-curvature="0" /><path
         d="m 469.266,850.984 -5.379,-27.89 53.554,23.047 c -3.378,7.109 -4.043,16.379 -5.996,23.918 l -42.179,-19.075"
         style="fill:#959596;fill-opacity:1;fill-rule:nonzero;stroke:none"
         id="path20"
         inkscape:connector-curvature="0" /><path
         d="m 431.582,1154.45 -77.512,-424.442 36.66,-2.988 76.75,430.62 -35.898,-3.19"
         style="fill:#959596;fill-opacity:1;fill-rule:nonzero;stroke:none"
         id="path22"
         inkscape:connector-curvature="0" /><path
         d="m 692.227,910.203 v 34.32 l -56.301,53.368 -25.496,24.169 -33.391,31.62 -109.687,103.96 -76.778,-430.62 162.453,71.406 c -16.172,14.297 -27.636,29.531 -36.152,47.48 l -52.883,-22.695 5.305,27.766 34.266,178.593 2.863,14.99 28.289,-28.49 36.406,-36.656 15.625,-15.758 64.258,-55.351 -62.371,-28.586 c 16.199,-16.184 35.39,-30.434 61.258,-38.489 l 77.824,34.946 -35.488,34.027"
         style="fill:#ed1c24;fill-opacity:1;fill-rule:nonzero;stroke:none"
         id="path24"
         inkscape:connector-curvature="0" /><path
         d="m 869.617,922.684 c 1.516,6.195 2.344,12.55 2.344,19.046 0,19.176 -7.012,37.266 -19.07,52.985 l -18.477,-19.137 c 17.742,-14.765 30.352,-32.953 35.203,-52.894"
         style="fill:#959596;fill-opacity:1;fill-rule:nonzero;stroke:none"
         id="path26"
         inkscape:connector-curvature="0" /><path
         d="m 904.355,741.016 -43.789,42.07 c -7.003,-4.785 -14.492,-9.219 -22.324,-13.293 l 66.113,-63.477 203.875,212.348 -0.22,34.391 -203.655,-212.039"
         style="fill:#959596;fill-opacity:1;fill-rule:nonzero;stroke:none"
         id="path28"
         inkscape:connector-curvature="0" /><path
         d="m 755.789,883.633 -36.062,34.637 -27.598,26.347 -0.098,-34.414 38.797,-37.265 37.09,-35.625 c 9.426,2.343 18.437,5.312 26.914,8.828 l -39.043,37.492"
         style="fill:#959596;fill-opacity:1;fill-rule:nonzero;stroke:none"
         id="path30"
         inkscape:connector-curvature="0" /><path
         d="m 897.547,1075.67 -29.024,-30.21 -32.011,-33.37 -21.824,-22.715 -41.36,-43.066 17.324,-16.629 44.004,45.816 18.399,19.156 33.711,35.098 10.781,11.24 112.113,-107.467 17.34,18 -129.453,124.147"
         style="fill:#959596;fill-opacity:1;fill-rule:nonzero;stroke:none"
         id="path32"
         inkscape:connector-curvature="0" /><path
         d="m 886.766,1029.75 -33.711,-35.098 c 12.062,-15.714 18.906,-33.746 18.906,-52.922 0,-6.496 -0.828,-12.851 -2.344,-19.046 -3.933,-16.137 -12.773,-31.079 -25.39,-44.004 -12.911,-13.239 -29.774,-24.375 -49.395,-32.539 -8.477,-3.516 -17.488,-6.485 -26.914,-8.828 -15.996,-3.965 -33.191,-6.161 -51.102,-6.161 -22.062,0 -43.019,3.289 -62.011,9.207 -25.879,8.059 -48.067,20.993 -64.278,37.188 -5.918,5.898 -11.023,12.238 -15.246,18.937 -5.195,8.246 -9.031,17.02 -11.277,26.2 -1.524,6.195 -2.336,12.55 -2.336,19.046 0,8.543 1.406,16.844 3.945,24.813 l -38.711,39.187 c -14.179,-21.015 -22.175,-44.707 -22.175,-69.8 0,-6.457 0.593,-12.813 1.621,-19.055 2.48,-15.172 7.918,-29.641 15.828,-43.152 3.965,-6.789 8.578,-13.325 13.762,-19.575 13.621,-16.433 31.179,-30.859 51.765,-42.558 35.742,-20.34 80.5,-32.469 129.113,-32.469 34.012,0 66.122,5.926 94.598,16.445 8.645,3.192 16.934,6.805 24.863,10.809 18.36,9.289 34.649,20.645 48.243,33.625 22.812,21.789 38.046,48.125 42.765,76.875 1.024,6.242 1.61,12.598 1.61,19.055 0,35.187 -15.665,67.66 -42.129,93.82"
         style="fill:#ffffff;fill-opacity:1;fill-rule:nonzero;stroke:none"
         id="path34"
         inkscape:connector-curvature="0" /><path
         d="m 755.605,883.379 38.915,-37.375 c 19.593,8.176 36.601,19.18 49.531,32.414 l -53.348,51.23 -17.324,16.629 41.133,42.836 21.804,22.727 32.024,33.36 29.031,30.21 129.139,-123.984 -17.33,-18.059 -105.801,-110.164 c -11.145,-15.265 -25.598,-28.82 -42.688,-40.519 l 43.477,-41.942 203.882,212.332 -212.339,203.876 -79.52,-82.82 -31.828,-33.14 -29.285,-30.5 -62.949,-65.873 63.476,-61.238"
         style="fill:#1c63b7;fill-opacity:1;fill-rule:nonzero;stroke:none"
         id="path36"
         inkscape:connector-curvature="0" /><path
         d="m 576.16,895.434 c 0,0 1.016,-1.676 1.133,-1.868 3.117,-4.945 7.395,-9.48 11.445,-14.003 l 63.43,29.308 -145.762,135.749 -3.972,-21 114.351,-113.222 -40.625,-14.964"
         style="fill:#959596;fill-opacity:1;fill-rule:nonzero;stroke:none"
         id="path38"
         inkscape:connector-curvature="0" /><path
         d="m 928.895,935.93 c 0,-6.457 -0.586,-12.813 -1.61,-19.055 -4.719,-28.75 -19.953,-55.086 -42.765,-76.875 -13.594,-12.98 -29.883,-24.336 -48.243,-33.625 -7.929,-4.004 -16.218,-7.617 -24.863,-10.809 -28.476,-10.519 -60.586,-16.445 -94.598,-16.445 -48.613,0 -93.371,12.129 -129.113,32.469 -20.586,11.699 -38.144,26.125 -51.765,42.558 -5.184,6.25 -9.797,12.786 -13.762,19.575 -7.91,13.511 -13.348,27.98 -15.828,43.152 -1.028,6.242 -1.621,12.598 -1.621,19.055 0,2.031 0.156,4.039 0.253,6.035 -0.019,0.113 -0.058,0.262 -0.07,0.359 -1.035,-6.25 -0.183,-38.058 -0.183,-44.511 0,-10.231 1.367,-20.215 3.894,-29.899 1.973,-7.555 4.68,-14.898 8.059,-22.008 8.515,-17.949 21.289,-34.414 37.468,-48.711 38.926,-34.324 97.344,-56.179 162.668,-56.179 45.332,0 87.297,10.547 121.766,28.445 7.832,4.074 15.285,8.516 22.277,13.301 17.09,11.699 31.563,25.429 42.704,40.703 16.152,22.109 25.332,47.433 25.332,74.348 0,5.675 0.488,32.578 -0.059,43.265 -0.098,1.461 0.059,-3.293 0.059,-5.148"
         style="fill:#959596;fill-opacity:1;fill-rule:nonzero;stroke:none"
         id="path40"
         inkscape:connector-curvature="0" /><path
         d="M 522.109,378.832 H 467.715 V 237.328 h -47.52 v 141.504 h -54.394 v 40.867 h 156.308 v -40.867"
         style="fill:#f46d1b;fill-opacity:1;fill-rule:nonzero;stroke:none"
         id="path42"
         inkscape:connector-curvature="0" /><path
         d="m 527.695,419.699 h 145.352 v -38.054 h -97.832 v -31.934 h 89.394 v -36.777 h -89.394 v -34.746 h 100.39 v -40.86 h -147.91 v 182.371"
         style="fill:#f46d1b;fill-opacity:1;fill-rule:nonzero;stroke:none"
         id="path44"
         inkscape:connector-curvature="0" /><path
         d="m 808.379,354.563 c -2.539,18.39 -16.856,28.097 -36.777,28.097 -30.645,0 -42.403,-27.07 -42.403,-54.14 0,-27.09 11.758,-54.161 42.403,-54.161 22.226,0 35,12.774 36.777,33.719 h 47.519 c -2.558,-47 -37.031,-74.59 -83.281,-74.59 -55.156,0 -90.918,42.149 -90.918,95.032 0,52.871 35.762,95.019 90.918,95.019 39.336,0 82.012,-25.039 83.281,-68.976 h -47.519"
         style="fill:#f46d1b;fill-opacity:1;fill-rule:nonzero;stroke:none"
         id="path46"
         inkscape:connector-curvature="0" /><path
         d="m 865.313,419.699 h 47.5 v -66.414 h 62.578 v 66.414 h 47.519 V 237.328 h -47.519 v 75.098 h -62.578 v -75.098 h -47.5 v 182.371"
         style="fill:#f46d1b;fill-opacity:1;fill-rule:nonzero;stroke:none"
         id="path48"
         inkscape:connector-curvature="0" /><path
         d="m 126.699,121.082 c -2.558,18.379 -16.855,28.09 -36.7771,28.09 -30.6446,0 -42.4024,-27.082 -42.4024,-54.1525 0,-27.0781 11.7578,-54.1601 42.4024,-54.1601 22.2261,0 35.0001,12.7695 36.7771,33.7304 h 47.52 C 171.66,27.582 137.168,0 90.9375,0 35.7617,0 0,42.1484 0,95.0195 c 0,52.8715 35.7617,95.0235 90.9375,95.0235 39.3355,0 81.9925,-25.039 83.2815,-68.961 h -47.52"
         style="fill:#f46d1b;fill-opacity:1;fill-rule:nonzero;stroke:none"
         id="path50"
         inkscape:connector-curvature="0" /><path
         d="m 183.613,186.215 h 47.52 v -66.414 h 62.578 v 66.414 H 341.23 V 3.83203 H 293.711 V 78.9297 H 231.133 V 3.83203 h -47.52 V 186.215"
         style="fill:#f46d1b;fill-opacity:1;fill-rule:nonzero;stroke:none"
         id="path52"
         inkscape:connector-curvature="0" /><path
         d="m 410.664,71.7813 h 41.387 l -20.196,63.8477 h -0.507 z m -3.066,114.4337 h 48.281 L 524.082,3.83203 H 474.531 L 463.281,36.5313 H 399.688 L 388.184,3.83203 H 339.395 L 407.598,186.215"
         style="fill:#f46d1b;fill-opacity:1;fill-rule:nonzero;stroke:none"
         id="path54"
         inkscape:connector-curvature="0" /><path
         d="m 522.5,186.215 h 47.52 V 44.6992 h 85.058 V 3.83203 H 522.5 V 186.215"
         style="fill:#f46d1b;fill-opacity:1;fill-rule:nonzero;stroke:none"
         id="path56"
         inkscape:connector-curvature="0" /><path
         d="m 663.223,186.215 h 47.5 V 44.6992 h 85.058 V 3.83203 H 663.223 V 186.215"
         style="fill:#f46d1b;fill-opacity:1;fill-rule:nonzero;stroke:none"
         id="path58"
         inkscape:connector-curvature="0" /><path
         d="M 803.926,186.215 H 949.277 V 148.148 H 851.445 V 116.211 H 940.84 V 79.4414 H 851.445 V 44.6992 H 951.836 V 3.83203 H 803.926 V 186.215"
         style="fill:#f46d1b;fill-opacity:1;fill-rule:nonzero;stroke:none"
         id="path60"
         inkscape:connector-curvature="0" /><path
         d="m 963.027,186.215 h 48.793 l 63.34,-112.3947 h 0.51 V 186.215 h 44.7 V 3.83203 h -48.79 L 1008.24,117.5 h -0.5 V 3.83203 H 963.027 V 186.215"
         style="fill:#f46d1b;fill-opacity:1;fill-rule:nonzero;stroke:none"
         id="path62"
         inkscape:connector-curvature="0" /><path
         d="m 1305.78,3.83203 h -30.66 L 1272.33,23.75 C 1259.81,6.12891 1238.34,0 1221.49,0 c -55.18,0 -90.94,42.1484 -90.94,95.0195 0,52.8715 35.76,95.0235 90.94,95.0235 37.81,0 78.16,-20.176 82.49,-65.902 h -47.49 c -1.55,15.578 -16.86,25.031 -36.02,25.031 -30.66,0 -42.4,-27.082 -42.4,-54.1525 0,-27.0781 11.74,-54.1601 42.4,-54.1601 23.5,0 39.34,11 41.89,27.6015 h -33.22 v 35.2381 h 76.64 V 3.83203"
         style="fill:#f46d1b;fill-opacity:1;fill-rule:nonzero;stroke:none"
         id="path64"
         inkscape:connector-curvature="0" /><path
         d="m 1320.82,186.215 h 145.33 v -38.067 h -97.83 v -31.937 h 89.41 V 79.4414 h -89.41 V 44.6992 h 100.39 V 3.83203 H 1320.82 V 186.215"
         style="fill:#f46d1b;fill-opacity:1;fill-rule:nonzero;stroke:none"
         id="path66"
         inkscape:connector-curvature="0" /><path
         d="m 360.5,678.637 h 145.887 l -13.739,-56.176 h -69.921 l -6.914,-29.52 h 72.945 l -12.703,-52.046 h -71.996 l -17.286,-73.95 H 311.41 l 49.09,211.692"
         style="fill:#231f20;fill-opacity:1;fill-rule:nonzero;stroke:none"
         id="path68"
         inkscape:connector-curvature="0" /><path
         d="m 526.219,678.637 h 75.363 l -49.09,-211.692 h -75.363 l 49.09,211.692"
         style="fill:#231f20;fill-opacity:1;fill-rule:nonzero;stroke:none"
         id="path70"
         inkscape:connector-curvature="0" /><path
         d="m 676.957,577.707 c 24.199,0 41.141,14.285 41.141,34.594 0,10.793 -7.953,16.187 -23.508,16.187 -4.496,0 -6.914,-0.316 -11.754,-1.269 l -11.41,-48.875 c 2.422,-0.317 2.765,-0.637 5.531,-0.637 z m -55.656,99.66 4.84,0.633 c 24.199,2.859 54.273,4.762 70.867,4.762 27.656,0 49.09,-3.172 65.34,-9.836 20.742,-8.571 33.187,-27.297 33.187,-49.832 0,-19.356 -6.566,-37.766 -19.015,-52.051 -10.719,-12.375 -20.395,-18.406 -40.45,-24.434 l -4.84,-1.589 c 2.075,-1.59 2.77,-2.223 3.805,-3.176 5.875,-6.664 23.508,-40.946 38.375,-74.899 h -82.969 c -10.718,30.153 -13.828,38.082 -28.003,72.364 l -16.594,-72.364 h -73.289 l 48.746,210.422"
         style="fill:#231f20;fill-opacity:1;fill-rule:nonzero;stroke:none"
         id="path72"
         inkscape:connector-curvature="0" /><path
         d="M 974.441,678.637 H 1157.3 l -12.77,-61.282 h -54.28 l -35.95,-150.41 h -75.362 l 35.952,150.41 h -58.827 l 18.378,61.282"
         style="fill:#231f20;fill-opacity:1;fill-rule:nonzero;stroke:none"
         id="path74"
         inkscape:connector-curvature="0" /><path
         d="m 1089.07,487 c 1.64,0 2.56,0.781 2.56,2.273 0,1.422 -0.85,2.204 -2.49,2.204 -0.35,0 -0.42,0 -0.78,-0.071 v -4.336 c 0.29,-0.07 0.43,-0.07 0.71,-0.07 z m -6.61,8.813 c 0.93,0.07 1.07,0.136 2.92,0.281 1.84,0.144 2.63,0.215 3.41,0.215 6.04,0 9.02,-2.348 9.02,-6.825 0,-2.699 -1.13,-4.332 -3.55,-5.257 l -0.28,-0.071 c 0.21,-0.144 0.28,-0.211 0.35,-0.351 0.64,-0.571 2.77,-3.77 4.55,-6.684 h -6.89 c -1.42,2.633 -1.85,3.34 -3.63,6.324 v -6.324 h -5.9 z m 7.11,-25.512 c 8.95,0 16.13,7.179 16.13,16.058 0,8.954 -7.18,16.133 -16.13,16.133 -8.88,0 -16.06,-7.179 -16.06,-16.062 0,-9.024 7.11,-16.129 16.06,-16.129 z m 0,34.465 c 10.16,0 18.4,-8.176 18.4,-18.336 0,-10.231 -8.17,-18.407 -18.4,-18.407 -10.3,0 -18.33,8.036 -18.33,18.407 0,10.23 8.1,18.336 18.33,18.336"
         style="fill:#231f20;fill-opacity:1;fill-rule:nonzero;stroke:none"
         id="path76"
         inkscape:connector-curvature="0" /><path
         d="m 780.828,472.324 c 21.188,-6.293 44.356,-9.824 66.004,-9.824 29.387,0 51.856,6.664 71.215,20.629 21.43,15.238 35.262,38.719 35.262,59.98 0,14.289 -6.223,27.301 -17.286,36.508 -8.64,6.977 -17.628,12.375 -35.953,20.942 l -14.863,6.984 c -4.844,2.539 -7.262,5.078 -7.262,7.934 0,7.617 9.68,13.328 22.817,13.328 9.828,0 21.543,-2.856 43.926,-10.176 l 15.449,57.305 c -16.742,4.546 -33.055,6.828 -49.352,6.828 -61.535,0 -108.894,-33.641 -108.894,-77.121 0,-22.852 15.211,-39.039 53.238,-56.817 17.973,-8.246 21.09,-10.472 21.09,-16.183 0,-8.567 -9.336,-13.965 -24.547,-13.965 -13.484,0 -30.766,4.129 -54.277,12.695 l -0.028,-0.008 -16.539,-59.039"
         style="fill:#231f20;fill-opacity:1;fill-rule:nonzero;stroke:none"
         id="path78"
         inkscape:connector-curvature="0" /></g></g></svg>