<?xml version="1.0" encoding="UTF-8" standalone="no"?>
<!-- Created with Inkscape (http://www.inkscape.org/) -->

<svg
   xmlns:dc="http://purl.org/dc/elements/1.1/"
   xmlns:cc="http://creativecommons.org/ns#"
   xmlns:rdf="http://www.w3.org/1999/02/22-rdf-syntax-ns#"
   xmlns:svg="http://www.w3.org/2000/svg"
   xmlns="http://www.w3.org/2000/svg"
   xmlns:sodipodi="http://sodipodi.sourceforge.net/DTD/sodipodi-0.dtd"
   xmlns:inkscape="http://www.inkscape.org/namespaces/inkscape"
   version="1.1"
   id="svg10"
   width="286.72"
   height="111.36"
   viewBox="0 0 286.72 111.36"
   sodipodi:docname="PTC_New_Logo.svg"
   inkscape:version="0.92.0 r15299">
  <metadata
     id="metadata16">
    <rdf:RDF>
      <cc:Work
         rdf:about="">
        <dc:format>image/svg+xml</dc:format>
        <dc:type
           rdf:resource="http://purl.org/dc/dcmitype/StillImage" />
        <dc:title />
      </cc:Work>
    </rdf:RDF>
  </metadata>
  <defs
     id="defs14" />
  <sodipodi:namedview
     pagecolor="#ffffff"
     bordercolor="#666666"
     borderopacity="1"
     objecttolerance="10"
     gridtolerance="10"
     guidetolerance="10"
     inkscape:pageopacity="0"
     inkscape:pageshadow="2"
     inkscape:window-width="1366"
     inkscape:window-height="719"
     id="namedview12"
     showgrid="false"
     inkscape:zoom="2"
     inkscape:cx="157.89135"
     inkscape:cy="63.321455"
     inkscape:window-x="0"
     inkscape:window-y="25"
     inkscape:window-maximized="1"
     inkscape:current-layer="svg10" />
  <g
     id="g88">
    <!--<path
       style="fill:#fefefe;stroke-width:0.63999999"
       d="M 0,55.68 V 0 h 143.36 143.36 v 55.68 55.68 H 143.36 0 Z"
       id="path104"
       inkscape:connector-curvature="0" />-->
    <path
       style="fill:#5ab63a;stroke-width:0.63999999"
       d="M 23.82679,97.461267 -0.02641996,83.648499 0.14679002,71.117869 0.32,58.587235 12.10183,51.718781 c 6.480007,-3.777649 11.952007,-6.783413 12.16,-6.679474 C 27.674987,46.744936 66.56,69.556582 66.56,69.853261 66.56,70.265062 48.968903,80.64 48.270671,80.64 c -0.200874,0 -5.158094,-2.780096 -11.016044,-6.177984 l -10.650818,-6.177984 -2.261904,1.311795 c -1.244048,0.721485 -2.233543,1.557581 -2.198878,1.857984 0.07223,0.625984 25.966853,15.583904 26.479711,15.295898 C 50.571254,85.655469 93.00775,60.978607 94.56,60.037149 l 2.08,-1.261545 V 71.21223 83.648858 L 72.876518,97.344429 c -13.069915,7.532561 -24.085915,13.748231 -24.48,13.812591 -0.394085,0.0644 -11.450462,-6.09874 -24.569728,-13.695753 z M 253.83535,82.488128 c -2e-5,1e-5 2e-5,5.7e-5 0,5.6e-5 z M 0,52.601628 c 0,39.172248 0,19.586124 0,0 z"
       id="path94"
       inkscape:connector-curvature="0"
       sodipodi:nodetypes="scccscsssccccscccscsccccc" />
    <path
       style="fill:#3c4546;stroke-width:0.63999999"
       d="M 136.96,65.92 V 28.16 h 3.84 3.84 v 4.237172 4.237173 l 2.53802,-2.61525 c 9.39995,-6.775302 15.1983,-7.759024 28.96175,-4.075576 25.10457,12.358941 15.96448,52.663214 -11.99323,52.885492 -6.42638,0.280813 -12.46463,-1.520282 -16.87223,-6.362135 C 146.19894,75.242086 145.1663,74.24 144.97955,74.24 144.7928,74.24 144.64,80.864 144.64,88.96 v 14.72 h -3.84 -3.84 z M 182.82215,54.44 C 182.67462,29.170769 144.64,28.16 144.50438,54.890632 144.46253,84.556476 183.03988,81.648847 182.82215,54.44 Z m 71.92684,28.06089 c -24.02716,-4.709933 -28.14696,-41.619387 -5.86965,-52.586471 7.18465,-3.671383 16.62922,-3.767394 23.87276,-0.371759 4.53503,2.125945 9.06896,6.253384 11.47286,10.444265 C 286.85335,44.56918 286.74872,44.8 282.0432,44.8 h -4.0368 l -1.96502,-2.787802 C 265.36975,26.872243 242.3549,35.763996 242.32104,55.04 c -0.0218,12.40441 8.01772,20.68953 20.11508,20.729626 C 270.232,75.274495 274.2224,70.928533 278.03034,65.28 h 4.02483 c 4.5866,0 4.64208,0.104454 2.40297,4.523136 -5.0246,9.915571 -17.24892,15.140269 -29.70915,12.697754 z M 208,58.56 V 35.2 h -5.76 -5.76 v -3.495083 -3.495083 l 5.6,-0.184917 5.6,-0.184917 0.17711,-9.44 0.17711,-9.44 h 3.82289 3.82289 v 9.6 9.6 h 6.08 6.08 v 3.52 3.52 h -6.08 -6.08 V 58.56 81.92 H 211.84 208 Z M 51.04,54.196433 C 26.418794,39.818866 28.149603,42.370182 38.831939,36.201011 c 10.570254,-6.104443 8.075714,-6.214698 20.544665,0.908048 l 10.416606,5.950365 2.561593,-1.155117 C 73.76368,41.268991 74.820486,40.461468 74.70327,40.109808 74.456301,39.368901 48.560127,24.305789 48.032301,24.596019 46.732388,25.310788 3.7445878,50.31356 2.08,51.323018 L 0,52.584396 0.02062857,40.212198 0.04125715,27.84 23.936681,14.094568 C 37.079165,6.5345805 48.085882,0.37196661 48.396052,0.39987101 48.706224,0.42777542 59.681789,6.6132198 72.786195,14.145303 L 96.612397,27.84 96.466195,40.282268 96.32,52.724536 84.507194,59.642268 c -6.49705,3.804753 -11.96905,6.889841 -12.16,6.855748 C 72.156237,66.46393 62.568,60.928214 51.04,54.196433 Z"
       id="path90"
       inkscape:connector-curvature="0"
       sodipodi:nodetypes="ccccccccccssccccccccccsccsccccscscccccccccccccccccccccccssscscsscccssscccscss" />
  </g>
</svg>
