<?xml version='1.0' encoding='utf-8'?>
<mlt title="Anonymous Submission" version="6.4.1" root="/home/qwerty/wearenumberone" producer="main bin" LC_NUMERIC="en_US.UTF-8">
 <profile width="1920" frame_rate_den="1001" height="1080" display_aspect_num="16" display_aspect_den="9" frame_rate_num="30000" colorspace="709" sample_aspect_den="1" description="HD 1080p 29.97 fps" progressive="1" sample_aspect_num="1"/>
 <producer id="1" title="Anonymous Submission" out="4306" in="0">
  <property name="length">00:02:23;21</property>
  <property name="eof">pause</property>
  <property name="resource">/home/qwerty/Downloads/WANO-FULL-VOCALS.wav</property>
  <property name="audio_index">0</property>
  <property name="video_index">-1</property>
  <property name="mute_on_pause">1</property>
  <property name="mlt_service">avformat-novalidate</property>
  <property name="meta.media.nb_streams">1</property>
  <property name="meta.media.0.stream.type">audio</property>
  <property name="meta.media.0.codec.sample_fmt">s32</property>
  <property name="meta.media.0.codec.sample_rate">48000</property>
  <property name="meta.media.0.codec.channels">2</property>
  <property name="meta.media.0.codec.name">pcm_s24le</property>
  <property name="meta.media.0.codec.long_name">PCM signed 24-bit little-endian</property>
  <property name="meta.media.0.codec.bit_rate">2304000</property>
  <property name="seekable">1</property>
  <property name="kdenlive:folderid">-1</property>
  <property name="kdenlive:file_size">41389288</property>
  <property name="kdenlive:file_hash">6ba4a1b6559736fde38cf2257e791106</property>
  <property name="global_feed">1</property>
 </producer>
 <producer id="2" title="Anonymous Submission" out="4306" in="0">
  <property name="length">00:02:23;21</property>
  <property name="eof">pause</property>
  <property name="resource">/home/qwerty/Downloads/WANO-FULL-INSTRUMENTAL.wav</property>
  <property name="audio_index">0</property>
  <property name="video_index">-1</property>
  <property name="mute_on_pause">1</property>
  <property name="mlt_service">avformat-novalidate</property>
  <property name="meta.media.nb_streams">1</property>
  <property name="meta.media.0.stream.type">audio</property>
  <property name="meta.media.0.codec.sample_fmt">s32</property>
  <property name="meta.media.0.codec.sample_rate">48000</property>
  <property name="meta.media.0.codec.channels">2</property>
  <property name="meta.media.0.codec.name">pcm_s24le</property>
  <property name="meta.media.0.codec.long_name">PCM signed 24-bit little-endian</property>
  <property name="meta.media.0.codec.bit_rate">2304000</property>
  <property name="seekable">1</property>
  <property name="kdenlive:folderid">-1</property>
  <property name="kdenlive:file_size">41389288</property>
  <property name="kdenlive:file_hash">1e057729f8c9d69d36a400bbd71f0afd</property>
  <property name="global_feed">1</property>
 </producer>
 <producer id="3" title="Anonymous Submission" out="5068" in="0">
  <property name="length">00:02:49;03</property>
  <property name="eof">pause</property>
  <property name="resource">/home/qwerty/Downloads/LazyTown - We are Number One Music Video - DASH.webm</property>
  <property name="audio_index">-1</property>
  <property name="video_index">0</property>
  <property name="mute_on_pause">1</property>
  <property name="mlt_service">avformat-novalidate</property>
  <property name="meta.media.nb_streams">1</property>
  <property name="meta.media.0.stream.type">video</property>
  <property name="meta.media.0.stream.frame_rate">23.976</property>
  <property name="meta.media.0.stream.sample_aspect_ratio">1</property>
  <property name="meta.media.0.codec.width">1920</property>
  <property name="meta.media.0.codec.height">1080</property>
  <property name="meta.media.0.codec.rotate">0</property>
  <property name="meta.media.0.codec.frame_rate">1000</property>
  <property name="meta.media.0.codec.pix_fmt">yuv420p</property>
  <property name="meta.media.0.codec.sample_aspect_ratio">0</property>
  <property name="meta.media.0.codec.colorspace">709</property>
  <property name="meta.media.0.codec.name">vp9</property>
  <property name="meta.media.0.codec.long_name">Google VP9</property>
  <property name="meta.media.0.codec.bit_rate">0</property>
  <property name="meta.attr.0.stream.language.markup">eng</property>
  <property name="meta.attr.encoder.markup">google</property>
  <property name="seekable">1</property>
  <property name="meta.media.sample_aspect_num">1</property>
  <property name="meta.media.sample_aspect_den">1</property>
  <property name="aspect_ratio">1</property>
  <property name="kdenlive:folderid">-1</property>
  <property name="meta.media.frame_rate_num">24000</property>
  <property name="meta.media.frame_rate_den">1001</property>
  <property name="meta.media.colorspace">709</property>
  <property name="meta.media.color_trc">2</property>
  <property name="meta.media.width">1920</property>
  <property name="meta.media.height">1080</property>
  <property name="meta.media.top_field_first">0</property>
  <property name="meta.media.progressive">1</property>
  <property name="kdenlive:file_size">56164176</property>
  <property name="kdenlive:file_hash">bece4b72ad7a90aefe2c367b4c72ff6a</property>
  <property name="global_feed">1</property>
  <property name="kdenlive:proxy">-</property>
  <property name="proxy_out">5080</property>
  <property name="kdenlive:originalurl">/home/qwerty/Downloads/LazyTown - We are Number One Music Video - DASH.webm</property>
 </producer>
 <producer id="4" title="Anonymous Submission" out="149" in="0">
  <property name="length">00:00:05;00</property>
  <property name="eof">pause</property>
  <property name="resource">/home/qwerty/Downloads/20683058.mp3</property>
  <property name="audio_index">0</property>
  <property name="video_index">-1</property>
  <property name="mute_on_pause">1</property>
  <property name="mlt_service">avformat-novalidate</property>
  <property name="meta.media.nb_streams">1</property>
  <property name="meta.media.0.stream.type">audio</property>
  <property name="meta.media.0.codec.sample_fmt">s16p</property>
  <property name="meta.media.0.codec.sample_rate">22050</property>
  <property name="meta.media.0.codec.channels">1</property>
  <property name="meta.media.0.codec.name">mp3</property>
  <property name="meta.media.0.codec.long_name">MP3 (MPEG audio layer 3)</property>
  <property name="meta.media.0.codec.bit_rate">40000</property>
  <property name="meta.attr.encoded_by.markup">Lame MP3</property>
  <property name="meta.attr.language.markup">US English</property>
  <property name="meta.attr.album.markup">Created: 2/5/2017 6:46:52 PM</property>
  <property name="meta.attr.artist.markup">TextAloud: IVONA Eric22</property>
  <property name="meta.attr.genre.markup">Speech</property>
  <property name="meta.attr.title.markup">20683058.mp3</property>
  <property name="meta.attr.date.markup">2017</property>
  <property name="seekable">1</property>
  <property name="kdenlive:folderid">-1</property>
  <property name="kdenlive:file_size">29040</property>
  <property name="kdenlive:file_hash">036edbc2860e93d6638f26be55523052</property>
  <property name="global_feed">1</property>
 </producer>
 <producer id="6" title="Anonymous Submission" out="593" in="0">
  <property name="length">00:00:19;24</property>
  <property name="eof">pause</property>
  <property name="resource">/home/qwerty/Downloads/20687233.mp3</property>
  <property name="audio_index">0</property>
  <property name="video_index">-1</property>
  <property name="mute_on_pause">1</property>
  <property name="mlt_service">avformat-novalidate</property>
  <property name="meta.media.nb_streams">1</property>
  <property name="meta.media.0.stream.type">audio</property>
  <property name="meta.media.0.codec.sample_fmt">s16p</property>
  <property name="meta.media.0.codec.sample_rate">22050</property>
  <property name="meta.media.0.codec.channels">1</property>
  <property name="meta.media.0.codec.name">mp3</property>
  <property name="meta.media.0.codec.long_name">MP3 (MPEG audio layer 3)</property>
  <property name="meta.media.0.codec.bit_rate">40000</property>
  <property name="meta.attr.encoded_by.markup">Lame MP3</property>
  <property name="meta.attr.language.markup">US English</property>
  <property name="meta.attr.album.markup">Created: 2/5/2017 11:03:07 PM</property>
  <property name="meta.attr.artist.markup">TextAloud: IVONA Joey22</property>
  <property name="meta.attr.genre.markup">Speech</property>
  <property name="meta.attr.title.markup">20687233.mp3</property>
  <property name="meta.attr.date.markup">2017</property>
  <property name="seekable">1</property>
  <property name="kdenlive:folderid">-1</property>
  <property name="kdenlive:file_size">108191</property>
  <property name="kdenlive:file_hash">3dd9edbb3e4ec26d1b115e35df58eeb1</property>
  <property name="global_feed">1</property>
 </producer>
 <producer id="7" title="Anonymous Submission" out="551" in="0">
  <property name="length">00:00:18;12</property>
  <property name="eof">pause</property>
  <property name="resource">/home/qwerty/Downloads/20688444.mp3</property>
  <property name="audio_index">0</property>
  <property name="video_index">-1</property>
  <property name="mute_on_pause">1</property>
  <property name="mlt_service">avformat-novalidate</property>
  <property name="meta.media.nb_streams">1</property>
  <property name="meta.media.0.stream.type">audio</property>
  <property name="meta.media.0.codec.sample_fmt">s16p</property>
  <property name="meta.media.0.codec.sample_rate">22050</property>
  <property name="meta.media.0.codec.channels">1</property>
  <property name="meta.media.0.codec.name">mp3</property>
  <property name="meta.media.0.codec.long_name">MP3 (MPEG audio layer 3)</property>
  <property name="meta.media.0.codec.bit_rate">40000</property>
  <property name="meta.attr.encoded_by.markup">Lame MP3</property>
  <property name="meta.attr.language.markup">US English</property>
  <property name="meta.attr.album.markup">Created: 2/5/2017 11:55:52 PM</property>
  <property name="meta.attr.artist.markup">TextAloud: IVONA Joey22</property>
  <property name="meta.attr.genre.markup">Speech</property>
  <property name="meta.attr.title.markup">20688444.mp3</property>
  <property name="meta.attr.date.markup">2017</property>
  <property name="seekable">1</property>
  <property name="kdenlive:folderid">-1</property>
  <property name="kdenlive:file_size">101138</property>
  <property name="kdenlive:file_hash">c42e4771264baff00b5c70bb34e153a2</property>
  <property name="global_feed">1</property>
 </producer>
 <producer id="8" title="Anonymous Submission" out="5069" in="0">
  <property name="length">00:02:49;04</property>
  <property name="eof">pause</property>
  <property name="resource">/home/qwerty/Downloads/LazyTown - We are Number One Music Video 720p 192kbps.mp4</property>
  <property name="audio_index">1</property>
  <property name="video_index">0</property>
  <property name="mute_on_pause">1</property>
  <property name="mlt_service">avformat-novalidate</property>
  <property name="meta.media.nb_streams">2</property>
  <property name="meta.media.0.stream.type">video</property>
  <property name="meta.media.0.stream.frame_rate">23.976</property>
  <property name="meta.media.0.stream.sample_aspect_ratio">0</property>
  <property name="meta.media.0.codec.width">1280</property>
  <property name="meta.media.0.codec.height">720</property>
  <property name="meta.media.0.codec.rotate">0</property>
  <property name="meta.media.0.codec.frame_rate">23.976</property>
  <property name="meta.media.0.codec.pix_fmt">yuv420p</property>
  <property name="meta.media.0.codec.sample_aspect_ratio">1</property>
  <property name="meta.media.0.codec.colorspace">709</property>
  <property name="meta.media.0.codec.color_trc">1</property>
  <property name="meta.media.0.codec.name">h264</property>
  <property name="meta.media.0.codec.long_name">H.264 / AVC / MPEG-4 AVC / MPEG-4 part 10</property>
  <property name="meta.media.0.codec.bit_rate">1882270</property>
  <property name="meta.attr.0.stream.creation_time.markup">2016-11-22T23:25:20.000000Z</property>
  <property name="meta.attr.0.stream.handler_name.markup">ISO Media file produced by Google Inc.</property>
  <property name="meta.media.1.stream.type">audio</property>
  <property name="meta.media.1.codec.sample_fmt">fltp</property>
  <property name="meta.media.1.codec.sample_rate">44100</property>
  <property name="meta.media.1.codec.channels">2</property>
  <property name="meta.media.1.codec.name">aac</property>
  <property name="meta.media.1.codec.long_name">AAC (Advanced Audio Coding)</property>
  <property name="meta.media.1.codec.bit_rate">125588</property>
  <property name="meta.attr.1.stream.creation_time.markup">2016-11-22T23:25:20.000000Z</property>
  <property name="meta.attr.1.stream.handler_name.markup">ISO Media file produced by Google Inc.</property>
  <property name="meta.attr.major_brand.markup">mp42</property>
  <property name="meta.attr.minor_version.markup">0</property>
  <property name="meta.attr.compatible_brands.markup">isommp42</property>
  <property name="meta.attr.creation_time.markup">2016-11-22T23:25:20.000000Z</property>
  <property name="seekable">1</property>
  <property name="meta.media.sample_aspect_num">1</property>
  <property name="meta.media.sample_aspect_den">1</property>
  <property name="aspect_ratio">1</property>
  <property name="kdenlive:folderid">-1</property>
  <property name="meta.media.frame_rate_num">24000</property>
  <property name="meta.media.frame_rate_den">1001</property>
  <property name="meta.media.colorspace">709</property>
  <property name="meta.media.color_trc">1</property>
  <property name="meta.media.width">1280</property>
  <property name="meta.media.height">720</property>
  <property name="meta.media.top_field_first">0</property>
  <property name="meta.media.progressive">1</property>
  <property name="kdenlive:file_size">42804400</property>
  <property name="kdenlive:file_hash">b2a556daca7312c39b40907137028d5c</property>
  <property name="global_feed">1</property>
 </producer>
 <producer id="9" title="Anonymous Submission" out="5073" in="0">
  <property name="length">00:02:49;08</property>
  <property name="eof">pause</property>
  <property name="resource">/home/qwerty/Desktop/LazyTown - We are Number One Music Video.m4a</property>
  <property name="audio_index">0</property>
  <property name="video_index">-1</property>
  <property name="mute_on_pause">1</property>
  <property name="mlt_service">avformat-novalidate</property>
  <property name="meta.media.nb_streams">1</property>
  <property name="meta.media.0.stream.type">audio</property>
  <property name="meta.media.0.codec.sample_fmt">fltp</property>
  <property name="meta.media.0.codec.sample_rate">44100</property>
  <property name="meta.media.0.codec.channels">2</property>
  <property name="meta.media.0.codec.name">aac</property>
  <property name="meta.media.0.codec.long_name">AAC (Advanced Audio Coding)</property>
  <property name="meta.media.0.codec.bit_rate">125588</property>
  <property name="meta.attr.0.stream.handler_name.markup">SoundHandler</property>
  <property name="meta.attr.major_brand.markup">M4A </property>
  <property name="meta.attr.minor_version.markup">512</property>
  <property name="meta.attr.compatible_brands.markup">isomiso2</property>
  <property name="meta.attr.encoder.markup">Lavf57.36.100</property>
  <property name="seekable">1</property>
  <property name="kdenlive:folderid">-1</property>
  <property name="kdenlive:file_size">2702384</property>
  <property name="kdenlive:file_hash">ec515e2ce835e6d053eb6310a51939cb</property>
  <property name="global_feed">1</property>
 </producer>
 <producer id="10" title="Anonymous Submission" out="43119" in="0">
  <property name="length">00:23:58;22</property>
  <property name="eof">pause</property>
  <property name="resource">/home/qwerty/LazyTown We Are Number One FULL EPISODE - Robbie's Dream Team - Season 4 Full Episode Music Video - DASH.webm</property>
  <property name="audio_index">-1</property>
  <property name="video_index">0</property>
  <property name="mute_on_pause">1</property>
  <property name="mlt_service">avformat-novalidate</property>
  <property name="meta.media.nb_streams">1</property>
  <property name="meta.media.0.stream.type">video</property>
  <property name="meta.media.0.stream.frame_rate">25</property>
  <property name="meta.media.0.stream.sample_aspect_ratio">1</property>
  <property name="meta.media.0.codec.width">1920</property>
  <property name="meta.media.0.codec.height">1080</property>
  <property name="meta.media.0.codec.rotate">0</property>
  <property name="meta.media.0.codec.frame_rate">1000</property>
  <property name="meta.media.0.codec.pix_fmt">yuv420p</property>
  <property name="meta.media.0.codec.sample_aspect_ratio">0</property>
  <property name="meta.media.0.codec.colorspace">709</property>
  <property name="meta.media.0.codec.name">vp9</property>
  <property name="meta.media.0.codec.long_name">Google VP9</property>
  <property name="meta.media.0.codec.bit_rate">0</property>
  <property name="meta.attr.0.stream.language.markup">eng</property>
  <property name="meta.attr.encoder.markup">google</property>
  <property name="seekable">1</property>
  <property name="meta.media.sample_aspect_num">1</property>
  <property name="meta.media.sample_aspect_den">1</property>
  <property name="aspect_ratio">1</property>
  <property name="kdenlive:folderid">-1</property>
  <property name="meta.media.frame_rate_num">25</property>
  <property name="meta.media.frame_rate_den">1</property>
  <property name="meta.media.colorspace">709</property>
  <property name="meta.media.color_trc">2</property>
  <property name="meta.media.width">1920</property>
  <property name="meta.media.height">1080</property>
  <property name="meta.media.top_field_first">0</property>
  <property name="meta.media.progressive">1</property>
  <property name="kdenlive:file_size">392880873</property>
  <property name="kdenlive:file_hash">a7883f7be0b75ad8d88d64439aa3f80d</property>
  <property name="global_feed">1</property>
  <property name="kdenlive:proxy">-</property>
  <property name="proxy_out">43131</property>
  <property name="kdenlive:originalurl">/home/qwerty/LazyTown We Are Number One FULL EPISODE - Robbie's Dream Team - Season 4 Full Episode Music Video - DASH.webm</property>
 </producer>
 <producer id="11" title="Anonymous Submission" out="131" in="0">
  <property name="length">00:00:04;12</property>
  <property name="eof">pause</property>
  <property name="resource">/home/qwerty/Downloads/20813176.mp3</property>
  <property name="audio_index">0</property>
  <property name="video_index">-1</property>
  <property name="mute_on_pause">1</property>
  <property name="mlt_service">avformat-novalidate</property>
  <property name="meta.media.nb_streams">1</property>
  <property name="meta.media.0.stream.type">audio</property>
  <property name="meta.media.0.codec.sample_fmt">s16p</property>
  <property name="meta.media.0.codec.sample_rate">22050</property>
  <property name="meta.media.0.codec.channels">1</property>
  <property name="meta.media.0.codec.name">mp3</property>
  <property name="meta.media.0.codec.long_name">MP3 (MPEG audio layer 3)</property>
  <property name="meta.media.0.codec.bit_rate">40000</property>
  <property name="meta.attr.encoded_by.markup">Lame MP3</property>
  <property name="meta.attr.language.markup">US English</property>
  <property name="meta.attr.album.markup">Created: 2/8/2017 11:27:46 PM</property>
  <property name="meta.attr.artist.markup">TextAloud: IVONA Joey22</property>
  <property name="meta.attr.genre.markup">Speech</property>
  <property name="meta.attr.title.markup">20813176.mp3</property>
  <property name="meta.attr.date.markup">2017</property>
  <property name="seekable">1</property>
  <property name="kdenlive:folderid">-1</property>
  <property name="kdenlive:file_size">26167</property>
  <property name="kdenlive:file_hash">cab7026cdac5266a74172892700c7f4c</property>
  <property name="global_feed">1</property>
 </producer>
 <producer id="12" title="Anonymous Submission" out="59" in="0">
  <property name="length">00:00:02;00</property>
  <property name="eof">pause</property>
  <property name="resource">/home/qwerty/Downloads/20813418.mp3</property>
  <property name="audio_index">0</property>
  <property name="video_index">-1</property>
  <property name="mute_on_pause">1</property>
  <property name="mlt_service">avformat-novalidate</property>
  <property name="meta.media.nb_streams">1</property>
  <property name="meta.media.0.stream.type">audio</property>
  <property name="meta.media.0.codec.sample_fmt">s16p</property>
  <property name="meta.media.0.codec.sample_rate">22050</property>
  <property name="meta.media.0.codec.channels">1</property>
  <property name="meta.media.0.codec.name">mp3</property>
  <property name="meta.media.0.codec.long_name">MP3 (MPEG audio layer 3)</property>
  <property name="meta.media.0.codec.bit_rate">40000</property>
  <property name="meta.attr.encoded_by.markup">Lame MP3</property>
  <property name="meta.attr.language.markup">US English</property>
  <property name="meta.attr.album.markup">Created: 2/8/2017 11:42:42 PM</property>
  <property name="meta.attr.artist.markup">TextAloud: IVONA Joey22</property>
  <property name="meta.attr.genre.markup">Speech</property>
  <property name="meta.attr.title.markup">20813418.mp3</property>
  <property name="meta.attr.date.markup">2017</property>
  <property name="seekable">1</property>
  <property name="kdenlive:folderid">-1</property>
  <property name="kdenlive:file_size">14150</property>
  <property name="kdenlive:file_hash">0464d9411a5c8b9b616fd3dc5a166484</property>
  <property name="global_feed">1</property>
 </producer>
 <producer id="14" title="Anonymous Submission" out="55" in="0">
  <property name="length">00:00:01;26</property>
  <property name="eof">pause</property>
  <property name="resource">/home/qwerty/Downloads/20845349.mp3</property>
  <property name="audio_index">0</property>
  <property name="video_index">-1</property>
  <property name="mute_on_pause">1</property>
  <property name="mlt_service">avformat-novalidate</property>
  <property name="meta.media.nb_streams">1</property>
  <property name="meta.media.0.stream.type">audio</property>
  <property name="meta.media.0.codec.sample_fmt">s16p</property>
  <property name="meta.media.0.codec.sample_rate">22050</property>
  <property name="meta.media.0.codec.channels">1</property>
  <property name="meta.media.0.codec.name">mp3</property>
  <property name="meta.media.0.codec.long_name">MP3 (MPEG audio layer 3)</property>
  <property name="meta.media.0.codec.bit_rate">40000</property>
  <property name="meta.attr.encoded_by.markup">Lame MP3</property>
  <property name="meta.attr.language.markup">US English</property>
  <property name="meta.attr.album.markup">Created: 2/9/2017 7:04:13 PM</property>
  <property name="meta.attr.artist.markup">TextAloud: IVONA Joey22</property>
  <property name="meta.attr.genre.markup">Speech</property>
  <property name="meta.attr.title.markup">20845349.mp3</property>
  <property name="meta.attr.date.markup">2017</property>
  <property name="seekable">1</property>
  <property name="kdenlive:folderid">-1</property>
  <property name="kdenlive:file_size">13367</property>
  <property name="kdenlive:file_hash">4cdef81d2360aab898ac0dd99d3a035a</property>
  <property name="global_feed">1</property>
 </producer>
 <producer id="15" title="Anonymous Submission" out="42" in="0">
  <property name="length">00:00:01;13</property>
  <property name="eof">pause</property>
  <property name="resource">/home/qwerty/Downloads/20845646.mp3</property>
  <property name="audio_index">0</property>
  <property name="video_index">-1</property>
  <property name="mute_on_pause">1</property>
  <property name="mlt_service">avformat-novalidate</property>
  <property name="meta.media.nb_streams">1</property>
  <property name="meta.media.0.stream.type">audio</property>
  <property name="meta.media.0.codec.sample_fmt">s16p</property>
  <property name="meta.media.0.codec.sample_rate">22050</property>
  <property name="meta.media.0.codec.channels">1</property>
  <property name="meta.media.0.codec.name">mp3</property>
  <property name="meta.media.0.codec.long_name">MP3 (MPEG audio layer 3)</property>
  <property name="meta.media.0.codec.bit_rate">40000</property>
  <property name="meta.attr.encoded_by.markup">Lame MP3</property>
  <property name="meta.attr.language.markup">US English</property>
  <property name="meta.attr.album.markup">Created: 2/9/2017 7:19:37 PM</property>
  <property name="meta.attr.artist.markup">TextAloud: IVONA Joey22</property>
  <property name="meta.attr.genre.markup">Speech</property>
  <property name="meta.attr.title.markup">20845646.mp3</property>
  <property name="meta.attr.date.markup">2017</property>
  <property name="seekable">1</property>
  <property name="kdenlive:folderid">-1</property>
  <property name="kdenlive:file_size">11277</property>
  <property name="kdenlive:file_hash">6ca1541ded5e75959a6b3da8d1ec93b8</property>
  <property name="global_feed">1</property>
 </producer>
 <producer id="16" title="Anonymous Submission" out="686" in="0">
  <property name="length">687</property>
  <property name="eof">pause</property>
  <property name="resource">na.png</property>
  <property name="ttl">25</property>
  <property name="aspect_ratio">1</property>
  <property name="progressive">1</property>
  <property name="seekable">1</property>
  <property name="loop">1</property>
  <property name="meta.media.width">1920</property>
  <property name="meta.media.height">1080</property>
  <property name="mlt_service">pixbuf</property>
  <property name="kdenlive:folderid">-1</property>
  <property name="kdenlive:duration">150</property>
  <property name="kdenlive:file_size">8309047</property>
  <property name="kdenlive:file_hash">33068ba2b9fead7b229883f8e5066df4</property>
  <property name="global_feed">1</property>
 </producer>
 <producer id="17" title="Anonymous Submission" out="829" in="0">
  <property name="length">830</property>
  <property name="eof">pause</property>
  <property name="resource">nv.png</property>
  <property name="ttl">25</property>
  <property name="aspect_ratio">1</property>
  <property name="progressive">1</property>
  <property name="seekable">1</property>
  <property name="loop">1</property>
  <property name="meta.media.width">1920</property>
  <property name="meta.media.height">1080</property>
  <property name="mlt_service">pixbuf</property>
  <property name="kdenlive:folderid">-1</property>
  <property name="kdenlive:duration">150</property>
  <property name="kdenlive:file_size">8309047</property>
  <property name="kdenlive:file_hash">0cdcb2bd5dc1446a8b091199bf1563c2</property>
  <property name="global_feed">1</property>
 </producer>
 <producer id="18" title="Anonymous Submission" out="700" in="0">
  <property name="length">701</property>
  <property name="eof">pause</property>
  <property name="resource">nvna.png</property>
  <property name="ttl">25</property>
  <property name="aspect_ratio">1</property>
  <property name="progressive">1</property>
  <property name="seekable">1</property>
  <property name="loop">1</property>
  <property name="meta.media.width">1920</property>
  <property name="meta.media.height">1080</property>
  <property name="mlt_service">pixbuf</property>
  <property name="kdenlive:folderid">-1</property>
  <property name="kdenlive:duration">150</property>
  <property name="kdenlive:file_size">8309047</property>
  <property name="kdenlive:file_hash">86f932224cd18c36d5222c0ed74e688f</property>
  <property name="global_feed">1</property>
 </producer>
 <producer id="19" title="Anonymous Submission" out="149" in="0">
  <property name="length">150</property>
  <property name="eof">pause</property>
  <property name="resource">/home/qwerty/Downloads/FIRST-FTC'17-VelocityVortex-Qualcomm/FIRSTTechChallenge-IconVertical/FIRSTTech_IconVert_RGB.png</property>
  <property name="ttl">25</property>
  <property name="aspect_ratio">1</property>
  <property name="progressive">1</property>
  <property name="seekable">1</property>
  <property name="loop">1</property>
  <property name="meta.media.width">612</property>
  <property name="meta.media.height">482</property>
  <property name="mlt_service">pixbuf</property>
  <property name="kdenlive:folderid">-1</property>
  <property name="kdenlive:duration">150</property>
  <property name="kdenlive:file_size">79442</property>
  <property name="kdenlive:file_hash">656c26e4d7b4083e0e8f87801dac98d2</property>
  <property name="global_feed">1</property>
 </producer>
 <producer id="20" title="Anonymous Submission" out="31" in="0">
  <property name="length">00:00:01;02</property>
  <property name="eof">pause</property>
  <property name="resource">neg1.wav</property>
  <property name="audio_index">0</property>
  <property name="video_index">-1</property>
  <property name="mute_on_pause">1</property>
  <property name="mlt_service">avformat-novalidate</property>
  <property name="meta.media.nb_streams">1</property>
  <property name="meta.media.0.stream.type">audio</property>
  <property name="meta.media.0.codec.sample_fmt">s16</property>
  <property name="meta.media.0.codec.sample_rate">44100</property>
  <property name="meta.media.0.codec.channels">2</property>
  <property name="meta.media.0.codec.name">pcm_s16le</property>
  <property name="meta.media.0.codec.long_name">PCM signed 16-bit little-endian</property>
  <property name="meta.media.0.codec.bit_rate">1411200</property>
  <property name="seekable">1</property>
  <property name="kdenlive:folderid">-1</property>
  <property name="kdenlive:file_size">186910</property>
  <property name="kdenlive:file_hash">ce117db930be5f05ea62994d0f09fc85</property>
  <property name="global_feed">1</property>
 </producer>
 <producer id="21" out="31" in="0">
  <property name="length">00:00:01;02</property>
  <property name="eof">pause</property>
  <property name="resource">neg10.wav</property>
  <property name="audio_index">0</property>
  <property name="video_index">-1</property>
  <property name="mute_on_pause">1</property>
  <property name="mlt_service">avformat-novalidate</property>
  <property name="meta.media.nb_streams">1</property>
  <property name="meta.media.0.stream.type">audio</property>
  <property name="meta.media.0.codec.sample_fmt">s16</property>
  <property name="meta.media.0.codec.sample_rate">44100</property>
  <property name="meta.media.0.codec.channels">2</property>
  <property name="meta.media.0.codec.name">pcm_s16le</property>
  <property name="meta.media.0.codec.long_name">PCM signed 16-bit little-endian</property>
  <property name="meta.media.0.codec.bit_rate">1411200</property>
  <property name="seekable">1</property>
  <property name="kdenlive:folderid">-1</property>
  <property name="kdenlive:file_size">188630</property>
  <property name="kdenlive:file_hash">5d76b9bcf399793127e59de05aa5d118</property>
 </producer>
 <producer id="22" out="33" in="0">
  <property name="length">00:00:01;04</property>
  <property name="eof">pause</property>
  <property name="resource">neg11.wav</property>
  <property name="audio_index">0</property>
  <property name="video_index">-1</property>
  <property name="mute_on_pause">1</property>
  <property name="mlt_service">avformat-novalidate</property>
  <property name="meta.media.nb_streams">1</property>
  <property name="meta.media.0.stream.type">audio</property>
  <property name="meta.media.0.codec.sample_fmt">s16</property>
  <property name="meta.media.0.codec.sample_rate">44100</property>
  <property name="meta.media.0.codec.channels">2</property>
  <property name="meta.media.0.codec.name">pcm_s16le</property>
  <property name="meta.media.0.codec.long_name">PCM signed 16-bit little-endian</property>
  <property name="meta.media.0.codec.bit_rate">1411200</property>
  <property name="seekable">1</property>
  <property name="kdenlive:folderid">-1</property>
  <property name="kdenlive:file_size">199818</property>
  <property name="kdenlive:file_hash">0d6a2612084679c1a90b203143e0e9b4</property>
 </producer>
 <producer id="23" out="35" in="0">
  <property name="length">00:00:01;06</property>
  <property name="eof">pause</property>
  <property name="resource">neg12.wav</property>
  <property name="audio_index">0</property>
  <property name="video_index">-1</property>
  <property name="mute_on_pause">1</property>
  <property name="mlt_service">avformat-novalidate</property>
  <property name="meta.media.nb_streams">1</property>
  <property name="meta.media.0.stream.type">audio</property>
  <property name="meta.media.0.codec.sample_fmt">s16</property>
  <property name="meta.media.0.codec.sample_rate">44100</property>
  <property name="meta.media.0.codec.channels">2</property>
  <property name="meta.media.0.codec.name">pcm_s16le</property>
  <property name="meta.media.0.codec.long_name">PCM signed 16-bit little-endian</property>
  <property name="meta.media.0.codec.bit_rate">1411200</property>
  <property name="seekable">1</property>
  <property name="kdenlive:folderid">-1</property>
  <property name="kdenlive:file_size">211702</property>
  <property name="kdenlive:file_hash">cb9b1e1db86177fa190bb94baabe5549</property>
 </producer>
 <producer id="24" title="Anonymous Submission" out="33" in="0">
  <property name="length">00:00:01;04</property>
  <property name="eof">pause</property>
  <property name="resource">neg2.wav</property>
  <property name="audio_index">0</property>
  <property name="video_index">-1</property>
  <property name="mute_on_pause">1</property>
  <property name="mlt_service">avformat-novalidate</property>
  <property name="meta.media.nb_streams">1</property>
  <property name="meta.media.0.stream.type">audio</property>
  <property name="meta.media.0.codec.sample_fmt">s16</property>
  <property name="meta.media.0.codec.sample_rate">44100</property>
  <property name="meta.media.0.codec.channels">2</property>
  <property name="meta.media.0.codec.name">pcm_s16le</property>
  <property name="meta.media.0.codec.long_name">PCM signed 16-bit little-endian</property>
  <property name="meta.media.0.codec.bit_rate">1411200</property>
  <property name="seekable">1</property>
  <property name="kdenlive:folderid">-1</property>
  <property name="kdenlive:file_size">198010</property>
  <property name="kdenlive:file_hash">50f42313ff16cce3014e5d34ec4fbf6a</property>
  <property name="global_feed">1</property>
 </producer>
 <producer id="25" title="Anonymous Submission" out="28" in="0">
  <property name="length">00:00:00;29</property>
  <property name="eof">pause</property>
  <property name="resource">neg3.wav</property>
  <property name="audio_index">0</property>
  <property name="video_index">-1</property>
  <property name="mute_on_pause">1</property>
  <property name="mlt_service">avformat-novalidate</property>
  <property name="meta.media.nb_streams">1</property>
  <property name="meta.media.0.stream.type">audio</property>
  <property name="meta.media.0.codec.sample_fmt">s16</property>
  <property name="meta.media.0.codec.sample_rate">44100</property>
  <property name="meta.media.0.codec.channels">2</property>
  <property name="meta.media.0.codec.name">pcm_s16le</property>
  <property name="meta.media.0.codec.long_name">PCM signed 16-bit little-endian</property>
  <property name="meta.media.0.codec.bit_rate">1411200</property>
  <property name="seekable">1</property>
  <property name="kdenlive:folderid">-1</property>
  <property name="kdenlive:file_size">167862</property>
  <property name="kdenlive:file_hash">e473c577c6327786a584aa4df3431a5b</property>
  <property name="global_feed">1</property>
 </producer>
 <producer id="26" title="Anonymous Submission" out="29" in="0">
  <property name="length">00:00:01;00</property>
  <property name="eof">pause</property>
  <property name="resource">neg4.wav</property>
  <property name="audio_index">0</property>
  <property name="video_index">-1</property>
  <property name="mute_on_pause">1</property>
  <property name="mlt_service">avformat-novalidate</property>
  <property name="meta.media.nb_streams">1</property>
  <property name="meta.media.0.stream.type">audio</property>
  <property name="meta.media.0.codec.sample_fmt">s16</property>
  <property name="meta.media.0.codec.sample_rate">44100</property>
  <property name="meta.media.0.codec.channels">2</property>
  <property name="meta.media.0.codec.name">pcm_s16le</property>
  <property name="meta.media.0.codec.long_name">PCM signed 16-bit little-endian</property>
  <property name="meta.media.0.codec.bit_rate">1411200</property>
  <property name="seekable">1</property>
  <property name="kdenlive:folderid">-1</property>
  <property name="kdenlive:file_size">177846</property>
  <property name="kdenlive:file_hash">1617a2228f23515fcfa84f62fc6c465e</property>
  <property name="global_feed">1</property>
 </producer>
 <producer id="27" title="Anonymous Submission" out="31" in="0">
  <property name="length">00:00:01;02</property>
  <property name="eof">pause</property>
  <property name="resource">neg5.wav</property>
  <property name="audio_index">0</property>
  <property name="video_index">-1</property>
  <property name="mute_on_pause">1</property>
  <property name="mlt_service">avformat-novalidate</property>
  <property name="meta.media.nb_streams">1</property>
  <property name="meta.media.0.stream.type">audio</property>
  <property name="meta.media.0.codec.sample_fmt">s16</property>
  <property name="meta.media.0.codec.sample_rate">44100</property>
  <property name="meta.media.0.codec.channels">2</property>
  <property name="meta.media.0.codec.name">pcm_s16le</property>
  <property name="meta.media.0.codec.long_name">PCM signed 16-bit little-endian</property>
  <property name="meta.media.0.codec.bit_rate">1411200</property>
  <property name="seekable">1</property>
  <property name="kdenlive:folderid">-1</property>
  <property name="kdenlive:file_size">188410</property>
  <property name="kdenlive:file_hash">c03a970d0beef6994306d0aa48683e77</property>
  <property name="global_feed">1</property>
 </producer>
 <producer id="28" title="Anonymous Submission" out="33" in="0">
  <property name="length">00:00:01;04</property>
  <property name="eof">pause</property>
  <property name="resource">neg6.wav</property>
  <property name="audio_index">0</property>
  <property name="video_index">-1</property>
  <property name="mute_on_pause">1</property>
  <property name="mlt_service">avformat-novalidate</property>
  <property name="meta.media.nb_streams">1</property>
  <property name="meta.media.0.stream.type">audio</property>
  <property name="meta.media.0.codec.sample_fmt">s16</property>
  <property name="meta.media.0.codec.sample_rate">44100</property>
  <property name="meta.media.0.codec.channels">2</property>
  <property name="meta.media.0.codec.name">pcm_s16le</property>
  <property name="meta.media.0.codec.long_name">PCM signed 16-bit little-endian</property>
  <property name="meta.media.0.codec.bit_rate">1411200</property>
  <property name="seekable">1</property>
  <property name="kdenlive:folderid">-1</property>
  <property name="kdenlive:file_size">199610</property>
  <property name="kdenlive:file_hash">c78866febb18fb9219d0625e2835fc85</property>
  <property name="global_feed">1</property>
 </producer>
 <producer id="29" title="Anonymous Submission" out="35" in="0">
  <property name="length">00:00:01;06</property>
  <property name="eof">pause</property>
  <property name="resource">neg7.wav</property>
  <property name="audio_index">0</property>
  <property name="video_index">-1</property>
  <property name="mute_on_pause">1</property>
  <property name="mlt_service">avformat-novalidate</property>
  <property name="meta.media.nb_streams">1</property>
  <property name="meta.media.0.stream.type">audio</property>
  <property name="meta.media.0.codec.sample_fmt">s16</property>
  <property name="meta.media.0.codec.sample_rate">44100</property>
  <property name="meta.media.0.codec.channels">2</property>
  <property name="meta.media.0.codec.name">pcm_s16le</property>
  <property name="meta.media.0.codec.long_name">PCM signed 16-bit little-endian</property>
  <property name="meta.media.0.codec.bit_rate">1411200</property>
  <property name="seekable">1</property>
  <property name="kdenlive:folderid">-1</property>
  <property name="kdenlive:file_size">211458</property>
  <property name="kdenlive:file_hash">36a6b01afe02808b6ce904a757253a37</property>
  <property name="global_feed">1</property>
 </producer>
 <producer id="30" out="37" in="0">
  <property name="length">00:00:01;08</property>
  <property name="eof">pause</property>
  <property name="resource">neg8.wav</property>
  <property name="audio_index">0</property>
  <property name="video_index">-1</property>
  <property name="mute_on_pause">1</property>
  <property name="mlt_service">avformat-novalidate</property>
  <property name="meta.media.nb_streams">1</property>
  <property name="meta.media.0.stream.type">audio</property>
  <property name="meta.media.0.codec.sample_fmt">s16</property>
  <property name="meta.media.0.codec.sample_rate">44100</property>
  <property name="meta.media.0.codec.channels">2</property>
  <property name="meta.media.0.codec.name">pcm_s16le</property>
  <property name="meta.media.0.codec.long_name">PCM signed 16-bit little-endian</property>
  <property name="meta.media.0.codec.bit_rate">1411200</property>
  <property name="seekable">1</property>
  <property name="kdenlive:folderid">-1</property>
  <property name="kdenlive:file_size">224054</property>
  <property name="kdenlive:file_hash">c72fee24c9b42e3642dfe13389e5763d</property>
 </producer>
 <producer id="31" out="29" in="0">
  <property name="length">00:00:01;00</property>
  <property name="eof">pause</property>
  <property name="resource">neg9.wav</property>
  <property name="audio_index">0</property>
  <property name="video_index">-1</property>
  <property name="mute_on_pause">1</property>
  <property name="mlt_service">avformat-novalidate</property>
  <property name="meta.media.nb_streams">1</property>
  <property name="meta.media.0.stream.type">audio</property>
  <property name="meta.media.0.codec.sample_fmt">s16</property>
  <property name="meta.media.0.codec.sample_rate">44100</property>
  <property name="meta.media.0.codec.channels">2</property>
  <property name="meta.media.0.codec.name">pcm_s16le</property>
  <property name="meta.media.0.codec.long_name">PCM signed 16-bit little-endian</property>
  <property name="meta.media.0.codec.bit_rate">1411200</property>
  <property name="seekable">1</property>
  <property name="kdenlive:folderid">-1</property>
  <property name="kdenlive:file_size">178014</property>
  <property name="kdenlive:file_hash">eea792651a8305dd48c95bb701f06457</property>
 </producer>
 <producer id="32" out="33" in="0">
  <property name="length">00:00:01;04</property>
  <property name="eof">pause</property>
  <property name="resource">pos1.wav</property>
  <property name="audio_index">0</property>
  <property name="video_index">-1</property>
  <property name="mute_on_pause">1</property>
  <property name="mlt_service">avformat-novalidate</property>
  <property name="meta.media.nb_streams">1</property>
  <property name="meta.media.0.stream.type">audio</property>
  <property name="meta.media.0.codec.sample_fmt">s16</property>
  <property name="meta.media.0.codec.sample_rate">44100</property>
  <property name="meta.media.0.codec.channels">2</property>
  <property name="meta.media.0.codec.name">pcm_s16le</property>
  <property name="meta.media.0.codec.long_name">PCM signed 16-bit little-endian</property>
  <property name="meta.media.0.codec.bit_rate">1411200</property>
  <property name="seekable">1</property>
  <property name="kdenlive:folderid">-1</property>
  <property name="kdenlive:file_size">199810</property>
  <property name="kdenlive:file_hash">6269a7e8277a8816ca5584c45412f525</property>
 </producer>
 <producer id="33" out="29" in="0">
  <property name="length">00:00:01;00</property>
  <property name="eof">pause</property>
  <property name="resource">pos10.wav</property>
  <property name="audio_index">0</property>
  <property name="video_index">-1</property>
  <property name="mute_on_pause">1</property>
  <property name="mlt_service">avformat-novalidate</property>
  <property name="meta.media.nb_streams">1</property>
  <property name="meta.media.0.stream.type">audio</property>
  <property name="meta.media.0.codec.sample_fmt">s16</property>
  <property name="meta.media.0.codec.sample_rate">44100</property>
  <property name="meta.media.0.codec.channels">2</property>
  <property name="meta.media.0.codec.name">pcm_s16le</property>
  <property name="meta.media.0.codec.long_name">PCM signed 16-bit little-endian</property>
  <property name="meta.media.0.codec.bit_rate">1411200</property>
  <property name="seekable">1</property>
  <property name="kdenlive:folderid">-1</property>
  <property name="kdenlive:file_size">178246</property>
  <property name="kdenlive:file_hash">f8729d79497e93e7a218ac43045ac607</property>
 </producer>
 <producer id="34" out="28" in="0">
  <property name="length">00:00:00;29</property>
  <property name="eof">pause</property>
  <property name="resource">pos11.wav</property>
  <property name="audio_index">0</property>
  <property name="video_index">-1</property>
  <property name="mute_on_pause">1</property>
  <property name="mlt_service">avformat-novalidate</property>
  <property name="meta.media.nb_streams">1</property>
  <property name="meta.media.0.stream.type">audio</property>
  <property name="meta.media.0.codec.sample_fmt">s16</property>
  <property name="meta.media.0.codec.sample_rate">44100</property>
  <property name="meta.media.0.codec.channels">2</property>
  <property name="meta.media.0.codec.name">pcm_s16le</property>
  <property name="meta.media.0.codec.long_name">PCM signed 16-bit little-endian</property>
  <property name="meta.media.0.codec.bit_rate">1411200</property>
  <property name="seekable">1</property>
  <property name="kdenlive:folderid">-1</property>
  <property name="kdenlive:file_size">168238</property>
  <property name="kdenlive:file_hash">1e5777ff6e06bbf870b92baa960fb09f</property>
 </producer>
 <producer id="35" out="29" in="0">
  <property name="length">00:00:01;00</property>
  <property name="eof">pause</property>
  <property name="resource">pos12.wav</property>
  <property name="audio_index">0</property>
  <property name="video_index">-1</property>
  <property name="mute_on_pause">1</property>
  <property name="mlt_service">avformat-novalidate</property>
  <property name="meta.media.nb_streams">1</property>
  <property name="meta.media.0.stream.type">audio</property>
  <property name="meta.media.0.codec.sample_fmt">s16</property>
  <property name="meta.media.0.codec.sample_rate">44100</property>
  <property name="meta.media.0.codec.channels">2</property>
  <property name="meta.media.0.codec.name">pcm_s16le</property>
  <property name="meta.media.0.codec.long_name">PCM signed 16-bit little-endian</property>
  <property name="meta.media.0.codec.bit_rate">1411200</property>
  <property name="seekable">1</property>
  <property name="kdenlive:folderid">-1</property>
  <property name="kdenlive:file_size">176446</property>
  <property name="kdenlive:file_hash">efbe1b0967f41cb78893978c19c1cc5f</property>
 </producer>
 <producer id="36" out="31" in="0">
  <property name="length">00:00:01;02</property>
  <property name="eof">pause</property>
  <property name="resource">pos2.wav</property>
  <property name="audio_index">0</property>
  <property name="video_index">-1</property>
  <property name="mute_on_pause">1</property>
  <property name="mlt_service">avformat-novalidate</property>
  <property name="meta.media.nb_streams">1</property>
  <property name="meta.media.0.stream.type">audio</property>
  <property name="meta.media.0.codec.sample_fmt">s16</property>
  <property name="meta.media.0.codec.sample_rate">44100</property>
  <property name="meta.media.0.codec.channels">2</property>
  <property name="meta.media.0.codec.name">pcm_s16le</property>
  <property name="meta.media.0.codec.long_name">PCM signed 16-bit little-endian</property>
  <property name="meta.media.0.codec.bit_rate">1411200</property>
  <property name="seekable">1</property>
  <property name="kdenlive:folderid">-1</property>
  <property name="kdenlive:file_size">188602</property>
  <property name="kdenlive:file_hash">aa90c686b81ec702b9d9b7cb2f31f789</property>
 </producer>
 <producer id="37" out="29" in="0">
  <property name="length">00:00:01;00</property>
  <property name="eof">pause</property>
  <property name="resource">pos3.wav</property>
  <property name="audio_index">0</property>
  <property name="video_index">-1</property>
  <property name="mute_on_pause">1</property>
  <property name="mlt_service">avformat-novalidate</property>
  <property name="meta.media.nb_streams">1</property>
  <property name="meta.media.0.stream.type">audio</property>
  <property name="meta.media.0.codec.sample_fmt">s16</property>
  <property name="meta.media.0.codec.sample_rate">44100</property>
  <property name="meta.media.0.codec.channels">2</property>
  <property name="meta.media.0.codec.name">pcm_s16le</property>
  <property name="meta.media.0.codec.long_name">PCM signed 16-bit little-endian</property>
  <property name="meta.media.0.codec.bit_rate">1411200</property>
  <property name="seekable">1</property>
  <property name="kdenlive:folderid">-1</property>
  <property name="kdenlive:file_size">178042</property>
  <property name="kdenlive:file_hash">9285c5c57c4783151f02680ca32743e6</property>
 </producer>
 <producer id="38" out="32" in="0">
  <property name="length">00:00:01;03</property>
  <property name="eof">pause</property>
  <property name="resource">pos4.wav</property>
  <property name="audio_index">0</property>
  <property name="video_index">-1</property>
  <property name="mute_on_pause">1</property>
  <property name="mlt_service">avformat-novalidate</property>
  <property name="meta.media.nb_streams">1</property>
  <property name="meta.media.0.stream.type">audio</property>
  <property name="meta.media.0.codec.sample_fmt">s16</property>
  <property name="meta.media.0.codec.sample_rate">44100</property>
  <property name="meta.media.0.codec.channels">2</property>
  <property name="meta.media.0.codec.name">pcm_s16le</property>
  <property name="meta.media.0.codec.long_name">PCM signed 16-bit little-endian</property>
  <property name="meta.media.0.codec.bit_rate">1411200</property>
  <property name="seekable">1</property>
  <property name="kdenlive:folderid">-1</property>
  <property name="kdenlive:file_size">196046</property>
  <property name="kdenlive:file_hash">dbfa7ae18476bb4d7015b8ab5008a022</property>
 </producer>
 <producer id="39" out="30" in="0">
  <property name="length">00:00:01;01</property>
  <property name="eof">pause</property>
  <property name="resource">pos5.wav</property>
  <property name="audio_index">0</property>
  <property name="video_index">-1</property>
  <property name="mute_on_pause">1</property>
  <property name="mlt_service">avformat-novalidate</property>
  <property name="meta.media.nb_streams">1</property>
  <property name="meta.media.0.stream.type">audio</property>
  <property name="meta.media.0.codec.sample_fmt">s16</property>
  <property name="meta.media.0.codec.sample_rate">44100</property>
  <property name="meta.media.0.codec.channels">2</property>
  <property name="meta.media.0.codec.name">pcm_s16le</property>
  <property name="meta.media.0.codec.long_name">PCM signed 16-bit little-endian</property>
  <property name="meta.media.0.codec.bit_rate">1411200</property>
  <property name="seekable">1</property>
  <property name="kdenlive:folderid">-1</property>
  <property name="kdenlive:file_size">185034</property>
  <property name="kdenlive:file_hash">57dcfc7022e9a5fb6d9d693acc8a4621</property>
 </producer>
 <producer id="40" out="29" in="0">
  <property name="length">00:00:01;00</property>
  <property name="eof">pause</property>
  <property name="resource">pos6.wav</property>
  <property name="audio_index">0</property>
  <property name="video_index">-1</property>
  <property name="mute_on_pause">1</property>
  <property name="mlt_service">avformat-novalidate</property>
  <property name="meta.media.nb_streams">1</property>
  <property name="meta.media.0.stream.type">audio</property>
  <property name="meta.media.0.codec.sample_fmt">s16</property>
  <property name="meta.media.0.codec.sample_rate">44100</property>
  <property name="meta.media.0.codec.channels">2</property>
  <property name="meta.media.0.codec.name">pcm_s16le</property>
  <property name="meta.media.0.codec.long_name">PCM signed 16-bit little-endian</property>
  <property name="meta.media.0.codec.bit_rate">1411200</property>
  <property name="seekable">1</property>
  <property name="kdenlive:folderid">-1</property>
  <property name="kdenlive:file_size">174670</property>
  <property name="kdenlive:file_hash">98149719b3df484d84d088426195e974</property>
 </producer>
 <producer id="41" out="31" in="0">
  <property name="length">00:00:01;02</property>
  <property name="eof">pause</property>
  <property name="resource">pos7.wav</property>
  <property name="audio_index">0</property>
  <property name="video_index">-1</property>
  <property name="mute_on_pause">1</property>
  <property name="mlt_service">avformat-novalidate</property>
  <property name="meta.media.nb_streams">1</property>
  <property name="meta.media.0.stream.type">audio</property>
  <property name="meta.media.0.codec.sample_fmt">s16</property>
  <property name="meta.media.0.codec.sample_rate">44100</property>
  <property name="meta.media.0.codec.channels">2</property>
  <property name="meta.media.0.codec.name">pcm_s16le</property>
  <property name="meta.media.0.codec.long_name">PCM signed 16-bit little-endian</property>
  <property name="meta.media.0.codec.bit_rate">1411200</property>
  <property name="seekable">1</property>
  <property name="kdenlive:folderid">-1</property>
  <property name="kdenlive:file_size">188398</property>
  <property name="kdenlive:file_hash">91029d8403d3d3d83a261ecd4e57e8d0</property>
 </producer>
 <producer id="42" out="29" in="0">
  <property name="length">00:00:01;00</property>
  <property name="eof">pause</property>
  <property name="resource">pos8.wav</property>
  <property name="audio_index">0</property>
  <property name="video_index">-1</property>
  <property name="mute_on_pause">1</property>
  <property name="mlt_service">avformat-novalidate</property>
  <property name="meta.media.nb_streams">1</property>
  <property name="meta.media.0.stream.type">audio</property>
  <property name="meta.media.0.codec.sample_fmt">s16</property>
  <property name="meta.media.0.codec.sample_rate">44100</property>
  <property name="meta.media.0.codec.channels">2</property>
  <property name="meta.media.0.codec.name">pcm_s16le</property>
  <property name="meta.media.0.codec.long_name">PCM signed 16-bit little-endian</property>
  <property name="meta.media.0.codec.bit_rate">1411200</property>
  <property name="seekable">1</property>
  <property name="kdenlive:folderid">-1</property>
  <property name="kdenlive:file_size">177838</property>
  <property name="kdenlive:file_hash">826f954823fc44e1a9dac33f0d7df491</property>
 </producer>
 <producer id="43" out="31" in="0">
  <property name="length">00:00:01;02</property>
  <property name="eof">pause</property>
  <property name="resource">pos9.wav</property>
  <property name="audio_index">0</property>
  <property name="video_index">-1</property>
  <property name="mute_on_pause">1</property>
  <property name="mlt_service">avformat-novalidate</property>
  <property name="meta.media.nb_streams">1</property>
  <property name="meta.media.0.stream.type">audio</property>
  <property name="meta.media.0.codec.sample_fmt">s16</property>
  <property name="meta.media.0.codec.sample_rate">44100</property>
  <property name="meta.media.0.codec.channels">2</property>
  <property name="meta.media.0.codec.name">pcm_s16le</property>
  <property name="meta.media.0.codec.long_name">PCM signed 16-bit little-endian</property>
  <property name="meta.media.0.codec.bit_rate">1411200</property>
  <property name="seekable">1</property>
  <property name="kdenlive:folderid">-1</property>
  <property name="kdenlive:file_size">188830</property>
  <property name="kdenlive:file_hash">fc5736089b0fe9f6ac2b7f08e80190af</property>
 </producer>
 <producer id="44" title="Anonymous Submission" out="30" in="0">
  <property name="length">00:00:01;01</property>
  <property name="eof">pause</property>
  <property name="resource">warningmessage.wav</property>
  <property name="audio_index">0</property>
  <property name="video_index">-1</property>
  <property name="mute_on_pause">1</property>
  <property name="mlt_service">avformat-novalidate</property>
  <property name="meta.media.nb_streams">1</property>
  <property name="meta.media.0.stream.type">audio</property>
  <property name="meta.media.0.codec.sample_fmt">s16</property>
  <property name="meta.media.0.codec.sample_rate">44100</property>
  <property name="meta.media.0.codec.channels">2</property>
  <property name="meta.media.0.codec.name">pcm_s16le</property>
  <property name="meta.media.0.codec.long_name">PCM signed 16-bit little-endian</property>
  <property name="meta.media.0.codec.bit_rate">1411200</property>
  <property name="seekable">1</property>
  <property name="kdenlive:folderid">-1</property>
  <property name="kdenlive:file_size">184144</property>
  <property name="kdenlive:file_hash">1e48ddeaa00488b1e532f1de418fdb6f</property>
  <property name="global_feed">1</property>
 </producer>
 <producer id="45" out="27" in="0">
  <property name="length">00:00:00;28</property>
  <property name="eof">pause</property>
  <property name="resource">errormessage.wav</property>
  <property name="audio_index">0</property>
  <property name="video_index">-1</property>
  <property name="mute_on_pause">1</property>
  <property name="mlt_service">avformat-novalidate</property>
  <property name="meta.media.nb_streams">1</property>
  <property name="meta.media.0.stream.type">audio</property>
  <property name="meta.media.0.codec.sample_fmt">s16</property>
  <property name="meta.media.0.codec.sample_rate">44100</property>
  <property name="meta.media.0.codec.channels">2</property>
  <property name="meta.media.0.codec.name">pcm_s16le</property>
  <property name="meta.media.0.codec.long_name">PCM signed 16-bit little-endian</property>
  <property name="meta.media.0.codec.bit_rate">1411200</property>
  <property name="seekable">1</property>
  <property name="kdenlive:folderid">-1</property>
  <property name="kdenlive:file_size">163952</property>
  <property name="kdenlive:file_hash">c43ebe040501886ed749aa4eef3f0695</property>
 </producer>
 <producer id="46" title="Anonymous Submission" out="358" in="0">
  <property name="length">00:00:11;29</property>
  <property name="eof">pause</property>
  <property name="resource">/home/qwerty/Downloads/20936068.mp3</property>
  <property name="audio_index">0</property>
  <property name="video_index">-1</property>
  <property name="mute_on_pause">1</property>
  <property name="mlt_service">avformat-novalidate</property>
  <property name="meta.media.nb_streams">1</property>
  <property name="meta.media.0.stream.type">audio</property>
  <property name="meta.media.0.codec.sample_fmt">s16p</property>
  <property name="meta.media.0.codec.sample_rate">22050</property>
  <property name="meta.media.0.codec.channels">1</property>
  <property name="meta.media.0.codec.name">mp3</property>
  <property name="meta.media.0.codec.long_name">MP3 (MPEG audio layer 3)</property>
  <property name="meta.media.0.codec.bit_rate">40000</property>
  <property name="meta.attr.encoded_by.markup">Lame MP3</property>
  <property name="meta.attr.language.markup">US English</property>
  <property name="meta.attr.album.markup">Created: 2/12/2017 6:43:23 PM</property>
  <property name="meta.attr.artist.markup">TextAloud: IVONA Joey22</property>
  <property name="meta.attr.genre.markup">Speech</property>
  <property name="meta.attr.title.markup">20936068.mp3</property>
  <property name="meta.attr.date.markup">2017</property>
  <property name="seekable">1</property>
  <property name="kdenlive:folderid">-1</property>
  <property name="kdenlive:file_size">64044</property>
  <property name="kdenlive:file_hash">cab8f4d27eda0a2e734bfce1719dc3f7</property>
  <property name="global_feed">1</property>
 </producer>
 <producer id="47" title="Anonymous Submission" out="239" in="0">
  <property name="length">00:00:08;00</property>
  <property name="eof">pause</property>
  <property name="resource">/home/qwerty/Downloads/20940231.mp3</property>
  <property name="audio_index">0</property>
  <property name="video_index">-1</property>
  <property name="mute_on_pause">1</property>
  <property name="mlt_service">avformat-novalidate</property>
  <property name="meta.media.nb_streams">1</property>
  <property name="meta.media.0.stream.type">audio</property>
  <property name="meta.media.0.codec.sample_fmt">s16p</property>
  <property name="meta.media.0.codec.sample_rate">22050</property>
  <property name="meta.media.0.codec.channels">1</property>
  <property name="meta.media.0.codec.name">mp3</property>
  <property name="meta.media.0.codec.long_name">MP3 (MPEG audio layer 3)</property>
  <property name="meta.media.0.codec.bit_rate">40000</property>
  <property name="meta.attr.encoded_by.markup">Lame MP3</property>
  <property name="meta.attr.language.markup">US English</property>
  <property name="meta.attr.album.markup">Created: 2/12/2017 10:58:03 PM</property>
  <property name="meta.attr.artist.markup">TextAloud: IVONA Joey22</property>
  <property name="meta.attr.genre.markup">Speech</property>
  <property name="meta.attr.title.markup">20940231.mp3</property>
  <property name="meta.attr.date.markup">2017</property>
  <property name="seekable">1</property>
  <property name="kdenlive:folderid">-1</property>
  <property name="kdenlive:file_size">44061</property>
  <property name="kdenlive:file_hash">b3cab4be063297bd1e4742d6b66b8579</property>
  <property name="global_feed">1</property>
 </producer>
 <producer id="48" title="Anonymous Submission" out="149" in="0">
  <property name="length">150</property>
  <property name="eof">pause</property>
  <property name="resource">Rockwell_Collins_logo.svg</property>
  <property name="ttl">25</property>
  <property name="aspect_ratio">1</property>
  <property name="progressive">1</property>
  <property name="seekable">1</property>
  <property name="loop">1</property>
  <property name="meta.media.width">1024</property>
  <property name="meta.media.height">251</property>
  <property name="mlt_service">pixbuf</property>
  <property name="kdenlive:folderid">-1</property>
  <property name="kdenlive:duration">150</property>
  <property name="kdenlive:file_size">13113</property>
  <property name="kdenlive:file_hash">027f65b74a60d5d63997b8a1cf69eb47</property>
  <property name="global_feed">1</property>
 </producer>
 <producer id="50" title="Anonymous Submission" out="149" in="0">
  <property name="length">150</property>
  <property name="eof">pause</property>
  <property name="resource">qualcomm-logo.png</property>
  <property name="ttl">25</property>
  <property name="aspect_ratio">1</property>
  <property name="progressive">1</property>
  <property name="seekable">1</property>
  <property name="loop">1</property>
  <property name="meta.media.width">2000</property>
  <property name="meta.media.height">792</property>
  <property name="mlt_service">pixbuf</property>
  <property name="kdenlive:folderid">-1</property>
  <property name="kdenlive:duration">150</property>
  <property name="kdenlive:file_size">43905</property>
  <property name="kdenlive:file_hash">eb0f6fb9abd2862a18c92e0103e36e5f</property>
  <property name="global_feed">1</property>
 </producer>
 <producer id="53" title="Anonymous Submission" out="71" in="0">
  <property name="length">00:00:02;12</property>
  <property name="eof">pause</property>
  <property name="resource">21083970.mp3</property>
  <property name="audio_index">0</property>
  <property name="video_index">-1</property>
  <property name="mute_on_pause">1</property>
  <property name="mlt_service">avformat-novalidate</property>
  <property name="meta.media.nb_streams">1</property>
  <property name="meta.media.0.stream.type">audio</property>
  <property name="meta.media.0.codec.sample_fmt">s16p</property>
  <property name="meta.media.0.codec.sample_rate">22050</property>
  <property name="meta.media.0.codec.channels">1</property>
  <property name="meta.media.0.codec.name">mp3</property>
  <property name="meta.media.0.codec.long_name">MP3 (MPEG audio layer 3)</property>
  <property name="meta.media.0.codec.bit_rate">40000</property>
  <property name="meta.attr.encoded_by.markup">Lame MP3</property>
  <property name="meta.attr.language.markup">US English</property>
  <property name="meta.attr.album.markup">Created: 2/16/2017 9:12:43 PM</property>
  <property name="meta.attr.artist.markup">TextAloud: IVONA Joey22</property>
  <property name="meta.attr.genre.markup">Speech</property>
  <property name="meta.attr.title.markup">21083970.mp3</property>
  <property name="meta.attr.date.markup">2017</property>
  <property name="seekable">1</property>
  <property name="kdenlive:folderid">-1</property>
  <property name="kdenlive:file_size">16110</property>
  <property name="kdenlive:file_hash">180e98441e997feae334d02143834ecc</property>
  <property name="global_feed">1</property>
 </producer>
 <producer id="55" title="Anonymous Submission" out="544" in="0">
  <property name="length">545</property>
  <property name="eof">pause</property>
  <property name="resource">nvt.png</property>
  <property name="ttl">25</property>
  <property name="aspect_ratio">1</property>
  <property name="progressive">1</property>
  <property name="seekable">1</property>
  <property name="loop">1</property>
  <property name="meta.media.width">1920</property>
  <property name="meta.media.height">1080</property>
  <property name="mlt_service">pixbuf</property>
  <property name="kdenlive:folderid">-1</property>
  <property name="kdenlive:duration">150</property>
  <property name="kdenlive:file_size">53332</property>
  <property name="kdenlive:file_hash">03450a72dfdb630a36e220686ab48b0f</property>
  <property name="global_feed">1</property>
 </producer>
 <producer id="56" title="Anonymous Submission" out="6828" in="0">
  <property name="length">00:03:47;25</property>
  <property name="eof">pause</property>
  <property name="resource">LA FTC Inter-League Tournament (Zone D and I) - Qualification Match 34 - DASH.mp4</property>
  <property name="audio_index">-1</property>
  <property name="video_index">0</property>
  <property name="mute_on_pause">1</property>
  <property name="mlt_service">avformat-novalidate</property>
  <property name="meta.media.nb_streams">1</property>
  <property name="meta.media.0.stream.type">video</property>
  <property name="meta.media.0.stream.frame_rate">29.97</property>
  <property name="meta.media.0.stream.sample_aspect_ratio">0</property>
  <property name="meta.media.0.codec.width">1920</property>
  <property name="meta.media.0.codec.height">1080</property>
  <property name="meta.media.0.codec.rotate">0</property>
  <property name="meta.media.0.codec.frame_rate">29.97</property>
  <property name="meta.media.0.codec.pix_fmt">yuv420p</property>
  <property name="meta.media.0.codec.sample_aspect_ratio">1</property>
  <property name="meta.media.0.codec.colorspace">709</property>
  <property name="meta.media.0.codec.color_trc">1</property>
  <property name="meta.media.0.codec.name">h264</property>
  <property name="meta.media.0.codec.long_name">H.264 / AVC / MPEG-4 AVC / MPEG-4 part 10</property>
  <property name="meta.media.0.codec.bit_rate">90657</property>
  <property name="meta.attr.0.stream.creation_time.markup">2017-02-18T23:10:59.000000Z</property>
  <property name="meta.attr.0.stream.handler_name.markup">VideoHandler</property>
  <property name="meta.attr.major_brand.markup">dash</property>
  <property name="meta.attr.minor_version.markup">0</property>
  <property name="meta.attr.compatible_brands.markup">iso6avc1mp41</property>
  <property name="meta.attr.creation_time.markup">2017-02-18T23:10:59.000000Z</property>
  <property name="seekable">1</property>
  <property name="meta.media.sample_aspect_num">1</property>
  <property name="meta.media.sample_aspect_den">1</property>
  <property name="aspect_ratio">1</property>
  <property name="kdenlive:folderid">-1</property>
  <property name="meta.media.frame_rate_num">30000</property>
  <property name="meta.media.frame_rate_den">1001</property>
  <property name="meta.media.colorspace">709</property>
  <property name="meta.media.color_trc">1</property>
  <property name="meta.media.width">1920</property>
  <property name="meta.media.height">1080</property>
  <property name="kdenlive:file_size">107543623</property>
  <property name="kdenlive:file_hash">e06bc71ad8111f0b85e402b6b1a9fc9b</property>
  <property name="global_feed">1</property>
 </producer>
 <producer id="57" title="Anonymous Submission" out="149" in="0">
  <property name="length">150</property>
  <property name="eof">pause</property>
  <property name="resource">FIRSTTech_IconVert_CMYK.svg</property>
  <property name="ttl">25</property>
  <property name="aspect_ratio">1</property>
  <property name="progressive">1</property>
  <property name="seekable">1</property>
  <property name="loop">1</property>
  <property name="meta.media.width">1567</property>
  <property name="meta.media.height">1235</property>
  <property name="mlt_service">pixbuf</property>
  <property name="kdenlive:folderid">-1</property>
  <property name="kdenlive:duration">150</property>
  <property name="kdenlive:file_size">16037</property>
  <property name="kdenlive:file_hash">979adee9b518ddd26604122aa8094053</property>
  <property name="global_feed">1</property>
 </producer>
 <producer id="13" title="Anonymous Submission" out="399" in="0">
  <property name="length">00:00:13;10</property>
  <property name="eof">pause</property>
  <property name="resource">/home/qwerty/.cache/kdenlive/proxy/e6c12d493d34358b754f3518ebee4f88.mpg</property>
  <property name="meta.media.nb_streams">2</property>
  <property name="meta.media.0.stream.type">video</property>
  <property name="meta.media.0.stream.frame_rate">29.97</property>
  <property name="meta.media.0.stream.sample_aspect_ratio">0</property>
  <property name="meta.media.0.codec.width">640</property>
  <property name="meta.media.0.codec.height">360</property>
  <property name="meta.media.0.codec.rotate">0</property>
  <property name="meta.media.0.codec.frame_rate">29.97</property>
  <property name="meta.media.0.codec.pix_fmt">yuv420p</property>
  <property name="meta.media.0.codec.sample_aspect_ratio">1</property>
  <property name="meta.media.0.codec.colorspace">601</property>
  <property name="meta.media.0.codec.name">mpeg2video</property>
  <property name="meta.media.0.codec.long_name">MPEG-2 video</property>
  <property name="meta.media.0.codec.bit_rate">0</property>
  <property name="meta.media.1.stream.type">audio</property>
  <property name="meta.media.1.codec.sample_fmt">s16p</property>
  <property name="meta.media.1.codec.sample_rate">48000</property>
  <property name="meta.media.1.codec.channels">2</property>
  <property name="meta.media.1.codec.name">mp2</property>
  <property name="meta.media.1.codec.long_name">MP2 (MPEG audio layer 2)</property>
  <property name="meta.media.1.codec.bit_rate">128000</property>
  <property name="seekable">1</property>
  <property name="meta.media.sample_aspect_num">1</property>
  <property name="meta.media.sample_aspect_den">1</property>
  <property name="aspect_ratio">1</property>
  <property name="audio_index">1</property>
  <property name="video_index">0</property>
  <property name="mute_on_pause">1</property>
  <property name="mlt_service">avformat</property>
  <property name="meta.attr.0.stream.creation_time.markup">2017-02-06T22:36:56.000000Z</property>
  <property name="meta.attr.0.stream.language.markup">eng</property>
  <property name="meta.attr.0.stream.handler_name.markup">VideoHandle</property>
  <property name="meta.attr.1.stream.creation_time.markup">2017-02-06T22:36:56.000000Z</property>
  <property name="meta.attr.1.stream.language.markup">eng</property>
  <property name="meta.attr.1.stream.handler_name.markup">SoundHandle</property>
  <property name="meta.attr.major_brand.markup">mp42</property>
  <property name="meta.attr.minor_version.markup">0</property>
  <property name="meta.attr.compatible_brands.markup">isommp42</property>
  <property name="meta.attr.creation_time.markup">2017-02-06T22:36:56.000000Z</property>
  <property name="meta.media.frame_rate_num">30000</property>
  <property name="meta.media.frame_rate_den">1001</property>
  <property name="meta.media.colorspace">601</property>
  <property name="meta.media.color_trc">2</property>
  <property name="meta.media.width">640</property>
  <property name="meta.media.height">360</property>
  <property name="kdenlive:file_size">77936986</property>
  <property name="kdenlive:file_hash">e6c12d493d34358b754f3518ebee4f88</property>
  <property name="global_feed">1</property>
  <property name="kdenlive:proxy">/home/qwerty/.cache/kdenlive/proxy/e6c12d493d34358b754f3518ebee4f88.mpg</property>
  <property name="proxy_out">399</property>
  <property name="kdenlive:originalurl">/home/qwerty/20170206_143642.mp4</property>
  <property name="meta.media.top_field_first">0</property>
  <property name="meta.media.progressive">1</property>
  <property name="kdenlive:meta.media.nb_streams">2</property>
  <property name="kdenlive:meta.media.0.stream.type">video</property>
  <property name="kdenlive:meta.media.0.stream.frame_rate">29.97</property>
  <property name="kdenlive:meta.media.0.stream.sample_aspect_ratio">0</property>
  <property name="kdenlive:meta.media.0.codec.width">640</property>
  <property name="kdenlive:meta.media.0.codec.height">360</property>
  <property name="kdenlive:meta.media.0.codec.rotate">0</property>
  <property name="kdenlive:meta.media.0.codec.frame_rate">29.97</property>
  <property name="kdenlive:meta.media.0.codec.pix_fmt">yuv420p</property>
  <property name="kdenlive:meta.media.0.codec.sample_aspect_ratio">1</property>
  <property name="kdenlive:meta.media.0.codec.colorspace">601</property>
  <property name="kdenlive:meta.media.0.codec.name">mpeg2video</property>
  <property name="kdenlive:meta.media.0.codec.long_name">MPEG-2 video</property>
  <property name="kdenlive:meta.media.0.codec.bit_rate">0</property>
  <property name="kdenlive:meta.attr.0.stream.creation_time.markup">2017-02-06T22:36:56.000000Z</property>
  <property name="kdenlive:meta.attr.0.stream.language.markup">eng</property>
  <property name="kdenlive:meta.attr.0.stream.handler_name.markup">VideoHandle</property>
  <property name="kdenlive:meta.media.1.stream.type">audio</property>
  <property name="kdenlive:meta.media.1.codec.sample_fmt">s16p</property>
  <property name="kdenlive:meta.media.1.codec.sample_rate">48000</property>
  <property name="kdenlive:meta.media.1.codec.channels">2</property>
  <property name="kdenlive:meta.media.1.codec.name">mp2</property>
  <property name="kdenlive:meta.media.1.codec.long_name">MP2 (MPEG audio layer 2)</property>
  <property name="kdenlive:meta.media.1.codec.bit_rate">128000</property>
  <property name="kdenlive:meta.attr.1.stream.creation_time.markup">2017-02-06T22:36:56.000000Z</property>
  <property name="kdenlive:meta.attr.1.stream.language.markup">eng</property>
  <property name="kdenlive:meta.attr.1.stream.handler_name.markup">SoundHandle</property>
  <property name="kdenlive:meta.attr.major_brand.markup">mp42</property>
  <property name="kdenlive:meta.attr.minor_version.markup">0</property>
  <property name="kdenlive:meta.attr.compatible_brands.markup">isommp42</property>
  <property name="kdenlive:meta.attr.creation_time.markup">2017-02-06T22:36:56.000000Z</property>
  <property name="kdenlive:meta.media.sample_aspect_num">1</property>
  <property name="kdenlive:meta.media.sample_aspect_den">1</property>
  <property name="kdenlive:meta.media.frame_rate_num">30000</property>
  <property name="kdenlive:meta.media.frame_rate_den">1001</property>
  <property name="kdenlive:meta.media.colorspace">601</property>
  <property name="kdenlive:meta.media.color_trc">2</property>
  <property name="kdenlive:meta.media.width">640</property>
  <property name="kdenlive:meta.media.height">360</property>
  <property name="kdenlive:meta.media.top_field_first">0</property>
  <property name="kdenlive:meta.media.progressive">1</property>
 </producer>
 <producer id="54" title="Anonymous Submission" out="7366" in="0">
  <property name="length">00:04:06;07</property>
  <property name="eof">pause</property>
  <property name="resource">/home/qwerty/.cache/kdenlive/proxy/f748af6495257956dd67cd85d38e9530.mpg</property>
  <property name="meta.media.nb_streams">2</property>
  <property name="meta.media.0.stream.type">video</property>
  <property name="meta.media.0.stream.frame_rate">29.97</property>
  <property name="meta.media.0.stream.sample_aspect_ratio">0</property>
  <property name="meta.media.0.codec.width">640</property>
  <property name="meta.media.0.codec.height">360</property>
  <property name="meta.media.0.codec.rotate">0</property>
  <property name="meta.media.0.codec.frame_rate">29.97</property>
  <property name="meta.media.0.codec.pix_fmt">yuv420p</property>
  <property name="meta.media.0.codec.sample_aspect_ratio">1</property>
  <property name="meta.media.0.codec.colorspace">601</property>
  <property name="meta.media.0.codec.name">mpeg2video</property>
  <property name="meta.media.0.codec.long_name">MPEG-2 video</property>
  <property name="meta.media.0.codec.bit_rate">0</property>
  <property name="meta.media.1.stream.type">audio</property>
  <property name="meta.media.1.codec.sample_fmt">s16p</property>
  <property name="meta.media.1.codec.sample_rate">48000</property>
  <property name="meta.media.1.codec.channels">2</property>
  <property name="meta.media.1.codec.name">mp2</property>
  <property name="meta.media.1.codec.long_name">MP2 (MPEG audio layer 2)</property>
  <property name="meta.media.1.codec.bit_rate">128000</property>
  <property name="seekable">1</property>
  <property name="meta.media.sample_aspect_num">1</property>
  <property name="meta.media.sample_aspect_den">1</property>
  <property name="aspect_ratio">1</property>
  <property name="audio_index">1</property>
  <property name="video_index">0</property>
  <property name="mute_on_pause">1</property>
  <property name="mlt_service">avformat</property>
  <property name="meta.attr.0.stream.creation_time.markup">2017-01-22T18:33:55.000000Z</property>
  <property name="meta.attr.0.stream.language.markup">eng</property>
  <property name="meta.attr.0.stream.handler_name.markup">VideoHandle</property>
  <property name="meta.attr.1.stream.creation_time.markup">2017-01-22T18:33:55.000000Z</property>
  <property name="meta.attr.1.stream.language.markup">eng</property>
  <property name="meta.attr.1.stream.handler_name.markup">SoundHandle</property>
  <property name="meta.attr.major_brand.markup">mp42</property>
  <property name="meta.attr.minor_version.markup">0</property>
  <property name="meta.attr.compatible_brands.markup">isommp42</property>
  <property name="meta.attr.creation_time.markup">2017-01-22T18:33:55.000000Z</property>
  <property name="kdenlive:folderid">-1</property>
  <property name="meta.media.frame_rate_num">30000</property>
  <property name="meta.media.frame_rate_den">1001</property>
  <property name="meta.media.colorspace">601</property>
  <property name="meta.media.color_trc">2</property>
  <property name="meta.media.width">640</property>
  <property name="meta.media.height">360</property>
  <property name="kdenlive:file_size">1480345809</property>
  <property name="kdenlive:file_hash">f748af6495257956dd67cd85d38e9530</property>
  <property name="meta.media.top_field_first">0</property>
  <property name="meta.media.progressive">1</property>
  <property name="kdenlive:proxy">/home/qwerty/.cache/kdenlive/proxy/f748af6495257956dd67cd85d38e9530.mpg</property>
  <property name="proxy_out">7366</property>
  <property name="kdenlive:originalurl">20170122_102948.mp4</property>
  <property name="global_feed">1</property>
  <property name="kdenlive:meta.media.nb_streams">2</property>
  <property name="kdenlive:meta.media.0.stream.type">video</property>
  <property name="kdenlive:meta.media.0.stream.frame_rate">29.97</property>
  <property name="kdenlive:meta.media.0.stream.sample_aspect_ratio">0</property>
  <property name="kdenlive:meta.media.0.codec.width">640</property>
  <property name="kdenlive:meta.media.0.codec.height">360</property>
  <property name="kdenlive:meta.media.0.codec.rotate">0</property>
  <property name="kdenlive:meta.media.0.codec.frame_rate">29.97</property>
  <property name="kdenlive:meta.media.0.codec.pix_fmt">yuv420p</property>
  <property name="kdenlive:meta.media.0.codec.sample_aspect_ratio">1</property>
  <property name="kdenlive:meta.media.0.codec.colorspace">601</property>
  <property name="kdenlive:meta.media.0.codec.name">mpeg2video</property>
  <property name="kdenlive:meta.media.0.codec.long_name">MPEG-2 video</property>
  <property name="kdenlive:meta.media.0.codec.bit_rate">0</property>
  <property name="kdenlive:meta.attr.0.stream.creation_time.markup">2017-01-22T18:33:55.000000Z</property>
  <property name="kdenlive:meta.attr.0.stream.language.markup">eng</property>
  <property name="kdenlive:meta.attr.0.stream.handler_name.markup">VideoHandle</property>
  <property name="kdenlive:meta.media.1.stream.type">audio</property>
  <property name="kdenlive:meta.media.1.codec.sample_fmt">s16p</property>
  <property name="kdenlive:meta.media.1.codec.sample_rate">48000</property>
  <property name="kdenlive:meta.media.1.codec.channels">2</property>
  <property name="kdenlive:meta.media.1.codec.name">mp2</property>
  <property name="kdenlive:meta.media.1.codec.long_name">MP2 (MPEG audio layer 2)</property>
  <property name="kdenlive:meta.media.1.codec.bit_rate">128000</property>
  <property name="kdenlive:meta.attr.1.stream.creation_time.markup">2017-01-22T18:33:55.000000Z</property>
  <property name="kdenlive:meta.attr.1.stream.language.markup">eng</property>
  <property name="kdenlive:meta.attr.1.stream.handler_name.markup">SoundHandle</property>
  <property name="kdenlive:meta.attr.major_brand.markup">mp42</property>
  <property name="kdenlive:meta.attr.minor_version.markup">0</property>
  <property name="kdenlive:meta.attr.compatible_brands.markup">isommp42</property>
  <property name="kdenlive:meta.attr.creation_time.markup">2017-01-22T18:33:55.000000Z</property>
  <property name="kdenlive:meta.media.sample_aspect_num">1</property>
  <property name="kdenlive:meta.media.sample_aspect_den">1</property>
  <property name="kdenlive:meta.media.frame_rate_num">30000</property>
  <property name="kdenlive:meta.media.frame_rate_den">1001</property>
  <property name="kdenlive:meta.media.colorspace">601</property>
  <property name="kdenlive:meta.media.color_trc">2</property>
  <property name="kdenlive:meta.media.width">640</property>
  <property name="kdenlive:meta.media.height">360</property>
  <property name="kdenlive:meta.media.top_field_first">0</property>
  <property name="kdenlive:meta.media.progressive">1</property>
 </producer>
 <producer id="52" title="Anonymous Submission" out="8590" in="0">
  <property name="length">00:04:46;19</property>
  <property name="eof">pause</property>
  <property name="resource">/home/qwerty/.cache/kdenlive/proxy/0636cda4ac9341628c8a2c1afe5ee0f0.mpg</property>
  <property name="meta.media.nb_streams">2</property>
  <property name="meta.media.0.stream.type">video</property>
  <property name="meta.media.0.stream.frame_rate">29.97</property>
  <property name="meta.media.0.stream.sample_aspect_ratio">0</property>
  <property name="meta.media.0.codec.width">640</property>
  <property name="meta.media.0.codec.height">360</property>
  <property name="meta.media.0.codec.rotate">0</property>
  <property name="meta.media.0.codec.frame_rate">29.97</property>
  <property name="meta.media.0.codec.pix_fmt">yuv420p</property>
  <property name="meta.media.0.codec.sample_aspect_ratio">1</property>
  <property name="meta.media.0.codec.colorspace">601</property>
  <property name="meta.media.0.codec.name">mpeg2video</property>
  <property name="meta.media.0.codec.long_name">MPEG-2 video</property>
  <property name="meta.media.0.codec.bit_rate">0</property>
  <property name="meta.media.1.stream.type">audio</property>
  <property name="meta.media.1.codec.sample_fmt">s16p</property>
  <property name="meta.media.1.codec.sample_rate">48000</property>
  <property name="meta.media.1.codec.channels">2</property>
  <property name="meta.media.1.codec.name">mp2</property>
  <property name="meta.media.1.codec.long_name">MP2 (MPEG audio layer 2)</property>
  <property name="meta.media.1.codec.bit_rate">128000</property>
  <property name="seekable">1</property>
  <property name="meta.media.sample_aspect_num">1</property>
  <property name="meta.media.sample_aspect_den">1</property>
  <property name="aspect_ratio">1</property>
  <property name="audio_index">1</property>
  <property name="video_index">0</property>
  <property name="mute_on_pause">1</property>
  <property name="mlt_service">avformat</property>
  <property name="meta.attr.0.stream.creation_time.markup">2017-01-08T18:51:11.000000Z</property>
  <property name="meta.attr.0.stream.language.markup">eng</property>
  <property name="meta.attr.0.stream.handler_name.markup">VideoHandle</property>
  <property name="meta.attr.1.stream.creation_time.markup">2017-01-08T18:51:11.000000Z</property>
  <property name="meta.attr.1.stream.language.markup">eng</property>
  <property name="meta.attr.1.stream.handler_name.markup">SoundHandle</property>
  <property name="meta.attr.major_brand.markup">mp42</property>
  <property name="meta.attr.minor_version.markup">0</property>
  <property name="meta.attr.compatible_brands.markup">isommp42</property>
  <property name="meta.attr.creation_time.markup">2017-01-08T18:51:11.000000Z</property>
  <property name="kdenlive:folderid">-1</property>
  <property name="meta.media.frame_rate_num">30000</property>
  <property name="meta.media.frame_rate_den">1001</property>
  <property name="meta.media.colorspace">601</property>
  <property name="meta.media.color_trc">2</property>
  <property name="meta.media.width">640</property>
  <property name="meta.media.height">360</property>
  <property name="kdenlive:file_size">1729413120</property>
  <property name="kdenlive:file_hash">0636cda4ac9341628c8a2c1afe5ee0f0</property>
  <property name="meta.media.top_field_first">0</property>
  <property name="meta.media.progressive">1</property>
  <property name="global_feed">1</property>
  <property name="kdenlive:proxy">/home/qwerty/.cache/kdenlive/proxy/0636cda4ac9341628c8a2c1afe5ee0f0.mpg</property>
  <property name="proxy_out">8593</property>
  <property name="kdenlive:originalurl">20170108_104623.mp4</property>
  <property name="kdenlive:meta.media.nb_streams">2</property>
  <property name="kdenlive:meta.media.0.stream.type">video</property>
  <property name="kdenlive:meta.media.0.stream.frame_rate">29.9677</property>
  <property name="kdenlive:meta.media.0.stream.sample_aspect_ratio">0</property>
  <property name="kdenlive:meta.media.0.codec.width">3840</property>
  <property name="kdenlive:meta.media.0.codec.height">2160</property>
  <property name="kdenlive:meta.media.0.codec.rotate">0</property>
  <property name="kdenlive:meta.media.0.codec.frame_rate">90000</property>
  <property name="kdenlive:meta.media.0.codec.pix_fmt">yuv420p</property>
  <property name="kdenlive:meta.media.0.codec.sample_aspect_ratio">0</property>
  <property name="kdenlive:meta.media.0.codec.colorspace">709</property>
  <property name="kdenlive:meta.media.0.codec.name">h264</property>
  <property name="kdenlive:meta.media.0.codec.long_name">H.264 / AVC / MPEG-4 AVC / MPEG-4 part 10</property>
  <property name="kdenlive:meta.media.0.codec.bit_rate">48000090</property>
  <property name="kdenlive:meta.attr.0.stream.creation_time.markup">2017-01-08T18:51:11.000000Z</property>
  <property name="kdenlive:meta.attr.0.stream.language.markup">eng</property>
  <property name="kdenlive:meta.attr.0.stream.handler_name.markup">VideoHandle</property>
  <property name="kdenlive:meta.media.1.stream.type">audio</property>
  <property name="kdenlive:meta.media.1.codec.sample_fmt">fltp</property>
  <property name="kdenlive:meta.media.1.codec.sample_rate">48000</property>
  <property name="kdenlive:meta.media.1.codec.channels">2</property>
  <property name="kdenlive:meta.media.1.codec.name">aac</property>
  <property name="kdenlive:meta.media.1.codec.long_name">AAC (Advanced Audio Coding)</property>
  <property name="kdenlive:meta.media.1.codec.bit_rate">256001</property>
  <property name="kdenlive:meta.attr.1.stream.creation_time.markup">2017-01-08T18:51:11.000000Z</property>
  <property name="kdenlive:meta.attr.1.stream.language.markup">eng</property>
  <property name="kdenlive:meta.attr.1.stream.handler_name.markup">SoundHandle</property>
  <property name="kdenlive:meta.attr.major_brand.markup">mp42</property>
  <property name="kdenlive:meta.attr.minor_version.markup">0</property>
  <property name="kdenlive:meta.attr.compatible_brands.markup">isommp42</property>
  <property name="kdenlive:meta.attr.creation_time.markup">2017-01-08T18:51:11.000000Z</property>
  <property name="kdenlive:meta.media.sample_aspect_num">1</property>
  <property name="kdenlive:meta.media.sample_aspect_den">1</property>
  <property name="kdenlive:meta.media.frame_rate_num">77319000</property>
  <property name="kdenlive:meta.media.frame_rate_den">2580077</property>
  <property name="kdenlive:meta.media.colorspace">709</property>
  <property name="kdenlive:meta.media.color_trc">2</property>
  <property name="kdenlive:meta.media.width">3840</property>
  <property name="kdenlive:meta.media.height">2160</property>
  <property name="kdenlive:meta.media.top_field_first">0</property>
  <property name="kdenlive:meta.media.progressive">1</property>
 </producer>
 <producer id="58" out="59" in="0">
  <property name="length">00:00:02;00</property>
  <property name="eof">pause</property>
  <property name="resource">21247160.mp3</property>
  <property name="audio_index">0</property>
  <property name="video_index">-1</property>
  <property name="mute_on_pause">1</property>
  <property name="mlt_service">avformat-novalidate</property>
  <property name="meta.media.nb_streams">1</property>
  <property name="meta.media.0.stream.type">audio</property>
  <property name="meta.media.0.codec.sample_fmt">s16p</property>
  <property name="meta.media.0.codec.sample_rate">22050</property>
  <property name="meta.media.0.codec.channels">1</property>
  <property name="meta.media.0.codec.name">mp3</property>
  <property name="meta.media.0.codec.long_name">MP3 (MPEG audio layer 3)</property>
  <property name="meta.media.0.codec.bit_rate">40000</property>
  <property name="meta.attr.encoded_by.markup">Lame MP3</property>
  <property name="meta.attr.language.markup">US English</property>
  <property name="meta.attr.album.markup">Created: 2/21/2017 5:25:40 PM</property>
  <property name="meta.attr.artist.markup">TextAloud: IVONA Joey22</property>
  <property name="meta.attr.genre.markup">Speech</property>
  <property name="meta.attr.title.markup">21247160.mp3</property>
  <property name="meta.attr.date.markup">2017</property>
  <property name="seekable">1</property>
  <property name="kdenlive:folderid">-1</property>
  <property name="kdenlive:file_size">14150</property>
  <property name="kdenlive:file_hash">cf21cc4bed0c969e781b4c7324d95cd3</property>
 </producer>
 <producer id="59" title="Anonymous Submission" out="15" in="0">
  <property name="length">00:00:00;16</property>
  <property name="eof">pause</property>
  <property name="resource">21247441.mp3</property>
  <property name="audio_index">0</property>
  <property name="video_index">-1</property>
  <property name="mute_on_pause">1</property>
  <property name="mlt_service">avformat-novalidate</property>
  <property name="meta.media.nb_streams">1</property>
  <property name="meta.media.0.stream.type">audio</property>
  <property name="meta.media.0.codec.sample_fmt">s16p</property>
  <property name="meta.media.0.codec.sample_rate">22050</property>
  <property name="meta.media.0.codec.channels">1</property>
  <property name="meta.media.0.codec.name">mp3</property>
  <property name="meta.media.0.codec.long_name">MP3 (MPEG audio layer 3)</property>
  <property name="meta.media.0.codec.bit_rate">40000</property>
  <property name="meta.attr.encoded_by.markup">Lame MP3</property>
  <property name="meta.attr.language.markup">US English</property>
  <property name="meta.attr.album.markup">Created: 2/21/2017 5:38:53 PM</property>
  <property name="meta.attr.artist.markup">TextAloud: IVONA Joey22</property>
  <property name="meta.attr.genre.markup">Speech</property>
  <property name="meta.attr.title.markup">21247441.mp3</property>
  <property name="meta.attr.date.markup">2017</property>
  <property name="seekable">1</property>
  <property name="kdenlive:folderid">-1</property>
  <property name="kdenlive:file_size">6706</property>
  <property name="kdenlive:file_hash">20fa90cd6613487be50cc65edb048216</property>
  <property name="global_feed">1</property>
 </producer>
 <producer id="51" title="Anonymous Submission" out="149" in="0">
  <property name="length">150</property>
  <property name="eof">pause</property>
  <property name="resource">PTC_New_Logo.svg</property>
  <property name="ttl">25</property>
  <property name="aspect_ratio">1</property>
  <property name="progressive">1</property>
  <property name="seekable">1</property>
  <property name="loop">1</property>
  <property name="meta.media.width">573</property>
  <property name="meta.media.height">223</property>
  <property name="mlt_service">pixbuf</property>
  <property name="kdenlive:folderid">-1</property>
  <property name="kdenlive:duration">150</property>
  <property name="kdenlive:file_size">4995</property>
  <property name="kdenlive:file_hash">62b640cbe20e9c019621f64d6930d5bd</property>
  <property name="global_feed">1</property>
 </producer>
 <playlist id="main bin">
  <property name="kdenlive:docproperties.audiotargettrack">5</property>
  <property name="kdenlive:docproperties.decimalPoint">.</property>
  <property name="kdenlive:docproperties.dirtypreviewchunks"/>
  <property name="kdenlive:docproperties.disablepreview">0</property>
  <property name="kdenlive:docproperties.documentid">1486258783491</property>
  <property name="kdenlive:docproperties.enableproxy">1</property>
  <property name="kdenlive:docproperties.generateimageproxy">0</property>
  <property name="kdenlive:docproperties.generateproxy">0</property>
  <property name="kdenlive:docproperties.kdenliveversion">16.12.1</property>
  <property name="kdenlive:docproperties.position">2758</property>
  <property name="kdenlive:docproperties.previewchunks">0,25,150,175,200,225,2175,2200,2225,2250,2275,2300,2325,2350,2375,2400,2425,2450,2475,2500,2525,2550,2575,2600,2625,2650,2675,2700,2725,2750,2775,2800,2825,2850,2875,2900,2925,2950,2975,3000,3025,3050,3075,3100,3125,3150,3175,3200,3225,3250,3275,3300,3325,3350,3375,3400,3425,3450,3475,3500,3525,3550,3575,3600,3625,3650,3675,3700,3725,3750,3775,3800,3825,3850,3875,3900,3925,3950,3975,4000,4025,4050,4075,4100,4125,4350,4375,4400,4425,4450,4475,4500,4525,4550,4575,4600,4625,4650,4675,4700,4725,4750,4775,4800,4825,4850,4875,4900</property>
  <property name="kdenlive:docproperties.previewextension">mov</property>
  <property name="kdenlive:docproperties.previewparameters">r=29.97 s=1920x1080 vb=45M threads=0 vcodec=dnxhd</property>
  <property name="kdenlive:docproperties.profile">atsc_1080p_2997</property>
  <property name="kdenlive:docproperties.proxyextension">mpg</property>
  <property name="kdenlive:docproperties.proxyimageminsize">2000</property>
  <property name="kdenlive:docproperties.proxyminsize">1300</property>
  <property name="kdenlive:docproperties.proxyparams">-vf scale=640:-1 -g 5 -qscale 6 -ab 128k -vcodec mpeg2video -acodec mp2</property>
  <property name="kdenlive:docproperties.version">0.95</property>
  <property name="kdenlive:docproperties.verticalzoom">1</property>
  <property name="kdenlive:docproperties.videotargettrack">5</property>
  <property name="kdenlive:docproperties.zonein">3136</property>
  <property name="kdenlive:docproperties.zoneout">3761</property>
  <property name="kdenlive:docproperties.zoom">7</property>
  <property name="kdenlive:documentnotes"/>
  <property name="kdenlive:clipgroups"/>
  <property name="kdenlive:docproperties.renderaudioquality">7</property>
  <property name="kdenlive:docproperties.rendercategory">Generic (HD for web, mobile devices...)</property>
  <property name="kdenlive:docproperties.renderendguide">-1</property>
  <property name="kdenlive:docproperties.renderexportaudio">0</property>
  <property name="kdenlive:docproperties.renderguide">0</property>
  <property name="kdenlive:docproperties.renderplay">0</property>
  <property name="kdenlive:docproperties.renderprofile">WebM - the widespread free format (VP8/Vorbis)</property>
  <property name="kdenlive:docproperties.renderquality">15</property>
  <property name="kdenlive:docproperties.renderratio">1</property>
  <property name="kdenlive:docproperties.renderrescale">0</property>
  <property name="kdenlive:docproperties.renderrescaleheight">720</property>
  <property name="kdenlive:docproperties.renderrescalewidth">1280</property>
  <property name="kdenlive:docproperties.renderscanning">0</property>
  <property name="kdenlive:docproperties.renderspeed">3</property>
  <property name="kdenlive:docproperties.renderstartguide">-1</property>
  <property name="kdenlive:docproperties.rendertcoverlay">0</property>
  <property name="kdenlive:docproperties.rendertctype">0</property>
  <property name="kdenlive:docproperties.rendertwopass">0</property>
  <property name="kdenlive:docproperties.renderurl">rendered.webm</property>
  <property name="kdenlive:docproperties.renderzone">0</property>
  <property name="xml_retain">1</property>
  <entry out="4306" producer="1" in="0"/>
  <entry out="4306" producer="2" in="0"/>
  <entry out="5068" producer="3" in="0"/>
  <entry out="149" producer="4" in="0"/>
  <entry out="593" producer="6" in="0"/>
  <entry out="551" producer="7" in="0"/>
  <entry out="5069" producer="8" in="0"/>
  <entry out="5073" producer="9" in="0"/>
  <entry out="43119" producer="10" in="0"/>
  <entry out="131" producer="11" in="0"/>
  <entry out="59" producer="12" in="0"/>
  <entry out="55" producer="14" in="0"/>
  <entry out="42" producer="15" in="0"/>
  <entry out="149" producer="16" in="0"/>
  <entry out="149" producer="17" in="0"/>
  <entry out="149" producer="18" in="0"/>
  <entry out="149" producer="19" in="0"/>
  <entry out="31" producer="20" in="0"/>
  <entry out="31" producer="21" in="0"/>
  <entry out="33" producer="22" in="0"/>
  <entry out="35" producer="23" in="0"/>
  <entry out="33" producer="24" in="0"/>
  <entry out="28" producer="25" in="0"/>
  <entry out="29" producer="26" in="0"/>
  <entry out="31" producer="27" in="0"/>
  <entry out="33" producer="28" in="0"/>
  <entry out="35" producer="29" in="0"/>
  <entry out="37" producer="30" in="0"/>
  <entry out="29" producer="31" in="0"/>
  <entry out="33" producer="32" in="0"/>
  <entry out="29" producer="33" in="0"/>
  <entry out="28" producer="34" in="0"/>
  <entry out="29" producer="35" in="0"/>
  <entry out="31" producer="36" in="0"/>
  <entry out="29" producer="37" in="0"/>
  <entry out="32" producer="38" in="0"/>
  <entry out="30" producer="39" in="0"/>
  <entry out="29" producer="40" in="0"/>
  <entry out="31" producer="41" in="0"/>
  <entry out="29" producer="42" in="0"/>
  <entry out="31" producer="43" in="0"/>
  <entry out="30" producer="44" in="0"/>
  <entry out="27" producer="45" in="0"/>
  <entry out="358" producer="46" in="0"/>
  <entry out="239" producer="47" in="0"/>
  <entry out="149" producer="48" in="0"/>
  <entry out="149" producer="50" in="0"/>
  <entry out="71" producer="53" in="0"/>
  <entry out="149" producer="55" in="0"/>
  <blank length="149"/>
  <entry out="6828" producer="56" in="0"/>
  <entry out="149" producer="57" in="0"/>
  <entry out="399" producer="13" in="0"/>
  <entry out="7366" producer="54" in="0"/>
  <entry out="8590" producer="52" in="0"/>
  <entry out="59" producer="58" in="0"/>
  <entry out="15" producer="59" in="0"/>
  <entry out="149" producer="51" in="0"/>
 </playlist>
 <producer id="black" out="48604" in="0">
  <property name="length">48605</property>
  <property name="eof">pause</property>
  <property name="resource">black</property>
  <property name="aspect_ratio">0</property>
  <property name="mlt_service">colour</property>
  <property name="set.test_audio">0</property>
  <property name="movit.convert.width">1920</property>
  <property name="movit.convert.height">1080</property>
  <property name="movit.convert.format">2</property>
 </producer>
 <playlist id="black_track">
  <entry out="5112" producer="black" in="0"/>
 </playlist>
 <playlist id="playlist1">
  <property name="kdenlive:track_name">Audio 5</property>
  <property name="kdenlive:audio_track">1</property>
  <property name="kdenlive:locked_track">0</property>
 </playlist>
 <producer id="8_playlist2" title="Anonymous Submission" out="5096" in="0">
  <property name="length">00:02:50;02</property>
  <property name="eof">pause</property>
  <property name="resource">/home/qwerty/Downloads/LazyTown - We are Number One Music Video 720p 192kbps.mp4</property>
  <property name="audio_index">1</property>
  <property name="video_index">0</property>
  <property name="mute_on_pause">1</property>
  <property name="mlt_service">avformat-novalidate</property>
  <property name="seekable">1</property>
  <property name="aspect_ratio">1</property>
  <property name="kdenlive:folderid">-1</property>
  <property name="kdenlive:file_size">42804400</property>
  <property name="kdenlive:file_hash">b2a556daca7312c39b40907137028d5c</property>
  <property name="global_feed">1</property>
  <property name="xml">was here</property>
  <property name="meta.media.nb_streams">2</property>
  <property name="meta.media.0.stream.type">video</property>
  <property name="meta.media.0.stream.frame_rate">23.976</property>
  <property name="meta.media.0.stream.sample_aspect_ratio">0</property>
  <property name="meta.media.0.codec.width">1280</property>
  <property name="meta.media.0.codec.height">720</property>
  <property name="meta.media.0.codec.rotate">0</property>
  <property name="meta.media.0.codec.frame_rate">23.976</property>
  <property name="meta.media.0.codec.pix_fmt">yuv420p</property>
  <property name="meta.media.0.codec.sample_aspect_ratio">1</property>
  <property name="meta.media.0.codec.colorspace">709</property>
  <property name="meta.media.0.codec.color_trc">1</property>
  <property name="meta.media.0.codec.name">h264</property>
  <property name="meta.media.0.codec.long_name">H.264 / AVC / MPEG-4 AVC / MPEG-4 part 10</property>
  <property name="meta.media.0.codec.bit_rate">1882270</property>
  <property name="meta.attr.0.stream.creation_time.markup">2016-11-22T23:25:20.000000Z</property>
  <property name="meta.attr.0.stream.handler_name.markup">ISO Media file produced by Google Inc.</property>
  <property name="meta.media.1.stream.type">audio</property>
  <property name="meta.media.1.codec.sample_fmt">fltp</property>
  <property name="meta.media.1.codec.sample_rate">44100</property>
  <property name="meta.media.1.codec.channels">2</property>
  <property name="meta.media.1.codec.name">aac</property>
  <property name="meta.media.1.codec.long_name">AAC (Advanced Audio Coding)</property>
  <property name="meta.media.1.codec.bit_rate">125588</property>
  <property name="meta.attr.1.stream.creation_time.markup">2016-11-22T23:25:20.000000Z</property>
  <property name="meta.attr.1.stream.handler_name.markup">ISO Media file produced by Google Inc.</property>
  <property name="meta.attr.major_brand.markup">mp42</property>
  <property name="meta.attr.minor_version.markup">0</property>
  <property name="meta.attr.compatible_brands.markup">isommp42</property>
  <property name="meta.attr.creation_time.markup">2016-11-22T23:25:20.000000Z</property>
  <property name="meta.media.sample_aspect_num">1</property>
  <property name="meta.media.sample_aspect_den">1</property>
  <property name="meta.media.frame_rate_num">24000</property>
  <property name="meta.media.frame_rate_den">1001</property>
  <property name="meta.media.colorspace">709</property>
  <property name="meta.media.color_trc">1</property>
  <property name="meta.media.width">1280</property>
  <property name="meta.media.height">720</property>
 </producer>
 <producer id="44_playlist2" title="Anonymous Submission" out="30" in="0">
  <property name="length">00:00:01;01</property>
  <property name="eof">pause</property>
  <property name="resource">warningmessage.wav</property>
  <property name="audio_index">0</property>
  <property name="video_index">-1</property>
  <property name="mute_on_pause">1</property>
  <property name="mlt_service">avformat-novalidate</property>
  <property name="seekable">1</property>
  <property name="kdenlive:folderid">-1</property>
  <property name="kdenlive:file_size">184144</property>
  <property name="kdenlive:file_hash">1e48ddeaa00488b1e532f1de418fdb6f</property>
  <property name="global_feed">1</property>
  <property name="xml">was here</property>
  <property name="meta.media.nb_streams">1</property>
  <property name="meta.media.0.stream.type">audio</property>
  <property name="meta.media.0.codec.sample_fmt">s16</property>
  <property name="meta.media.0.codec.sample_rate">44100</property>
  <property name="meta.media.0.codec.channels">2</property>
  <property name="meta.media.0.codec.name">pcm_s16le</property>
  <property name="meta.media.0.codec.long_name">PCM signed 16-bit little-endian</property>
  <property name="meta.media.0.codec.bit_rate">1411200</property>
 </producer>
 <playlist id="playlist2">
  <property name="kdenlive:track_name">Audio 4</property>
  <property name="kdenlive:audio_track">1</property>
  <property name="kdenlive:locked_track">0</property>
  <entry out="276" producer="8_playlist2" in="0">
   <filter id="volume">
    <property name="window">75</property>
    <property name="max_gain">20dB</property>
    <property name="level">0=-5;225=-5;226=0</property>
    <property name="mlt_service">volume</property>
    <property name="kdenlive_id">volume</property>
    <property name="tag">volume</property>
    <property name="kdenlive_ix">1</property>
    <property name="kdenlive_info"/>
    <property name="disable">0</property>
   </filter>
  </entry>
  <blank length="22"/>
  <entry out="402" producer="8_playlist2" in="299"/>
  <blank length="27"/>
  <entry out="466" producer="8_playlist2" in="430"/>
  <blank length="27"/>
  <entry out="582" producer="8_playlist2" in="494"/>
  <blank length="36"/>
  <entry out="824" producer="8_playlist2" in="619"/>
  <blank length="1260"/>
  <entry out="30" producer="44_playlist2" in="0">
   <filter id="filter0">
    <property name="window">75</property>
    <property name="max_gain">20dB</property>
    <property name="level">0=5</property>
    <property name="mlt_service">volume</property>
    <property name="kdenlive_id">volume</property>
    <property name="tag">volume</property>
    <property name="kdenlive_ix">1</property>
    <property name="kdenlive_info"/>
   </filter>
  </entry>
  <entry out="30" producer="44_playlist2" in="0">
   <filter id="filter1">
    <property name="window">75</property>
    <property name="max_gain">20dB</property>
    <property name="level">0=5</property>
    <property name="mlt_service">volume</property>
    <property name="kdenlive_id">volume</property>
    <property name="tag">volume</property>
    <property name="kdenlive_ix">1</property>
    <property name="kdenlive_info"/>
   </filter>
  </entry>
 </playlist>
 <producer id="7_playlist3" title="Anonymous Submission" out="580" in="0">
  <property name="length">581</property>
  <property name="eof">pause</property>
  <property name="resource">/home/qwerty/Downloads/20688444.mp3</property>
  <property name="audio_index">0</property>
  <property name="video_index">-1</property>
  <property name="mute_on_pause">1</property>
  <property name="mlt_service">avformat-novalidate</property>
  <property name="seekable">1</property>
  <property name="kdenlive:folderid">-1</property>
  <property name="kdenlive:file_size">101138</property>
  <property name="kdenlive:file_hash">c42e4771264baff00b5c70bb34e153a2</property>
  <property name="global_feed">1</property>
  <property name="xml">was here</property>
  <property name="meta.media.nb_streams">1</property>
  <property name="meta.media.0.stream.type">audio</property>
  <property name="meta.media.0.codec.sample_fmt">s16p</property>
  <property name="meta.media.0.codec.sample_rate">22050</property>
  <property name="meta.media.0.codec.channels">1</property>
  <property name="meta.media.0.codec.name">mp3</property>
  <property name="meta.media.0.codec.long_name">MP3 (MPEG audio layer 3)</property>
  <property name="meta.media.0.codec.bit_rate">40000</property>
  <property name="meta.attr.encoded_by.markup">Lame MP3</property>
  <property name="meta.attr.language.markup">US English</property>
  <property name="meta.attr.album.markup">Created: 2/5/2017 11:55:52 PM</property>
  <property name="meta.attr.artist.markup">TextAloud: IVONA Joey22</property>
  <property name="meta.attr.genre.markup">Speech</property>
  <property name="meta.attr.title.markup">20688444.mp3</property>
  <property name="meta.attr.date.markup">2017</property>
 </producer>
 <producer id="14_playlist3" title="Anonymous Submission" out="55" in="0">
  <property name="length">00:00:01;26</property>
  <property name="eof">pause</property>
  <property name="resource">/home/qwerty/Downloads/20845349.mp3</property>
  <property name="audio_index">0</property>
  <property name="video_index">-1</property>
  <property name="mute_on_pause">1</property>
  <property name="mlt_service">avformat-novalidate</property>
  <property name="seekable">1</property>
  <property name="kdenlive:folderid">-1</property>
  <property name="kdenlive:file_size">13367</property>
  <property name="kdenlive:file_hash">4cdef81d2360aab898ac0dd99d3a035a</property>
  <property name="global_feed">1</property>
  <property name="xml">was here</property>
  <property name="meta.media.nb_streams">1</property>
  <property name="meta.media.0.stream.type">audio</property>
  <property name="meta.media.0.codec.sample_fmt">s16p</property>
  <property name="meta.media.0.codec.sample_rate">22050</property>
  <property name="meta.media.0.codec.channels">1</property>
  <property name="meta.media.0.codec.name">mp3</property>
  <property name="meta.media.0.codec.long_name">MP3 (MPEG audio layer 3)</property>
  <property name="meta.media.0.codec.bit_rate">40000</property>
  <property name="meta.attr.encoded_by.markup">Lame MP3</property>
  <property name="meta.attr.language.markup">US English</property>
  <property name="meta.attr.album.markup">Created: 2/9/2017 7:04:13 PM</property>
  <property name="meta.attr.artist.markup">TextAloud: IVONA Joey22</property>
  <property name="meta.attr.genre.markup">Speech</property>
  <property name="meta.attr.title.markup">20845349.mp3</property>
  <property name="meta.attr.date.markup">2017</property>
 </producer>
 <producer id="11_playlist3" title="Anonymous Submission" out="131" in="0">
  <property name="length">00:00:04;12</property>
  <property name="eof">pause</property>
  <property name="resource">/home/qwerty/Downloads/20813176.mp3</property>
  <property name="audio_index">0</property>
  <property name="video_index">-1</property>
  <property name="mute_on_pause">1</property>
  <property name="mlt_service">avformat-novalidate</property>
  <property name="seekable">1</property>
  <property name="kdenlive:folderid">-1</property>
  <property name="kdenlive:file_size">26167</property>
  <property name="kdenlive:file_hash">cab7026cdac5266a74172892700c7f4c</property>
  <property name="global_feed">1</property>
  <property name="xml">was here</property>
  <property name="meta.media.nb_streams">1</property>
  <property name="meta.media.0.stream.type">audio</property>
  <property name="meta.media.0.codec.sample_fmt">s16p</property>
  <property name="meta.media.0.codec.sample_rate">22050</property>
  <property name="meta.media.0.codec.channels">1</property>
  <property name="meta.media.0.codec.name">mp3</property>
  <property name="meta.media.0.codec.long_name">MP3 (MPEG audio layer 3)</property>
  <property name="meta.media.0.codec.bit_rate">40000</property>
  <property name="meta.attr.encoded_by.markup">Lame MP3</property>
  <property name="meta.attr.language.markup">US English</property>
  <property name="meta.attr.album.markup">Created: 2/8/2017 11:27:46 PM</property>
  <property name="meta.attr.artist.markup">TextAloud: IVONA Joey22</property>
  <property name="meta.attr.genre.markup">Speech</property>
  <property name="meta.attr.title.markup">20813176.mp3</property>
  <property name="meta.attr.date.markup">2017</property>
 </producer>
 <producer id="47_playlist3" title="Anonymous Submission" out="239" in="0">
  <property name="length">00:00:08;00</property>
  <property name="eof">pause</property>
  <property name="resource">/home/qwerty/Downloads/20940231.mp3</property>
  <property name="audio_index">0</property>
  <property name="video_index">-1</property>
  <property name="mute_on_pause">1</property>
  <property name="mlt_service">avformat-novalidate</property>
  <property name="seekable">1</property>
  <property name="kdenlive:folderid">-1</property>
  <property name="kdenlive:file_size">44061</property>
  <property name="kdenlive:file_hash">b3cab4be063297bd1e4742d6b66b8579</property>
  <property name="global_feed">1</property>
  <property name="xml">was here</property>
  <property name="meta.media.nb_streams">1</property>
  <property name="meta.media.0.stream.type">audio</property>
  <property name="meta.media.0.codec.sample_fmt">s16p</property>
  <property name="meta.media.0.codec.sample_rate">22050</property>
  <property name="meta.media.0.codec.channels">1</property>
  <property name="meta.media.0.codec.name">mp3</property>
  <property name="meta.media.0.codec.long_name">MP3 (MPEG audio layer 3)</property>
  <property name="meta.media.0.codec.bit_rate">40000</property>
  <property name="meta.attr.encoded_by.markup">Lame MP3</property>
  <property name="meta.attr.language.markup">US English</property>
  <property name="meta.attr.album.markup">Created: 2/12/2017 10:58:03 PM</property>
  <property name="meta.attr.artist.markup">TextAloud: IVONA Joey22</property>
  <property name="meta.attr.genre.markup">Speech</property>
  <property name="meta.attr.title.markup">20940231.mp3</property>
  <property name="meta.attr.date.markup">2017</property>
 </producer>
 <producer id="44_playlist3" title="Anonymous Submission" out="30" in="0">
  <property name="length">00:00:01;01</property>
  <property name="eof">pause</property>
  <property name="resource">warningmessage.wav</property>
  <property name="audio_index">0</property>
  <property name="video_index">-1</property>
  <property name="mute_on_pause">1</property>
  <property name="mlt_service">avformat-novalidate</property>
  <property name="seekable">1</property>
  <property name="kdenlive:folderid">-1</property>
  <property name="kdenlive:file_size">184144</property>
  <property name="kdenlive:file_hash">1e48ddeaa00488b1e532f1de418fdb6f</property>
  <property name="global_feed">1</property>
  <property name="xml">was here</property>
  <property name="meta.media.nb_streams">1</property>
  <property name="meta.media.0.stream.type">audio</property>
  <property name="meta.media.0.codec.sample_fmt">s16</property>
  <property name="meta.media.0.codec.sample_rate">44100</property>
  <property name="meta.media.0.codec.channels">2</property>
  <property name="meta.media.0.codec.name">pcm_s16le</property>
  <property name="meta.media.0.codec.long_name">PCM signed 16-bit little-endian</property>
  <property name="meta.media.0.codec.bit_rate">1411200</property>
 </producer>
 <producer id="46_playlist3" title="Anonymous Submission" out="358" in="0">
  <property name="length">00:00:11;29</property>
  <property name="eof">pause</property>
  <property name="resource">/home/qwerty/Downloads/20936068.mp3</property>
  <property name="audio_index">0</property>
  <property name="video_index">-1</property>
  <property name="mute_on_pause">1</property>
  <property name="mlt_service">avformat-novalidate</property>
  <property name="seekable">1</property>
  <property name="kdenlive:folderid">-1</property>
  <property name="kdenlive:file_size">64044</property>
  <property name="kdenlive:file_hash">cab8f4d27eda0a2e734bfce1719dc3f7</property>
  <property name="global_feed">1</property>
  <property name="xml">was here</property>
  <property name="meta.media.nb_streams">1</property>
  <property name="meta.media.0.stream.type">audio</property>
  <property name="meta.media.0.codec.sample_fmt">s16p</property>
  <property name="meta.media.0.codec.sample_rate">22050</property>
  <property name="meta.media.0.codec.channels">1</property>
  <property name="meta.media.0.codec.name">mp3</property>
  <property name="meta.media.0.codec.long_name">MP3 (MPEG audio layer 3)</property>
  <property name="meta.media.0.codec.bit_rate">40000</property>
  <property name="meta.attr.encoded_by.markup">Lame MP3</property>
  <property name="meta.attr.language.markup">US English</property>
  <property name="meta.attr.album.markup">Created: 2/12/2017 6:43:23 PM</property>
  <property name="meta.attr.artist.markup">TextAloud: IVONA Joey22</property>
  <property name="meta.attr.genre.markup">Speech</property>
  <property name="meta.attr.title.markup">20936068.mp3</property>
  <property name="meta.attr.date.markup">2017</property>
 </producer>
 <producer id="59_playlist3" title="Anonymous Submission" out="15" in="0">
  <property name="length">00:00:00;16</property>
  <property name="eof">pause</property>
  <property name="resource">21247441.mp3</property>
  <property name="audio_index">0</property>
  <property name="video_index">-1</property>
  <property name="mute_on_pause">1</property>
  <property name="mlt_service">avformat-novalidate</property>
  <property name="seekable">1</property>
  <property name="kdenlive:folderid">-1</property>
  <property name="kdenlive:file_size">6706</property>
  <property name="kdenlive:file_hash">20fa90cd6613487be50cc65edb048216</property>
  <property name="global_feed">1</property>
  <property name="xml">was here</property>
  <property name="meta.media.nb_streams">1</property>
  <property name="meta.media.0.stream.type">audio</property>
  <property name="meta.media.0.codec.sample_fmt">s16p</property>
  <property name="meta.media.0.codec.sample_rate">22050</property>
  <property name="meta.media.0.codec.channels">1</property>
  <property name="meta.media.0.codec.name">mp3</property>
  <property name="meta.media.0.codec.long_name">MP3 (MPEG audio layer 3)</property>
  <property name="meta.media.0.codec.bit_rate">40000</property>
  <property name="meta.attr.encoded_by.markup">Lame MP3</property>
  <property name="meta.attr.language.markup">US English</property>
  <property name="meta.attr.album.markup">Created: 2/21/2017 5:38:53 PM</property>
  <property name="meta.attr.artist.markup">TextAloud: IVONA Joey22</property>
  <property name="meta.attr.genre.markup">Speech</property>
  <property name="meta.attr.title.markup">21247441.mp3</property>
  <property name="meta.attr.date.markup">2017</property>
 </producer>
 <producer id="53_playlist3" title="Anonymous Submission" out="71" in="0">
  <property name="length">00:00:02;12</property>
  <property name="eof">pause</property>
  <property name="resource">21083970.mp3</property>
  <property name="audio_index">0</property>
  <property name="video_index">-1</property>
  <property name="mute_on_pause">1</property>
  <property name="mlt_service">avformat-novalidate</property>
  <property name="seekable">1</property>
  <property name="kdenlive:folderid">-1</property>
  <property name="kdenlive:file_size">16110</property>
  <property name="kdenlive:file_hash">180e98441e997feae334d02143834ecc</property>
  <property name="global_feed">1</property>
  <property name="xml">was here</property>
  <property name="meta.media.nb_streams">1</property>
  <property name="meta.media.0.stream.type">audio</property>
  <property name="meta.media.0.codec.sample_fmt">s16p</property>
  <property name="meta.media.0.codec.sample_rate">22050</property>
  <property name="meta.media.0.codec.channels">1</property>
  <property name="meta.media.0.codec.name">mp3</property>
  <property name="meta.media.0.codec.long_name">MP3 (MPEG audio layer 3)</property>
  <property name="meta.media.0.codec.bit_rate">40000</property>
  <property name="meta.attr.encoded_by.markup">Lame MP3</property>
  <property name="meta.attr.language.markup">US English</property>
  <property name="meta.attr.album.markup">Created: 2/16/2017 9:12:43 PM</property>
  <property name="meta.attr.artist.markup">TextAloud: IVONA Joey22</property>
  <property name="meta.attr.genre.markup">Speech</property>
  <property name="meta.attr.title.markup">21083970.mp3</property>
  <property name="meta.attr.date.markup">2017</property>
 </producer>
 <producer id="15_playlist3" title="Anonymous Submission" out="42" in="0">
  <property name="length">00:00:01;13</property>
  <property name="eof">pause</property>
  <property name="resource">/home/qwerty/Downloads/20845646.mp3</property>
  <property name="audio_index">0</property>
  <property name="video_index">-1</property>
  <property name="mute_on_pause">1</property>
  <property name="mlt_service">avformat-novalidate</property>
  <property name="seekable">1</property>
  <property name="kdenlive:folderid">-1</property>
  <property name="kdenlive:file_size">11277</property>
  <property name="kdenlive:file_hash">6ca1541ded5e75959a6b3da8d1ec93b8</property>
  <property name="global_feed">1</property>
  <property name="xml">was here</property>
  <property name="meta.media.nb_streams">1</property>
  <property name="meta.media.0.stream.type">audio</property>
  <property name="meta.media.0.codec.sample_fmt">s16p</property>
  <property name="meta.media.0.codec.sample_rate">22050</property>
  <property name="meta.media.0.codec.channels">1</property>
  <property name="meta.media.0.codec.name">mp3</property>
  <property name="meta.media.0.codec.long_name">MP3 (MPEG audio layer 3)</property>
  <property name="meta.media.0.codec.bit_rate">40000</property>
  <property name="meta.attr.encoded_by.markup">Lame MP3</property>
  <property name="meta.attr.language.markup">US English</property>
  <property name="meta.attr.album.markup">Created: 2/9/2017 7:19:37 PM</property>
  <property name="meta.attr.artist.markup">TextAloud: IVONA Joey22</property>
  <property name="meta.attr.genre.markup">Speech</property>
  <property name="meta.attr.title.markup">20845646.mp3</property>
  <property name="meta.attr.date.markup">2017</property>
 </producer>
 <playlist id="playlist3">
  <property name="kdenlive:track_name">Audio 3</property>
  <property name="kdenlive:locked_track">0</property>
  <blank length="277"/>
  <entry out="68" producer="7_playlist3" in="47"/>
  <blank length="104"/>
  <entry out="218" producer="7_playlist3" in="192"/>
  <blank length="38"/>
  <entry out="286" producer="7_playlist3" in="266"/>
  <blank length="94"/>
  <entry out="397" producer="7_playlist3" in="362"/>
  <blank length="207"/>
  <entry out="578" producer="7_playlist3" in="554"/>
  <blank length="666"/>
  <entry out="27" producer="14_playlist3" in="2">
   <filter id="filter2">
    <property name="window">75</property>
    <property name="max_gain">20dB</property>
    <property name="level">2=10</property>
    <property name="mlt_service">volume</property>
    <property name="kdenlive_id">volume</property>
    <property name="tag">volume</property>
    <property name="kdenlive_ix">1</property>
    <property name="kdenlive_info"/>
   </filter>
  </entry>
  <blank length="136"/>
  <entry out="37" producer="11_playlist3" in="26">
   <filter id="filter3">
    <property name="window">75</property>
    <property name="max_gain">20dB</property>
    <property name="level">26=15</property>
    <property name="mlt_service">volume</property>
    <property name="kdenlive_id">volume</property>
    <property name="tag">volume</property>
    <property name="kdenlive_ix">1</property>
    <property name="kdenlive_info"/>
   </filter>
  </entry>
  <blank length="67"/>
  <entry out="111" producer="11_playlist3" in="94">
   <filter id="filter4">
    <property name="window">75</property>
    <property name="max_gain">20dB</property>
    <property name="level">94=10</property>
    <property name="mlt_service">volume</property>
    <property name="kdenlive_id">volume</property>
    <property name="tag">volume</property>
    <property name="kdenlive_ix">1</property>
    <property name="kdenlive_info"/>
   </filter>
  </entry>
  <blank length="158"/>
  <entry out="42" producer="47_playlist3" in="31">
   <filter id="filter5">
    <property name="window">75</property>
    <property name="max_gain">20dB</property>
    <property name="level">31=10</property>
    <property name="mlt_service">volume</property>
    <property name="kdenlive_id">volume</property>
    <property name="tag">volume</property>
    <property name="kdenlive_ix">1</property>
    <property name="kdenlive_info"/>
   </filter>
  </entry>
  <blank length="12"/>
  <entry out="65" producer="47_playlist3" in="55">
   <filter id="filter6">
    <property name="window">75</property>
    <property name="max_gain">20dB</property>
    <property name="level">55=10</property>
    <property name="mlt_service">volume</property>
    <property name="kdenlive_id">volume</property>
    <property name="tag">volume</property>
    <property name="kdenlive_ix">1</property>
    <property name="kdenlive_info"/>
   </filter>
  </entry>
  <blank length="59"/>
  <entry out="159" producer="47_playlist3" in="137">
   <filter id="filter7">
    <property name="window">75</property>
    <property name="max_gain">20dB</property>
    <property name="level">137=10</property>
    <property name="mlt_service">volume</property>
    <property name="kdenlive_id">volume</property>
    <property name="tag">volume</property>
    <property name="kdenlive_ix">1</property>
    <property name="kdenlive_info"/>
   </filter>
  </entry>
  <blank length="19"/>
  <entry out="30" producer="44_playlist3" in="0">
   <filter id="filter8">
    <property name="window">75</property>
    <property name="max_gain">20dB</property>
    <property name="level">0=5</property>
    <property name="mlt_service">volume</property>
    <property name="kdenlive_id">volume</property>
    <property name="tag">volume</property>
    <property name="kdenlive_ix">1</property>
    <property name="kdenlive_info"/>
   </filter>
  </entry>
  <entry out="30" producer="44_playlist3" in="0">
   <filter id="filter9">
    <property name="window">75</property>
    <property name="max_gain">20dB</property>
    <property name="level">0=5</property>
    <property name="mlt_service">volume</property>
    <property name="kdenlive_id">volume</property>
    <property name="tag">volume</property>
    <property name="kdenlive_ix">1</property>
    <property name="kdenlive_info"/>
   </filter>
  </entry>
  <entry out="30" producer="44_playlist3" in="0">
   <filter id="filter10">
    <property name="window">75</property>
    <property name="max_gain">20dB</property>
    <property name="level">0=5</property>
    <property name="mlt_service">volume</property>
    <property name="kdenlive_id">volume</property>
    <property name="tag">volume</property>
    <property name="kdenlive_ix">1</property>
    <property name="kdenlive_info"/>
   </filter>
  </entry>
  <blank length="661"/>
  <entry out="38" producer="46_playlist3" in="31">
   <filter id="filter11">
    <property name="window">75</property>
    <property name="max_gain">20dB</property>
    <property name="level">31=0;33=15;34=0</property>
    <property name="mlt_service">volume</property>
    <property name="kdenlive_id">volume</property>
    <property name="tag">volume</property>
    <property name="kdenlive_ix">1</property>
    <property name="kdenlive_info"/>
   </filter>
  </entry>
  <blank length="33"/>
  <entry out="70" producer="46_playlist3" in="60"/>
  <blank length="75"/>
  <entry out="164" producer="46_playlist3" in="147">
   <filter id="filter12">
    <property name="window">75</property>
    <property name="max_gain">20dB</property>
    <property name="level">147=0;158=0;164=60</property>
    <property name="mlt_service">volume</property>
    <property name="kdenlive_id">volume</property>
    <property name="tag">volume</property>
    <property name="kdenlive_ix">1</property>
    <property name="kdenlive_info"/>
    <property name="disable">0</property>
   </filter>
  </entry>
  <blank length="68"/>
  <entry out="241" producer="46_playlist3" in="236">
   <filter id="filter13">
    <property name="window">75</property>
    <property name="max_gain">20dB</property>
    <property name="level">236=10;241=10</property>
    <property name="mlt_service">volume</property>
    <property name="kdenlive_id">volume</property>
    <property name="tag">volume</property>
    <property name="kdenlive_ix">1</property>
    <property name="kdenlive_info"/>
    <property name="disable"/>
   </filter>
  </entry>
  <entry out="276" producer="46_playlist3" in="266">
   <filter id="filter18">
    <property name="window">75</property>
    <property name="max_gain">20dB</property>
    <property name="level">266=10</property>
    <property name="mlt_service">volume</property>
    <property name="kdenlive_id">volume</property>
    <property name="tag">volume</property>
    <property name="kdenlive_ix">1</property>
    <property name="kdenlive_info"/>
   </filter>
  </entry>
  <blank length="9"/>
  <entry out="15" producer="59_playlist3" in="0">
   <filter id="filter14">
    <property name="window">75</property>
    <property name="max_gain">20dB</property>
    <property name="level">0=10</property>
    <property name="mlt_service">volume</property>
    <property name="kdenlive_id">volume</property>
    <property name="tag">volume</property>
    <property name="kdenlive_ix">1</property>
    <property name="kdenlive_info"/>
   </filter>
  </entry>
  <blank length="161"/>
  <entry out="71" producer="53_playlist3" in="0">
   <filter id="filter19">
    <property name="window">75</property>
    <property name="max_gain">20dB</property>
    <property name="level">0=10</property>
    <property name="mlt_service">volume</property>
    <property name="kdenlive_id">volume</property>
    <property name="tag">volume</property>
    <property name="kdenlive_ix">1</property>
    <property name="kdenlive_info"/>
   </filter>
  </entry>
  <blank length="826"/>
  <entry out="18" producer="15_playlist3" in="3">
   <filter id="gain">
    <property name="window">75</property>
    <property name="max_gain">20dB</property>
    <property name="mlt_service">volume</property>
    <property name="kdenlive_id">gain</property>
    <property name="tag">volume</property>
    <property name="kdenlive_ix">1</property>
    <property name="kdenlive_info"/>
    <property name="disable"/>
    <property name="gain">5</property>
   </filter>
  </entry>
 </playlist>
 <producer id="29_playlist4" title="Anonymous Submission" out="35" in="0">
  <property name="length">00:00:01;06</property>
  <property name="eof">pause</property>
  <property name="resource">neg7.wav</property>
  <property name="audio_index">0</property>
  <property name="video_index">-1</property>
  <property name="mute_on_pause">1</property>
  <property name="mlt_service">avformat-novalidate</property>
  <property name="seekable">1</property>
  <property name="kdenlive:folderid">-1</property>
  <property name="kdenlive:file_size">211458</property>
  <property name="kdenlive:file_hash">36a6b01afe02808b6ce904a757253a37</property>
  <property name="global_feed">1</property>
  <property name="xml">was here</property>
  <property name="meta.media.nb_streams">1</property>
  <property name="meta.media.0.stream.type">audio</property>
  <property name="meta.media.0.codec.sample_fmt">s16</property>
  <property name="meta.media.0.codec.sample_rate">44100</property>
  <property name="meta.media.0.codec.channels">2</property>
  <property name="meta.media.0.codec.name">pcm_s16le</property>
  <property name="meta.media.0.codec.long_name">PCM signed 16-bit little-endian</property>
  <property name="meta.media.0.codec.bit_rate">1411200</property>
 </producer>
 <producer id="24_playlist4" title="Anonymous Submission" out="33" in="0">
  <property name="length">00:00:01;04</property>
  <property name="eof">pause</property>
  <property name="resource">neg2.wav</property>
  <property name="audio_index">0</property>
  <property name="video_index">-1</property>
  <property name="mute_on_pause">1</property>
  <property name="mlt_service">avformat-novalidate</property>
  <property name="seekable">1</property>
  <property name="kdenlive:folderid">-1</property>
  <property name="kdenlive:file_size">198010</property>
  <property name="kdenlive:file_hash">50f42313ff16cce3014e5d34ec4fbf6a</property>
  <property name="global_feed">1</property>
  <property name="xml">was here</property>
  <property name="meta.media.nb_streams">1</property>
  <property name="meta.media.0.stream.type">audio</property>
  <property name="meta.media.0.codec.sample_fmt">s16</property>
  <property name="meta.media.0.codec.sample_rate">44100</property>
  <property name="meta.media.0.codec.channels">2</property>
  <property name="meta.media.0.codec.name">pcm_s16le</property>
  <property name="meta.media.0.codec.long_name">PCM signed 16-bit little-endian</property>
  <property name="meta.media.0.codec.bit_rate">1411200</property>
 </producer>
 <producer id="26_playlist4" title="Anonymous Submission" out="29" in="0">
  <property name="length">00:00:01;00</property>
  <property name="eof">pause</property>
  <property name="resource">neg4.wav</property>
  <property name="audio_index">0</property>
  <property name="video_index">-1</property>
  <property name="mute_on_pause">1</property>
  <property name="mlt_service">avformat-novalidate</property>
  <property name="seekable">1</property>
  <property name="kdenlive:folderid">-1</property>
  <property name="kdenlive:file_size">177846</property>
  <property name="kdenlive:file_hash">1617a2228f23515fcfa84f62fc6c465e</property>
  <property name="global_feed">1</property>
  <property name="xml">was here</property>
  <property name="meta.media.nb_streams">1</property>
  <property name="meta.media.0.stream.type">audio</property>
  <property name="meta.media.0.codec.sample_fmt">s16</property>
  <property name="meta.media.0.codec.sample_rate">44100</property>
  <property name="meta.media.0.codec.channels">2</property>
  <property name="meta.media.0.codec.name">pcm_s16le</property>
  <property name="meta.media.0.codec.long_name">PCM signed 16-bit little-endian</property>
  <property name="meta.media.0.codec.bit_rate">1411200</property>
 </producer>
 <producer id="20_playlist4" title="Anonymous Submission" out="31" in="0">
  <property name="length">00:00:01;02</property>
  <property name="eof">pause</property>
  <property name="resource">neg1.wav</property>
  <property name="audio_index">0</property>
  <property name="video_index">-1</property>
  <property name="mute_on_pause">1</property>
  <property name="mlt_service">avformat-novalidate</property>
  <property name="seekable">1</property>
  <property name="kdenlive:folderid">-1</property>
  <property name="kdenlive:file_size">186910</property>
  <property name="kdenlive:file_hash">ce117db930be5f05ea62994d0f09fc85</property>
  <property name="global_feed">1</property>
  <property name="xml">was here</property>
  <property name="meta.media.nb_streams">1</property>
  <property name="meta.media.0.stream.type">audio</property>
  <property name="meta.media.0.codec.sample_fmt">s16</property>
  <property name="meta.media.0.codec.sample_rate">44100</property>
  <property name="meta.media.0.codec.channels">2</property>
  <property name="meta.media.0.codec.name">pcm_s16le</property>
  <property name="meta.media.0.codec.long_name">PCM signed 16-bit little-endian</property>
  <property name="meta.media.0.codec.bit_rate">1411200</property>
 </producer>
 <producer id="1_playlist4" title="Anonymous Submission" out="4306" in="0">
  <property name="length">00:02:23;21</property>
  <property name="eof">pause</property>
  <property name="resource">/home/qwerty/Downloads/WANO-FULL-VOCALS.wav</property>
  <property name="audio_index">0</property>
  <property name="video_index">-1</property>
  <property name="mute_on_pause">1</property>
  <property name="mlt_service">avformat-novalidate</property>
  <property name="seekable">1</property>
  <property name="kdenlive:folderid">-1</property>
  <property name="kdenlive:file_size">41389288</property>
  <property name="kdenlive:file_hash">6ba4a1b6559736fde38cf2257e791106</property>
  <property name="global_feed">1</property>
  <property name="xml">was here</property>
  <property name="meta.media.nb_streams">1</property>
  <property name="meta.media.0.stream.type">audio</property>
  <property name="meta.media.0.codec.sample_fmt">s32</property>
  <property name="meta.media.0.codec.sample_rate">48000</property>
  <property name="meta.media.0.codec.channels">2</property>
  <property name="meta.media.0.codec.name">pcm_s24le</property>
  <property name="meta.media.0.codec.long_name">PCM signed 24-bit little-endian</property>
  <property name="meta.media.0.codec.bit_rate">2304000</property>
 </producer>
 <producer id="producer0" title="Anonymous Submission" out="4306" in="0">
  <property name="length">00:02:23;21</property>
  <property name="eof">pause</property>
  <property name="resource">/home/qwerty/Downloads/WANO-FULL-VOCALS.wav</property>
  <property name="audio_index">-1</property>
  <property name="video_index">-1</property>
  <property name="mute_on_pause">1</property>
  <property name="mlt_service">avformat-novalidate</property>
  <property name="seekable">1</property>
  <property name="kdenlive:folderid">-1</property>
  <property name="kdenlive:file_size">41389288</property>
  <property name="kdenlive:file_hash">6ba4a1b6559736fde38cf2257e791106</property>
  <property name="global_feed">1</property>
  <property name="xml">was here</property>
  <property name="kdenlive:binid">1</property>
  <property name="kdenlive:clipstate">0</property>
 </producer>
 <producer id="producer3" title="Anonymous Submission" out="4306" in="0">
  <property name="length">00:02:23;21</property>
  <property name="eof">pause</property>
  <property name="resource">/home/qwerty/Downloads/WANO-FULL-VOCALS.wav</property>
  <property name="audio_index">-1</property>
  <property name="video_index">-1</property>
  <property name="mute_on_pause">1</property>
  <property name="mlt_service">avformat-novalidate</property>
  <property name="seekable">1</property>
  <property name="kdenlive:folderid">-1</property>
  <property name="kdenlive:file_size">41389288</property>
  <property name="kdenlive:file_hash">6ba4a1b6559736fde38cf2257e791106</property>
  <property name="global_feed">1</property>
  <property name="xml">was here</property>
  <property name="kdenlive:binid">1</property>
  <property name="kdenlive:clipstate">0</property>
 </producer>
 <playlist id="playlist4">
  <property name="kdenlive:track_name">Audio 2</property>
  <property name="kdenlive:locked_track">0</property>
  <blank length="2"/>
  <entry out="27" producer="29_playlist4" in="0"/>
  <entry out="33" producer="24_playlist4" in="0"/>
  <blank length="89"/>
  <entry out="13" producer="26_playlist4" in="0"/>
  <entry out="12" producer="20_playlist4" in="0"/>
  <blank length="625"/>
  <entry out="708" producer="1_playlist4" in="0"/>
  <entry out="740" producer="1_playlist4" in="709">
   <filter id="mute">
    <property name="window">75</property>
    <property name="max_gain">20dB</property>
    <property name="mlt_service">volume</property>
    <property name="kdenlive_id">mute</property>
    <property name="tag">volume</property>
    <property name="kdenlive_ix">1</property>
    <property name="gain">0</property>
   </filter>
  </entry>
  <entry out="871" producer="1_playlist4" in="741"/>
  <entry out="887" producer="1_playlist4" in="872">
   <filter id="filter20">
    <property name="window">75</property>
    <property name="max_gain">20dB</property>
    <property name="mlt_service">volume</property>
    <property name="kdenlive_id">mute</property>
    <property name="tag">volume</property>
    <property name="kdenlive_ix">1</property>
    <property name="gain">0</property>
   </filter>
  </entry>
  <entry out="949" producer="1_playlist4" in="888"/>
  <entry out="976" producer="1_playlist4" in="950">
   <filter id="filter21">
    <property name="window">75</property>
    <property name="max_gain">20dB</property>
    <property name="mlt_service">volume</property>
    <property name="kdenlive_id">mute</property>
    <property name="tag">volume</property>
    <property name="kdenlive_ix">1</property>
    <property name="gain">0</property>
   </filter>
  </entry>
  <entry out="1126" producer="1_playlist4" in="977"/>
  <entry out="1140" producer="producer0" in="1127"/>
  <entry out="1148" producer="1_playlist4" in="1141"/>
  <entry out="1166" producer="1_playlist4" in="1149">
   <filter id="filter15">
    <property name="window">75</property>
    <property name="max_gain">20dB</property>
    <property name="mlt_service">volume</property>
    <property name="kdenlive_id">mute</property>
    <property name="tag">volume</property>
    <property name="kdenlive_ix">1</property>
    <property name="gain">0</property>
   </filter>
  </entry>
  <entry out="1220" producer="1_playlist4" in="1167"/>
  <entry out="1288" producer="1_playlist4" in="1221">
   <filter id="filter16">
    <property name="window">75</property>
    <property name="max_gain">20dB</property>
    <property name="mlt_service">volume</property>
    <property name="kdenlive_id">mute</property>
    <property name="tag">volume</property>
    <property name="kdenlive_ix">1</property>
    <property name="gain">0</property>
   </filter>
  </entry>
  <entry out="2017" producer="1_playlist4" in="1289"/>
  <entry out="2030" producer="1_playlist4" in="2018">
   <filter id="filter22">
    <property name="window">75</property>
    <property name="max_gain">20dB</property>
    <property name="mlt_service">volume</property>
    <property name="kdenlive_id">mute</property>
    <property name="tag">volume</property>
    <property name="kdenlive_ix">1</property>
    <property name="gain">0</property>
   </filter>
  </entry>
  <entry out="2057" producer="1_playlist4" in="2031"/>
  <entry out="2073" producer="1_playlist4" in="2058">
   <filter id="filter23">
    <property name="window">75</property>
    <property name="max_gain">20dB</property>
    <property name="mlt_service">volume</property>
    <property name="kdenlive_id">mute</property>
    <property name="tag">volume</property>
    <property name="kdenlive_ix">1</property>
    <property name="gain">0</property>
   </filter>
  </entry>
  <entry out="2144" producer="1_playlist4" in="2074"/>
  <entry out="2158" producer="producer3" in="2145">
   <filter id="filter24">
    <property name="window">75</property>
    <property name="max_gain">20dB</property>
    <property name="mlt_service">volume</property>
    <property name="kdenlive_id">mute</property>
    <property name="tag">volume</property>
    <property name="kdenlive_ix">1</property>
    <property name="gain">0</property>
   </filter>
  </entry>
  <entry out="2228" producer="1_playlist4" in="2159"/>
  <entry out="2246" producer="1_playlist4" in="2229">
   <filter id="filter25">
    <property name="window">75</property>
    <property name="max_gain">20dB</property>
    <property name="mlt_service">volume</property>
    <property name="kdenlive_id">mute</property>
    <property name="tag">volume</property>
    <property name="kdenlive_ix">1</property>
    <property name="gain">0</property>
   </filter>
  </entry>
  <entry out="2256" producer="1_playlist4" in="2247"/>
  <entry out="2273" producer="1_playlist4" in="2257">
   <filter id="filter26">
    <property name="window">75</property>
    <property name="max_gain">20dB</property>
    <property name="mlt_service">volume</property>
    <property name="kdenlive_id">mute</property>
    <property name="tag">volume</property>
    <property name="kdenlive_ix">1</property>
    <property name="gain">0</property>
   </filter>
  </entry>
  <entry out="2434" producer="1_playlist4" in="2274"/>
  <entry out="2555" producer="1_playlist4" in="2435">
   <filter id="filter27">
    <property name="window">75</property>
    <property name="max_gain">20dB</property>
    <property name="mlt_service">volume</property>
    <property name="kdenlive_id">mute</property>
    <property name="tag">volume</property>
    <property name="kdenlive_ix">1</property>
    <property name="gain">0</property>
   </filter>
  </entry>
  <entry out="3329" producer="1_playlist4" in="2556"/>
  <entry out="3350" producer="1_playlist4" in="3330">
   <filter id="filter17">
    <property name="window">75</property>
    <property name="max_gain">20dB</property>
    <property name="mlt_service">volume</property>
    <property name="kdenlive_id">mute</property>
    <property name="tag">volume</property>
    <property name="kdenlive_ix">1</property>
    <property name="gain">0</property>
   </filter>
  </entry>
  <entry out="4306" producer="1_playlist4" in="3351"/>
 </playlist>
 <producer id="26_playlist5" title="Anonymous Submission" out="29" in="0">
  <property name="length">00:00:01;00</property>
  <property name="eof">pause</property>
  <property name="resource">neg4.wav</property>
  <property name="audio_index">0</property>
  <property name="video_index">-1</property>
  <property name="mute_on_pause">1</property>
  <property name="mlt_service">avformat-novalidate</property>
  <property name="seekable">1</property>
  <property name="kdenlive:folderid">-1</property>
  <property name="kdenlive:file_size">177846</property>
  <property name="kdenlive:file_hash">1617a2228f23515fcfa84f62fc6c465e</property>
  <property name="global_feed">1</property>
  <property name="xml">was here</property>
  <property name="meta.media.nb_streams">1</property>
  <property name="meta.media.0.stream.type">audio</property>
  <property name="meta.media.0.codec.sample_fmt">s16</property>
  <property name="meta.media.0.codec.sample_rate">44100</property>
  <property name="meta.media.0.codec.channels">2</property>
  <property name="meta.media.0.codec.name">pcm_s16le</property>
  <property name="meta.media.0.codec.long_name">PCM signed 16-bit little-endian</property>
  <property name="meta.media.0.codec.bit_rate">1411200</property>
 </producer>
 <producer id="24_playlist5" title="Anonymous Submission" out="33" in="0">
  <property name="length">00:00:01;04</property>
  <property name="eof">pause</property>
  <property name="resource">neg2.wav</property>
  <property name="audio_index">0</property>
  <property name="video_index">-1</property>
  <property name="mute_on_pause">1</property>
  <property name="mlt_service">avformat-novalidate</property>
  <property name="seekable">1</property>
  <property name="kdenlive:folderid">-1</property>
  <property name="kdenlive:file_size">198010</property>
  <property name="kdenlive:file_hash">50f42313ff16cce3014e5d34ec4fbf6a</property>
  <property name="global_feed">1</property>
  <property name="xml">was here</property>
  <property name="meta.media.nb_streams">1</property>
  <property name="meta.media.0.stream.type">audio</property>
  <property name="meta.media.0.codec.sample_fmt">s16</property>
  <property name="meta.media.0.codec.sample_rate">44100</property>
  <property name="meta.media.0.codec.channels">2</property>
  <property name="meta.media.0.codec.name">pcm_s16le</property>
  <property name="meta.media.0.codec.long_name">PCM signed 16-bit little-endian</property>
  <property name="meta.media.0.codec.bit_rate">1411200</property>
 </producer>
 <producer id="44_playlist5" title="Anonymous Submission" out="30" in="0">
  <property name="length">00:00:01;01</property>
  <property name="eof">pause</property>
  <property name="resource">warningmessage.wav</property>
  <property name="audio_index">0</property>
  <property name="video_index">-1</property>
  <property name="mute_on_pause">1</property>
  <property name="mlt_service">avformat-novalidate</property>
  <property name="seekable">1</property>
  <property name="kdenlive:folderid">-1</property>
  <property name="kdenlive:file_size">184144</property>
  <property name="kdenlive:file_hash">1e48ddeaa00488b1e532f1de418fdb6f</property>
  <property name="global_feed">1</property>
  <property name="xml">was here</property>
  <property name="meta.media.nb_streams">1</property>
  <property name="meta.media.0.stream.type">audio</property>
  <property name="meta.media.0.codec.sample_fmt">s16</property>
  <property name="meta.media.0.codec.sample_rate">44100</property>
  <property name="meta.media.0.codec.channels">2</property>
  <property name="meta.media.0.codec.name">pcm_s16le</property>
  <property name="meta.media.0.codec.long_name">PCM signed 16-bit little-endian</property>
  <property name="meta.media.0.codec.bit_rate">1411200</property>
 </producer>
 <producer id="2_playlist5" title="Anonymous Submission" out="4306" in="0">
  <property name="length">00:02:23;21</property>
  <property name="eof">pause</property>
  <property name="resource">/home/qwerty/Downloads/WANO-FULL-INSTRUMENTAL.wav</property>
  <property name="audio_index">0</property>
  <property name="video_index">-1</property>
  <property name="mute_on_pause">1</property>
  <property name="mlt_service">avformat-novalidate</property>
  <property name="seekable">1</property>
  <property name="kdenlive:folderid">-1</property>
  <property name="kdenlive:file_size">41389288</property>
  <property name="kdenlive:file_hash">1e057729f8c9d69d36a400bbd71f0afd</property>
  <property name="global_feed">1</property>
  <property name="xml">was here</property>
  <property name="meta.media.nb_streams">1</property>
  <property name="meta.media.0.stream.type">audio</property>
  <property name="meta.media.0.codec.sample_fmt">s32</property>
  <property name="meta.media.0.codec.sample_rate">48000</property>
  <property name="meta.media.0.codec.channels">2</property>
  <property name="meta.media.0.codec.name">pcm_s24le</property>
  <property name="meta.media.0.codec.long_name">PCM signed 24-bit little-endian</property>
  <property name="meta.media.0.codec.bit_rate">2304000</property>
 </producer>
 <playlist id="playlist5">
  <property name="kdenlive:track_name">Audio 1</property>
  <property name="kdenlive:locked_track">0</property>
  <blank length="18"/>
  <entry out="29" producer="26_playlist5" in="0"/>
  <blank length="112"/>
  <entry out="13" producer="24_playlist5" in="0"/>
  <entry out="12" producer="44_playlist5" in="0"/>
  <blank length="618"/>
  <entry out="4306" producer="2_playlist5" in="0"/>
 </playlist>
 <playlist id="playlist6">
  <property name="kdenlive:track_name">Video 1</property>
  <property name="kdenlive:locked_track">0</property>
  <blank length="178"/>
  <entry out="36" producer="19" in="0">
   <filter id="movit.rect">
    <property name="rect">0=348 58 1224 964 1</property>
    <property name="fill">1</property>
    <property name="distort">0</property>
    <property name="mlt_service">movit.rect</property>
    <property name="kdenlive_id">movit.rect</property>
    <property name="tag">movit.rect</property>
    <property name="kdenlive_ix">1</property>
    <property name="kdenlive_info"/>
    <property name="disable"/>
   </filter>
   <filter id="movit.opacity">
    <property name="opacity">0=0;19=1</property>
    <property name="alpha">-1</property>
    <property name="mlt_service">movit.opacity</property>
    <property name="kdenlive_id">movit.opacity</property>
    <property name="tag">movit.opacity</property>
    <property name="kdenlive_ix">2</property>
    <property name="kdenlive_info"/>
   </filter>
   <filter id="filter28">
    <property name="radius">0=1</property>
    <property name="mlt_service">movit.blur</property>
    <property name="kdenlive_id">movit.blur</property>
    <property name="tag">movit.blur</property>
    <property name="kdenlive_ix">3</property>
    <property name="kdenlive_info"/>
    <property name="disable">0</property>
   </filter>
  </entry>
  <entry out="12" producer="19" in="2">
   <filter id="filter29">
    <property name="rect">2=348 58 1224 964 1;12=-876 -906 3672 2892 1</property>
    <property name="fill">1</property>
    <property name="distort">0</property>
    <property name="mlt_service">movit.rect</property>
    <property name="kdenlive_id">movit.rect</property>
    <property name="tag">movit.rect</property>
    <property name="kdenlive_ix">1</property>
    <property name="kdenlive_info"/>
    <property name="disable"/>
   </filter>
   <filter id="filter30">
    <property name="radius">2=1;12=17.7</property>
    <property name="mlt_service">movit.blur</property>
    <property name="kdenlive_id">movit.blur</property>
    <property name="tag">movit.blur</property>
    <property name="kdenlive_ix">2</property>
    <property name="kdenlive_info"/>
   </filter>
  </entry>
 </playlist>
 <producer id="3_playlist7" title="Anonymous Submission" out="5095" in="0">
  <property name="length">00:02:50;01</property>
  <property name="eof">pause</property>
  <property name="resource">/home/qwerty/Downloads/LazyTown - We are Number One Music Video - DASH.webm</property>
  <property name="audio_index">-1</property>
  <property name="video_index">0</property>
  <property name="mute_on_pause">1</property>
  <property name="mlt_service">avformat-novalidate</property>
  <property name="seekable">1</property>
  <property name="aspect_ratio">1</property>
  <property name="kdenlive:folderid">-1</property>
  <property name="kdenlive:file_size">56164176</property>
  <property name="kdenlive:file_hash">bece4b72ad7a90aefe2c367b4c72ff6a</property>
  <property name="global_feed">1</property>
  <property name="xml">was here</property>
  <property name="meta.media.nb_streams">1</property>
  <property name="meta.media.0.stream.type">video</property>
  <property name="meta.media.0.stream.frame_rate">23.976</property>
  <property name="meta.media.0.stream.sample_aspect_ratio">1</property>
  <property name="meta.media.0.codec.width">1920</property>
  <property name="meta.media.0.codec.height">1080</property>
  <property name="meta.media.0.codec.rotate">0</property>
  <property name="meta.media.0.codec.frame_rate">1000</property>
  <property name="meta.media.0.codec.pix_fmt">yuv420p</property>
  <property name="meta.media.0.codec.sample_aspect_ratio">0</property>
  <property name="meta.media.0.codec.colorspace">709</property>
  <property name="meta.media.0.codec.name">vp9</property>
  <property name="meta.media.0.codec.long_name">Google VP9</property>
  <property name="meta.media.0.codec.bit_rate">0</property>
  <property name="meta.attr.0.stream.language.markup">eng</property>
  <property name="meta.attr.encoder.markup">google</property>
  <property name="meta.media.sample_aspect_num">1</property>
  <property name="meta.media.sample_aspect_den">1</property>
  <property name="meta.media.frame_rate_num">24000</property>
  <property name="meta.media.frame_rate_den">1001</property>
  <property name="meta.media.colorspace">709</property>
  <property name="meta.media.color_trc">2</property>
  <property name="meta.media.width">1920</property>
  <property name="meta.media.height">1080</property>
  <property name="meta.media.top_field_first">0</property>
  <property name="meta.media.progressive">1</property>
  <property name="movit.convert.width">1920</property>
  <property name="movit.convert.height">1080</property>
  <property name="movit.convert.format">2</property>
 </producer>
 <playlist id="playlist7">
  <property name="kdenlive:track_name">Video 2</property>
  <property name="kdenlive:locked_track">0</property>
  <entry out="5095" producer="3_playlist7" in="0">
   <filter id="movit.blur">
    <property name="radius">0=0;178=0;197=12;219=12;226=0</property>
    <property name="mlt_service">movit.blur</property>
    <property name="kdenlive_id">movit.blur</property>
    <property name="tag">movit.blur</property>
    <property name="kdenlive_ix">1</property>
    <property name="kdenlive_info"/>
   </filter>
  </entry>
 </playlist>
 <producer id="10_playlist8" title="Anonymous Submission" out="43144" in="0">
  <property name="length">00:23:59;18</property>
  <property name="eof">pause</property>
  <property name="resource">/home/qwerty/LazyTown We Are Number One FULL EPISODE - Robbie's Dream Team - Season 4 Full Episode Music Video - DASH.webm</property>
  <property name="audio_index">-1</property>
  <property name="video_index">0</property>
  <property name="mute_on_pause">1</property>
  <property name="mlt_service">avformat-novalidate</property>
  <property name="seekable">1</property>
  <property name="aspect_ratio">1</property>
  <property name="kdenlive:folderid">-1</property>
  <property name="kdenlive:file_size">392880873</property>
  <property name="kdenlive:file_hash">a7883f7be0b75ad8d88d64439aa3f80d</property>
  <property name="global_feed">1</property>
  <property name="xml">was here</property>
  <property name="meta.media.nb_streams">1</property>
  <property name="meta.media.0.stream.type">video</property>
  <property name="meta.media.0.stream.frame_rate">25</property>
  <property name="meta.media.0.stream.sample_aspect_ratio">1</property>
  <property name="meta.media.0.codec.width">1920</property>
  <property name="meta.media.0.codec.height">1080</property>
  <property name="meta.media.0.codec.rotate">0</property>
  <property name="meta.media.0.codec.frame_rate">1000</property>
  <property name="meta.media.0.codec.pix_fmt">yuv420p</property>
  <property name="meta.media.0.codec.sample_aspect_ratio">0</property>
  <property name="meta.media.0.codec.colorspace">709</property>
  <property name="meta.media.0.codec.name">vp9</property>
  <property name="meta.media.0.codec.long_name">Google VP9</property>
  <property name="meta.media.0.codec.bit_rate">0</property>
  <property name="meta.attr.0.stream.language.markup">eng</property>
  <property name="meta.attr.encoder.markup">google</property>
  <property name="meta.media.sample_aspect_num">1</property>
  <property name="meta.media.sample_aspect_den">1</property>
  <property name="meta.media.frame_rate_num">25</property>
  <property name="meta.media.frame_rate_den">1</property>
  <property name="meta.media.colorspace">709</property>
  <property name="meta.media.color_trc">2</property>
  <property name="meta.media.width">1920</property>
  <property name="meta.media.height">1080</property>
  <property name="meta.media.top_field_first">0</property>
  <property name="meta.media.progressive">1</property>
 </producer>
 <playlist id="playlist8">
  <property name="kdenlive:track_name">Video 3</property>
  <property name="kdenlive:locked_track">0</property>
  <blank length="4"/>
  <entry out="9" producer="50" in="0">
   <filter id="filter31">
    <property name="rect">0=545 135 1049 441 1;1=531 36 1049 441 1;2=531 22 1049 441 1;3=526 27 1049 441 1;4=531 27 1049 441 1;5=531 36 1049 441 1;6=531 36 1049 441 1;7=531 36 1049 441 1;8=526 55 1049 441 1;9=521 55 1049 441 1</property>
    <property name="fill">0</property>
    <property name="distort">0</property>
    <property name="mlt_service">movit.rect</property>
    <property name="kdenlive_id">movit.rect</property>
    <property name="tag">movit.rect</property>
    <property name="kdenlive_ix">1</property>
    <property name="kdenlive_info"/>
   </filter>
   <filter id="filter32">
    <property name="opacity">0=0</property>
    <property name="alpha">-1</property>
    <property name="mlt_service">movit.opacity</property>
    <property name="kdenlive_id">movit.opacity</property>
    <property name="tag">movit.opacity</property>
    <property name="kdenlive_ix">2</property>
    <property name="kdenlive_info"/>
    <property name="disable">1</property>
   </filter>
  </entry>
  <blank length="6"/>
  <entry out="8" producer="48" in="0">
   <filter id="filter33">
    <property name="rect">0=691 445 1134 347 1;1=705 408 1134 347 1;2=714 384 1134 347 1;3=705 375 1134 347 1;4=714 351 1134 347 1;5=724 337 1134 347 1;6=742 309 1134 347 1;7=738 299 1134 347 1</property>
    <property name="fill">0</property>
    <property name="distort">0</property>
    <property name="mlt_service">movit.rect</property>
    <property name="kdenlive_id">movit.rect</property>
    <property name="tag">movit.rect</property>
    <property name="kdenlive_ix">1</property>
    <property name="kdenlive_info"/>
   </filter>
   <filter id="filter34">
    <property name="opacity">0=0</property>
    <property name="alpha">-1</property>
    <property name="mlt_service">movit.opacity</property>
    <property name="kdenlive_id">movit.opacity</property>
    <property name="tag">movit.opacity</property>
    <property name="kdenlive_ix">2</property>
    <property name="kdenlive_info"/>
    <property name="disable">1</property>
   </filter>
  </entry>
  <blank length="2"/>
  <entry out="7" producer="51" in="0">
   <filter id="filter35">
    <property name="rect">0=748 84 525 236 1;1=696 56 525 236 1;2=696 56 525 236 1;3=696 47 525 236 1;4=696 47 525 236 1;5=696 47 525 236 1;6=654 89 525 236 1;7=654 89 525 236 1</property>
    <property name="fill">1</property>
    <property name="distort">0</property>
    <property name="mlt_service">movit.rect</property>
    <property name="kdenlive_id">movit.rect</property>
    <property name="tag">movit.rect</property>
    <property name="kdenlive_ix">1</property>
    <property name="kdenlive_info"/>
   </filter>
   <filter id="filter36">
    <property name="opacity">0=0</property>
    <property name="alpha">-1</property>
    <property name="mlt_service">movit.opacity</property>
    <property name="kdenlive_id">movit.opacity</property>
    <property name="tag">movit.opacity</property>
    <property name="kdenlive_ix">2</property>
    <property name="kdenlive_info"/>
    <property name="disable">1</property>
   </filter>
  </entry>
  <blank length="139"/>
  <entry out="84" producer="57" in="48">
   <filter id="filter37">
    <property name="rect">0=348 58 1224 964 1</property>
    <property name="fill">1</property>
    <property name="distort">0</property>
    <property name="mlt_service">movit.rect</property>
    <property name="kdenlive_id">movit.rect</property>
    <property name="tag">movit.rect</property>
    <property name="kdenlive_info"/>
    <property name="kdenlive_ix">1</property>
    <property name="disable"/>
   </filter>
   <filter id="filter38">
    <property name="opacity">0=0;19=1;48=0;67=1</property>
    <property name="alpha">-1</property>
    <property name="mlt_service">movit.opacity</property>
    <property name="kdenlive_id">movit.opacity</property>
    <property name="tag">movit.opacity</property>
    <property name="kdenlive_info"/>
    <property name="kdenlive_ix">2</property>
    <property name="disable"/>
   </filter>
  </entry>
  <entry out="58" producer="57" in="48">
   <filter id="filter39">
    <property name="rect">2=348 58 1224 964 1;12=-876 -906 3672 2892 1;48=348 58 1224 964 1;58=-876 -906 3672 2892 1</property>
    <property name="fill">1</property>
    <property name="distort">0</property>
    <property name="mlt_service">movit.rect</property>
    <property name="kdenlive_id">movit.rect</property>
    <property name="tag">movit.rect</property>
    <property name="kdenlive_info">0/-1/</property>
    <property name="kdenlive_ix">1</property>
    <property name="disable"/>
   </filter>
   <filter id="filter40">
    <property name="radius">2=1;12=17.7;48=0;58=17.7</property>
    <property name="mlt_service">movit.blur</property>
    <property name="kdenlive_id">movit.blur</property>
    <property name="tag">movit.blur</property>
    <property name="kdenlive_info">0/-1/</property>
    <property name="kdenlive_ix">2</property>
    <property name="disable"/>
   </filter>
  </entry>
  <entry out="18387" producer="10_playlist8" in="13624"/>
 </playlist>
 <producer id="13_playlist9" title="Anonymous Submission" out="399" in="0">
  <property name="length">00:00:13;10</property>
  <property name="eof">pause</property>
  <property name="resource">/home/qwerty/.cache/kdenlive/proxy/e6c12d493d34358b754f3518ebee4f88.mpg</property>
  <property name="meta.media.nb_streams">2</property>
  <property name="meta.media.0.stream.type">video</property>
  <property name="meta.media.0.stream.frame_rate">29.97</property>
  <property name="meta.media.0.stream.sample_aspect_ratio">0</property>
  <property name="meta.media.0.codec.width">640</property>
  <property name="meta.media.0.codec.height">360</property>
  <property name="meta.media.0.codec.rotate">0</property>
  <property name="meta.media.0.codec.frame_rate">29.97</property>
  <property name="meta.media.0.codec.pix_fmt">yuv420p</property>
  <property name="meta.media.0.codec.sample_aspect_ratio">1</property>
  <property name="meta.media.0.codec.colorspace">601</property>
  <property name="meta.media.0.codec.name">mpeg2video</property>
  <property name="meta.media.0.codec.long_name">MPEG-2 video</property>
  <property name="meta.media.0.codec.bit_rate">0</property>
  <property name="meta.media.1.stream.type">audio</property>
  <property name="meta.media.1.codec.sample_fmt">s16p</property>
  <property name="meta.media.1.codec.sample_rate">48000</property>
  <property name="meta.media.1.codec.channels">2</property>
  <property name="meta.media.1.codec.name">mp2</property>
  <property name="meta.media.1.codec.long_name">MP2 (MPEG audio layer 2)</property>
  <property name="meta.media.1.codec.bit_rate">128000</property>
  <property name="seekable">1</property>
  <property name="meta.media.sample_aspect_num">1</property>
  <property name="meta.media.sample_aspect_den">1</property>
  <property name="aspect_ratio">1</property>
  <property name="audio_index">1</property>
  <property name="video_index">0</property>
  <property name="mute_on_pause">1</property>
  <property name="mlt_service">avformat</property>
  <property name="kdenlive:file_size">77936986</property>
  <property name="kdenlive:file_hash">e6c12d493d34358b754f3518ebee4f88</property>
  <property name="global_feed">1</property>
  <property name="kdenlive:proxy">/home/qwerty/.cache/kdenlive/proxy/e6c12d493d34358b754f3518ebee4f88.mpg</property>
  <property name="proxy_out">399</property>
  <property name="kdenlive:originalurl">/home/qwerty/20170206_143642.mp4</property>
  <property name="kdenlive:meta.media.nb_streams">2</property>
  <property name="kdenlive:meta.media.0.stream.type">video</property>
  <property name="kdenlive:meta.media.0.stream.frame_rate">29.97</property>
  <property name="kdenlive:meta.media.0.stream.sample_aspect_ratio">0</property>
  <property name="kdenlive:meta.media.0.codec.width">640</property>
  <property name="kdenlive:meta.media.0.codec.height">360</property>
  <property name="kdenlive:meta.media.0.codec.rotate">0</property>
  <property name="kdenlive:meta.media.0.codec.frame_rate">29.97</property>
  <property name="kdenlive:meta.media.0.codec.pix_fmt">yuv420p</property>
  <property name="kdenlive:meta.media.0.codec.sample_aspect_ratio">1</property>
  <property name="kdenlive:meta.media.0.codec.colorspace">601</property>
  <property name="kdenlive:meta.media.0.codec.name">mpeg2video</property>
  <property name="kdenlive:meta.media.0.codec.long_name">MPEG-2 video</property>
  <property name="kdenlive:meta.media.0.codec.bit_rate">0</property>
  <property name="kdenlive:meta.attr.0.stream.creation_time.markup">2017-02-06T22:36:56.000000Z</property>
  <property name="kdenlive:meta.attr.0.stream.language.markup">eng</property>
  <property name="kdenlive:meta.attr.0.stream.handler_name.markup">VideoHandle</property>
  <property name="kdenlive:meta.media.1.stream.type">audio</property>
  <property name="kdenlive:meta.media.1.codec.sample_fmt">s16p</property>
  <property name="kdenlive:meta.media.1.codec.sample_rate">48000</property>
  <property name="kdenlive:meta.media.1.codec.channels">2</property>
  <property name="kdenlive:meta.media.1.codec.name">mp2</property>
  <property name="kdenlive:meta.media.1.codec.long_name">MP2 (MPEG audio layer 2)</property>
  <property name="kdenlive:meta.media.1.codec.bit_rate">128000</property>
  <property name="kdenlive:meta.attr.1.stream.creation_time.markup">2017-02-06T22:36:56.000000Z</property>
  <property name="kdenlive:meta.attr.1.stream.language.markup">eng</property>
  <property name="kdenlive:meta.attr.1.stream.handler_name.markup">SoundHandle</property>
  <property name="kdenlive:meta.attr.major_brand.markup">mp42</property>
  <property name="kdenlive:meta.attr.minor_version.markup">0</property>
  <property name="kdenlive:meta.attr.compatible_brands.markup">isommp42</property>
  <property name="kdenlive:meta.attr.creation_time.markup">2017-02-06T22:36:56.000000Z</property>
  <property name="kdenlive:meta.media.sample_aspect_num">1</property>
  <property name="kdenlive:meta.media.sample_aspect_den">1</property>
  <property name="kdenlive:meta.media.frame_rate_num">30000</property>
  <property name="kdenlive:meta.media.frame_rate_den">1001</property>
  <property name="kdenlive:meta.media.colorspace">601</property>
  <property name="kdenlive:meta.media.color_trc">2</property>
  <property name="kdenlive:meta.media.width">640</property>
  <property name="kdenlive:meta.media.height">360</property>
  <property name="kdenlive:meta.media.top_field_first">0</property>
  <property name="kdenlive:meta.media.progressive">1</property>
  <property name="xml">was here</property>
  <property name="meta.media.frame_rate_num">30000</property>
  <property name="meta.media.frame_rate_den">1001</property>
  <property name="meta.media.colorspace">601</property>
  <property name="meta.media.color_trc">2</property>
  <property name="meta.media.width">640</property>
  <property name="meta.media.height">360</property>
  <property name="meta.media.top_field_first">0</property>
  <property name="meta.media.progressive">1</property>
 </producer>
 <producer id="slowmotion:52:3:1:0" out="2867" in="0">
  <property name="length">2868</property>
  <property name="eof">pause</property>
  <property name="resource">3:/home/qwerty/.cache/kdenlive/proxy/0636cda4ac9341628c8a2c1afe5ee0f0.mpg</property>
  <property name="aspect_ratio">1</property>
  <property name="meta.media.nb_streams">2</property>
  <property name="meta.media.0.stream.type">video</property>
  <property name="meta.media.0.stream.frame_rate">29.97</property>
  <property name="meta.media.0.stream.sample_aspect_ratio">0</property>
  <property name="meta.media.0.codec.width">640</property>
  <property name="meta.media.0.codec.height">360</property>
  <property name="meta.media.0.codec.rotate">0</property>
  <property name="meta.media.0.codec.frame_rate">29.97</property>
  <property name="meta.media.0.codec.pix_fmt">yuv420p</property>
  <property name="meta.media.0.codec.sample_aspect_ratio">1</property>
  <property name="meta.media.0.codec.colorspace">601</property>
  <property name="meta.media.0.codec.name">mpeg2video</property>
  <property name="meta.media.0.codec.long_name">MPEG-2 video</property>
  <property name="meta.media.0.codec.bit_rate">0</property>
  <property name="meta.media.1.stream.type">audio</property>
  <property name="meta.media.1.codec.sample_fmt">s16p</property>
  <property name="meta.media.1.codec.sample_rate">48000</property>
  <property name="meta.media.1.codec.channels">2</property>
  <property name="meta.media.1.codec.name">mp2</property>
  <property name="meta.media.1.codec.long_name">MP2 (MPEG audio layer 2)</property>
  <property name="meta.media.1.codec.bit_rate">128000</property>
  <property name="seekable">1</property>
  <property name="meta.media.sample_aspect_num">1</property>
  <property name="meta.media.sample_aspect_den">1</property>
  <property name="audio_index">1</property>
  <property name="video_index">0</property>
  <property name="mute_on_pause">1</property>
  <property name="warp_speed">3</property>
  <property name="warp_resource">/home/qwerty/.cache/kdenlive/proxy/0636cda4ac9341628c8a2c1afe5ee0f0.mpg</property>
  <property name="mlt_service">timewarp</property>
  <property name="meta.media.frame_rate_num">30000</property>
  <property name="meta.media.frame_rate_den">1001</property>
  <property name="meta.media.colorspace">601</property>
  <property name="meta.media.color_trc">2</property>
  <property name="meta.media.width">640</property>
  <property name="meta.media.height">360</property>
  <property name="meta.media.top_field_first">0</property>
  <property name="meta.media.progressive">1</property>
 </producer>
 <producer id="52_playlist9" title="Anonymous Submission" out="8590" in="0">
  <property name="length">00:04:46;20</property>
  <property name="eof">pause</property>
  <property name="resource">/home/qwerty/.cache/kdenlive/proxy/0636cda4ac9341628c8a2c1afe5ee0f0.mpg</property>
  <property name="meta.media.nb_streams">2</property>
  <property name="meta.media.0.stream.type">video</property>
  <property name="meta.media.0.stream.frame_rate">29.97</property>
  <property name="meta.media.0.stream.sample_aspect_ratio">0</property>
  <property name="meta.media.0.codec.width">640</property>
  <property name="meta.media.0.codec.height">360</property>
  <property name="meta.media.0.codec.rotate">0</property>
  <property name="meta.media.0.codec.frame_rate">29.97</property>
  <property name="meta.media.0.codec.pix_fmt">yuv420p</property>
  <property name="meta.media.0.codec.sample_aspect_ratio">1</property>
  <property name="meta.media.0.codec.colorspace">601</property>
  <property name="meta.media.0.codec.name">mpeg2video</property>
  <property name="meta.media.0.codec.long_name">MPEG-2 video</property>
  <property name="meta.media.0.codec.bit_rate">0</property>
  <property name="meta.media.1.stream.type">audio</property>
  <property name="meta.media.1.codec.sample_fmt">s16p</property>
  <property name="meta.media.1.codec.sample_rate">48000</property>
  <property name="meta.media.1.codec.channels">2</property>
  <property name="meta.media.1.codec.name">mp2</property>
  <property name="meta.media.1.codec.long_name">MP2 (MPEG audio layer 2)</property>
  <property name="meta.media.1.codec.bit_rate">128000</property>
  <property name="seekable">1</property>
  <property name="meta.media.sample_aspect_num">1</property>
  <property name="meta.media.sample_aspect_den">1</property>
  <property name="aspect_ratio">1</property>
  <property name="audio_index">1</property>
  <property name="video_index">0</property>
  <property name="mute_on_pause">1</property>
  <property name="mlt_service">avformat</property>
  <property name="kdenlive:folderid">-1</property>
  <property name="kdenlive:file_size">1729413120</property>
  <property name="kdenlive:file_hash">0636cda4ac9341628c8a2c1afe5ee0f0</property>
  <property name="global_feed">1</property>
  <property name="kdenlive:proxy">/home/qwerty/.cache/kdenlive/proxy/0636cda4ac9341628c8a2c1afe5ee0f0.mpg</property>
  <property name="proxy_out">8593</property>
  <property name="kdenlive:originalurl">20170108_104623.mp4</property>
  <property name="kdenlive:meta.media.nb_streams">2</property>
  <property name="kdenlive:meta.media.0.stream.type">video</property>
  <property name="kdenlive:meta.media.0.stream.frame_rate">29.9677</property>
  <property name="kdenlive:meta.media.0.stream.sample_aspect_ratio">0</property>
  <property name="kdenlive:meta.media.0.codec.width">3840</property>
  <property name="kdenlive:meta.media.0.codec.height">2160</property>
  <property name="kdenlive:meta.media.0.codec.rotate">0</property>
  <property name="kdenlive:meta.media.0.codec.frame_rate">90000</property>
  <property name="kdenlive:meta.media.0.codec.pix_fmt">yuv420p</property>
  <property name="kdenlive:meta.media.0.codec.sample_aspect_ratio">0</property>
  <property name="kdenlive:meta.media.0.codec.colorspace">709</property>
  <property name="kdenlive:meta.media.0.codec.name">h264</property>
  <property name="kdenlive:meta.media.0.codec.long_name">H.264 / AVC / MPEG-4 AVC / MPEG-4 part 10</property>
  <property name="kdenlive:meta.media.0.codec.bit_rate">48000090</property>
  <property name="kdenlive:meta.attr.0.stream.creation_time.markup">2017-01-08T18:51:11.000000Z</property>
  <property name="kdenlive:meta.attr.0.stream.language.markup">eng</property>
  <property name="kdenlive:meta.attr.0.stream.handler_name.markup">VideoHandle</property>
  <property name="kdenlive:meta.media.1.stream.type">audio</property>
  <property name="kdenlive:meta.media.1.codec.sample_fmt">fltp</property>
  <property name="kdenlive:meta.media.1.codec.sample_rate">48000</property>
  <property name="kdenlive:meta.media.1.codec.channels">2</property>
  <property name="kdenlive:meta.media.1.codec.name">aac</property>
  <property name="kdenlive:meta.media.1.codec.long_name">AAC (Advanced Audio Coding)</property>
  <property name="kdenlive:meta.media.1.codec.bit_rate">256001</property>
  <property name="kdenlive:meta.attr.1.stream.creation_time.markup">2017-01-08T18:51:11.000000Z</property>
  <property name="kdenlive:meta.attr.1.stream.language.markup">eng</property>
  <property name="kdenlive:meta.attr.1.stream.handler_name.markup">SoundHandle</property>
  <property name="kdenlive:meta.attr.major_brand.markup">mp42</property>
  <property name="kdenlive:meta.attr.minor_version.markup">0</property>
  <property name="kdenlive:meta.attr.compatible_brands.markup">isommp42</property>
  <property name="kdenlive:meta.attr.creation_time.markup">2017-01-08T18:51:11.000000Z</property>
  <property name="kdenlive:meta.media.sample_aspect_num">1</property>
  <property name="kdenlive:meta.media.sample_aspect_den">1</property>
  <property name="kdenlive:meta.media.frame_rate_num">77319000</property>
  <property name="kdenlive:meta.media.frame_rate_den">2580077</property>
  <property name="kdenlive:meta.media.colorspace">709</property>
  <property name="kdenlive:meta.media.color_trc">2</property>
  <property name="kdenlive:meta.media.width">3840</property>
  <property name="kdenlive:meta.media.height">2160</property>
  <property name="kdenlive:meta.media.top_field_first">0</property>
  <property name="kdenlive:meta.media.progressive">1</property>
  <property name="xml">was here</property>
  <property name="meta.media.frame_rate_num">30000</property>
  <property name="meta.media.frame_rate_den">1001</property>
  <property name="meta.media.colorspace">601</property>
  <property name="meta.media.color_trc">2</property>
  <property name="meta.media.width">640</property>
  <property name="meta.media.height">360</property>
  <property name="meta.media.top_field_first">0</property>
  <property name="meta.media.progressive">1</property>
 </producer>
 <producer id="56_playlist10" title="Anonymous Submission" out="6836" in="0">
  <property name="length">00:03:48;04</property>
  <property name="eof">pause</property>
  <property name="resource">LA FTC Inter-League Tournament (Zone D and I) - Qualification Match 34 - DASH.mp4</property>
  <property name="audio_index">-1</property>
  <property name="video_index">0</property>
  <property name="mute_on_pause">1</property>
  <property name="mlt_service">avformat-novalidate</property>
  <property name="seekable">1</property>
  <property name="aspect_ratio">1</property>
  <property name="kdenlive:folderid">-1</property>
  <property name="kdenlive:file_size">107543623</property>
  <property name="kdenlive:file_hash">e06bc71ad8111f0b85e402b6b1a9fc9b</property>
  <property name="global_feed">1</property>
  <property name="xml">was here</property>
  <property name="meta.media.nb_streams">1</property>
  <property name="meta.media.0.stream.type">video</property>
  <property name="meta.media.0.stream.frame_rate">29.97</property>
  <property name="meta.media.0.stream.sample_aspect_ratio">0</property>
  <property name="meta.media.0.codec.width">1920</property>
  <property name="meta.media.0.codec.height">1080</property>
  <property name="meta.media.0.codec.rotate">0</property>
  <property name="meta.media.0.codec.frame_rate">29.97</property>
  <property name="meta.media.0.codec.pix_fmt">yuv420p</property>
  <property name="meta.media.0.codec.sample_aspect_ratio">1</property>
  <property name="meta.media.0.codec.colorspace">709</property>
  <property name="meta.media.0.codec.color_trc">1</property>
  <property name="meta.media.0.codec.name">h264</property>
  <property name="meta.media.0.codec.long_name">H.264 / AVC / MPEG-4 AVC / MPEG-4 part 10</property>
  <property name="meta.media.0.codec.bit_rate">90657</property>
  <property name="meta.attr.0.stream.creation_time.markup">2017-02-18T23:10:59.000000Z</property>
  <property name="meta.attr.0.stream.handler_name.markup">VideoHandler</property>
  <property name="meta.attr.major_brand.markup">dash</property>
  <property name="meta.attr.minor_version.markup">0</property>
  <property name="meta.attr.compatible_brands.markup">iso6avc1mp41</property>
  <property name="meta.attr.creation_time.markup">2017-02-18T23:10:59.000000Z</property>
  <property name="meta.media.sample_aspect_num">1</property>
  <property name="meta.media.sample_aspect_den">1</property>
  <property name="meta.media.frame_rate_num">30000</property>
  <property name="meta.media.frame_rate_den">1001</property>
  <property name="meta.media.colorspace">709</property>
  <property name="meta.media.color_trc">1</property>
  <property name="meta.media.width">1920</property>
  <property name="meta.media.height">1080</property>
  <property name="meta.media.top_field_first">0</property>
  <property name="meta.media.progressive">1</property>
  <property name="movit.convert.width">1920</property>
  <property name="movit.convert.height">1080</property>
  <property name="movit.convert.format">2</property>
 </producer>
 <producer id="slowmotion:54:3:1:0" out="2454" in="0">
  <property name="length">2455</property>
  <property name="eof">pause</property>
  <property name="resource">3:/home/qwerty/.cache/kdenlive/proxy/f748af6495257956dd67cd85d38e9530.mpg</property>
  <property name="aspect_ratio">1</property>
  <property name="meta.media.nb_streams">2</property>
  <property name="meta.media.0.stream.type">video</property>
  <property name="meta.media.0.stream.frame_rate">29.97</property>
  <property name="meta.media.0.stream.sample_aspect_ratio">0</property>
  <property name="meta.media.0.codec.width">640</property>
  <property name="meta.media.0.codec.height">360</property>
  <property name="meta.media.0.codec.rotate">0</property>
  <property name="meta.media.0.codec.frame_rate">29.97</property>
  <property name="meta.media.0.codec.pix_fmt">yuv420p</property>
  <property name="meta.media.0.codec.sample_aspect_ratio">1</property>
  <property name="meta.media.0.codec.colorspace">601</property>
  <property name="meta.media.0.codec.name">mpeg2video</property>
  <property name="meta.media.0.codec.long_name">MPEG-2 video</property>
  <property name="meta.media.0.codec.bit_rate">0</property>
  <property name="meta.media.1.stream.type">audio</property>
  <property name="meta.media.1.codec.sample_fmt">s16p</property>
  <property name="meta.media.1.codec.sample_rate">48000</property>
  <property name="meta.media.1.codec.channels">2</property>
  <property name="meta.media.1.codec.name">mp2</property>
  <property name="meta.media.1.codec.long_name">MP2 (MPEG audio layer 2)</property>
  <property name="meta.media.1.codec.bit_rate">128000</property>
  <property name="seekable">1</property>
  <property name="meta.media.sample_aspect_num">1</property>
  <property name="meta.media.sample_aspect_den">1</property>
  <property name="audio_index">1</property>
  <property name="video_index">0</property>
  <property name="mute_on_pause">1</property>
  <property name="warp_speed">3</property>
  <property name="warp_resource">/home/qwerty/.cache/kdenlive/proxy/f748af6495257956dd67cd85d38e9530.mpg</property>
  <property name="mlt_service">timewarp</property>
  <property name="meta.media.frame_rate_num">30000</property>
  <property name="meta.media.frame_rate_den">1001</property>
  <property name="meta.media.colorspace">601</property>
  <property name="meta.media.color_trc">2</property>
  <property name="meta.media.width">640</property>
  <property name="meta.media.height">360</property>
  <property name="meta.media.top_field_first">0</property>
  <property name="meta.media.progressive">1</property>
 </producer>
 <playlist id="playlist9">
  <property name="kdenlive:track_name">Video 4</property>
  <property name="kdenlive:locked_track">0</property>
  <blank length="1719"/>
  <entry out="319" producer="13_playlist9" in="172">
   <filter id="filter42">
    <property name="window">75</property>
    <property name="max_gain">20dB</property>
    <property name="mlt_service">volume</property>
    <property name="kdenlive_id">mute</property>
    <property name="tag">volume</property>
    <property name="kdenlive_ix">1</property>
    <property name="gain">0</property>
   </filter>
  </entry>
  <entry out="314" producer="17" in="0"/>
  <entry out="1799" producer="slowmotion:52:3:1:0" in="1675">
   <filter id="filter43">
    <property name="window">75</property>
    <property name="max_gain">20dB</property>
    <property name="mlt_service">volume</property>
    <property name="kdenlive_id">mute</property>
    <property name="tag">volume</property>
    <property name="kdenlive_ix">1</property>
    <property name="gain">0</property>
   </filter>
  </entry>
  <entry out="5446" producer="52_playlist9" in="5398">
   <filter id="filter44">
    <property name="window">75</property>
    <property name="max_gain">20dB</property>
    <property name="mlt_service">volume</property>
    <property name="kdenlive_id">mute</property>
    <property name="tag">volume</property>
    <property name="kdenlive_ix">1</property>
    <property name="gain">0</property>
   </filter>
  </entry>
  <entry out="2155" producer="slowmotion:52:3:1:0" in="1816">
   <filter id="filter45">
    <property name="window">75</property>
    <property name="max_gain">20dB</property>
    <property name="mlt_service">volume</property>
    <property name="kdenlive_id">mute</property>
    <property name="tag">volume</property>
    <property name="kdenlive_ix">1</property>
    <property name="gain">0</property>
   </filter>
  </entry>
  <blank length="74"/>
  <entry out="5886" producer="56_playlist10" in="5508">
   <filter id="frei0r.defish0r">
    <property name="version">0.3</property>
    <property name="mlt_service">frei0r.defish0r</property>
    <property name="kdenlive_id">frei0r.defish0r</property>
    <property name="tag">frei0r.defish0r</property>
    <property name="kdenlive_ix">1</property>
    <property name="Amount">5508=0.75</property>
    <property name="DeFish">1</property>
    <property name="Type">0.666</property>
    <property name="Scaling">0</property>
    <property name="Manual Scale">0.5</property>
    <property name="Interpolator">0.166</property>
    <property name="Aspect type">0</property>
    <property name="Manual Aspect">0.5</property>
    <property name="kdenlive_info"/>
   </filter>
  </entry>
  <entry out="2382" producer="slowmotion:52:3:1:0" in="2078">
   <filter id="filter46">
    <property name="window">75</property>
    <property name="max_gain">20dB</property>
    <property name="mlt_service">volume</property>
    <property name="kdenlive_id">mute</property>
    <property name="tag">volume</property>
    <property name="kdenlive_ix">1</property>
    <property name="gain">0</property>
   </filter>
  </entry>
  <entry out="507" producer="slowmotion:54:3:1:0" in="201">
   <filter id="filter47">
    <property name="window">75</property>
    <property name="max_gain">20dB</property>
    <property name="mlt_service">volume</property>
    <property name="kdenlive_id">mute</property>
    <property name="tag">volume</property>
    <property name="kdenlive_ix">1</property>
    <property name="gain">0</property>
   </filter>
  </entry>
  <entry out="873" producer="slowmotion:54:3:1:0" in="508">
   <filter id="filter48">
    <property name="window">75</property>
    <property name="max_gain">20dB</property>
    <property name="mlt_service">volume</property>
    <property name="kdenlive_id">mute</property>
    <property name="tag">volume</property>
    <property name="kdenlive_ix">1</property>
    <property name="gain">0</property>
   </filter>
  </entry>
  <blank length="238"/>
  <entry out="1666" producer="slowmotion:54:3:1:0" in="1123">
   <filter id="filter49">
    <property name="window">75</property>
    <property name="max_gain">20dB</property>
    <property name="mlt_service">volume</property>
    <property name="kdenlive_id">mute</property>
    <property name="tag">volume</property>
    <property name="kdenlive_ix">2</property>
    <property name="kdenlive_info"/>
    <property name="disable"/>
    <property name="gain">0</property>
   </filter>
  </entry>
 </playlist>
 <playlist id="playlist10">
  <property name="kdenlive:track_name">Video 5</property>
  <property name="kdenlive:locked_track">0</property>
  <blank length="3761"/>
  <entry out="365" producer="55" in="0"/>
  <blank length="238"/>
  <entry out="543" producer="55" in="0"/>
 </playlist>
 <tractor id="maintractor" title="Anonymous Submission" global_feed="1" out="5112" in="0">
  <track producer="black_track"/>
  <track producer="playlist1" hide="video"/>
  <track producer="playlist2" hide="video"/>
  <track producer="playlist3" hide="video"/>
  <track producer="playlist4"/>
  <track producer="playlist5" hide="video"/>
  <track producer="playlist6"/>
  <track producer="playlist7"/>
  <track producer="playlist8"/>
  <track producer="playlist9"/>
  <track producer="playlist10"/>
  <transition id="transition0">
   <property name="a_track">0</property>
   <property name="b_track">1</property>
   <property name="mlt_service">mix</property>
   <property name="always_active">1</property>
   <property name="combine">1</property>
   <property name="internal_added">237</property>
  </transition>
  <transition id="transition1">
   <property name="a_track">0</property>
   <property name="b_track">2</property>
   <property name="mlt_service">mix</property>
   <property name="always_active">1</property>
   <property name="combine">1</property>
   <property name="internal_added">237</property>
  </transition>
  <transition id="transition2">
   <property name="a_track">0</property>
   <property name="b_track">3</property>
   <property name="mlt_service">mix</property>
   <property name="always_active">1</property>
   <property name="combine">1</property>
   <property name="internal_added">237</property>
  </transition>
  <transition id="transition3">
   <property name="a_track">0</property>
   <property name="b_track">4</property>
   <property name="mlt_service">mix</property>
   <property name="always_active">1</property>
   <property name="combine">1</property>
   <property name="internal_added">237</property>
  </transition>
  <transition id="transition4">
   <property name="a_track">0</property>
   <property name="b_track">5</property>
   <property name="mlt_service">mix</property>
   <property name="always_active">1</property>
   <property name="combine">1</property>
   <property name="internal_added">237</property>
  </transition>
  <transition id="transition5">
   <property name="a_track">0</property>
   <property name="b_track">6</property>
   <property name="mlt_service">mix</property>
   <property name="always_active">1</property>
   <property name="combine">1</property>
   <property name="internal_added">237</property>
  </transition>
  <transition id="transition6">
   <property name="a_track">0</property>
   <property name="b_track">7</property>
   <property name="mlt_service">mix</property>
   <property name="always_active">1</property>
   <property name="combine">1</property>
   <property name="internal_added">237</property>
  </transition>
  <transition id="transition7">
   <property name="a_track">0</property>
   <property name="b_track">8</property>
   <property name="mlt_service">mix</property>
   <property name="always_active">1</property>
   <property name="combine">1</property>
   <property name="internal_added">237</property>
  </transition>
  <transition id="transition8">
   <property name="a_track">0</property>
   <property name="b_track">9</property>
   <property name="mlt_service">mix</property>
   <property name="always_active">1</property>
   <property name="combine">1</property>
   <property name="internal_added">237</property>
  </transition>
  <transition id="transition9">
   <property name="a_track">0</property>
   <property name="b_track">10</property>
   <property name="mlt_service">mix</property>
   <property name="always_active">1</property>
   <property name="combine">1</property>
   <property name="internal_added">237</property>
  </transition>
  <transition id="transition10" out="4126" in="3761">
   <property name="a_track">9</property>
   <property name="b_track">10</property>
   <property name="start">0/0:100%x100%</property>
   <property name="factory">loader</property>
   <property name="aligned">0</property>
   <property name="progressive">1</property>
   <property name="mlt_service">composite</property>
   <property name="kdenlive_id">composite</property>
   <property name="force_track">0</property>
   <property name="deinterlace">0</property>
   <property name="distort">0</property>
   <property name="fill">1</property>
   <property name="geometry">0%/0%:100%x100%:100</property>
   <property name="luma_invert">0</property>
   <property name="operator">over</property>
   <property name="softness">0</property>
  </transition>
  <transition id="transition11" out="4908" in="4365">
   <property name="a_track">9</property>
   <property name="b_track">10</property>
   <property name="start">0/0:100%x100%</property>
   <property name="factory">loader</property>
   <property name="aligned">0</property>
   <property name="progressive">1</property>
   <property name="mlt_service">composite</property>
   <property name="kdenlive_id">composite</property>
   <property name="force_track">0</property>
   <property name="deinterlace">0</property>
   <property name="distort">0</property>
   <property name="fill">1</property>
   <property name="geometry">0%/0%:100%x100%:100</property>
   <property name="luma_invert">0</property>
   <property name="operator">over</property>
   <property name="softness">0</property>
  </transition>
  <transition id="transition13">
   <property name="a_track">0</property>
   <property name="b_track">6</property>
   <property name="compositing">0</property>
   <property name="distort">0</property>
   <property name="mlt_service">qtblend</property>
   <property name="always_active">1</property>
   <property name="internal_added">237</property>
   <property name="disable">0</property>
  </transition>
  <transition id="transition14">
   <property name="a_track">0</property>
   <property name="b_track">7</property>
   <property name="compositing">0</property>
   <property name="distort">0</property>
   <property name="mlt_service">qtblend</property>
   <property name="always_active">1</property>
   <property name="internal_added">237</property>
   <property name="disable">0</property>
  </transition>
  <transition id="transition15">
   <property name="a_track">0</property>
   <property name="b_track">8</property>
   <property name="compositing">0</property>
   <property name="distort">0</property>
   <property name="mlt_service">qtblend</property>
   <property name="always_active">1</property>
   <property name="internal_added">237</property>
   <property name="disable">0</property>
  </transition>
  <transition id="transition16">
   <property name="a_track">0</property>
   <property name="b_track">9</property>
   <property name="compositing">0</property>
   <property name="distort">0</property>
   <property name="mlt_service">qtblend</property>
   <property name="always_active">1</property>
   <property name="internal_added">237</property>
   <property name="disable">0</property>
  </transition>
  <transition id="transition17">
   <property name="a_track">0</property>
   <property name="b_track">10</property>
   <property name="compositing">0</property>
   <property name="distort">0</property>
   <property name="mlt_service">qtblend</property>
   <property name="always_active">1</property>
   <property name="internal_added">237</property>
   <property name="disable">0</property>
  </transition>
 </tractor>
</mlt>
